<svg width="173" height="47" viewBox="0 0 173 47" fill="none" xmlns="http://www.w3.org/2000/svg">
<path d="M0.5 0.5H172.5V46.5H0.5V0.5Z" fill="#FCD068" stroke="#FFBA15"/>
<path d="M172 2V46H1L172 2Z" fill="#E6A200"/>
<path d="M24 11H145V38H24V11Z" fill="#FFF8B7" stroke="#FEF9CB" stroke-width="6"/>
<path d="M25.4658 19.3438H26.0986V32H25.4658V19.3438ZM29.2627 19.3438H29.8955V28.8359H34.5625V29.4688H29.8955V30.1016H34.5625V30.7344H29.8955V31.3672H34.5625V32H29.2627V19.3438ZM27.9971 19.3438H28.6299V32H27.9971V19.3438ZM26.7314 19.3438H27.3643V32H26.7314V19.3438ZM47.9939 23.8877C47.5018 24.3799 47.2557 24.9746 47.2557 25.6719C47.2557 26.3691 47.5018 26.9668 47.9939 27.4648C48.492 27.957 49.0896 28.2031 49.7869 28.2031C50.4842 28.2031 51.0789 27.957 51.5711 27.4648C52.0691 26.9668 52.3182 26.3691 52.3182 25.6719C52.3182 24.9746 52.0691 24.3799 51.5711 23.8877C51.0789 23.3896 50.4842 23.1406 49.7869 23.1406C49.0896 23.1406 48.492 23.3896 47.9939 23.8877ZM47.5457 27.9131C46.9305 27.292 46.6229 26.5449 46.6229 25.6719C46.6229 24.7988 46.9305 24.0547 47.5457 23.4395C48.1668 22.8184 48.9139 22.5078 49.7869 22.5078C50.66 22.5078 51.4041 22.8184 52.0193 23.4395C52.6404 24.0547 52.951 24.7988 52.951 25.6719C52.951 26.5449 52.6404 27.292 52.0193 27.9131C51.4041 28.5283 50.66 28.8359 49.7869 28.8359C48.9139 28.8359 48.1668 28.5283 47.5457 27.9131ZM47.0975 22.9912C46.3592 23.7354 45.99 24.6289 45.99 25.6719C45.99 26.7148 46.3592 27.6084 47.0975 28.3525C47.8416 29.0967 48.7381 29.4688 49.7869 29.4688C50.8357 29.4688 51.7293 29.0967 52.4676 28.3525C53.2117 27.6084 53.5838 26.7148 53.5838 25.6719C53.5838 24.6289 53.2117 23.7354 52.4676 22.9912C51.7293 22.2471 50.8357 21.875 49.7869 21.875C48.7381 21.875 47.8416 22.2471 47.0975 22.9912ZM45.9461 27.8955C45.5535 27.2158 45.3572 26.4746 45.3572 25.6719C45.3572 24.8691 45.5535 24.1279 45.9461 23.4482C46.3445 22.7686 46.8836 22.2324 47.5633 21.8398C48.243 21.4414 48.9842 21.2422 49.7869 21.2422C50.5896 21.2422 51.3309 21.4414 52.0105 21.8398C52.6902 22.2324 53.2264 22.7686 53.6189 23.4482C54.0174 24.1279 54.2166 24.8691 54.2166 25.6719C54.2166 26.4746 54.0174 27.2158 53.6189 27.8955C53.2264 28.5752 52.6902 29.1143 52.0105 29.5127C51.3309 29.9053 50.5896 30.1016 49.7869 30.1016C48.9842 30.1016 48.243 29.9053 47.5633 29.5127C46.8836 29.1143 46.3445 28.5752 45.9461 27.8955ZM45.1199 23.7119C44.8563 24.333 44.7244 24.9863 44.7244 25.6719C44.7244 26.3574 44.8563 27.0137 45.1199 27.6406C45.3895 28.2617 45.7498 28.8008 46.201 29.2578C46.658 29.709 47.1971 30.0693 47.8182 30.3389C48.4451 30.6025 49.1014 30.7344 49.7869 30.7344C50.4725 30.7344 51.1258 30.6025 51.7469 30.3389C52.3738 30.0693 52.9129 29.709 53.3641 29.2578C53.8211 28.8008 54.1814 28.2617 54.4451 27.6406C54.7146 27.0137 54.8494 26.3574 54.8494 25.6719C54.8494 24.9863 54.7146 24.333 54.4451 23.7119C54.1814 23.085 53.8211 22.5459 53.3641 22.0947C52.9129 21.6377 52.3738 21.2773 51.7469 21.0137C51.1258 20.7441 50.4725 20.6094 49.7869 20.6094C49.1014 20.6094 48.4451 20.7441 47.8182 21.0137C47.1971 21.2773 46.658 21.6377 46.201 22.0947C45.7498 22.5459 45.3895 23.085 45.1199 23.7119ZM44.5398 27.8867C44.241 27.1836 44.0916 26.4453 44.0916 25.6719C44.0916 24.8984 44.241 24.1602 44.5398 23.457C44.8445 22.7539 45.2488 22.1504 45.7527 21.6465C46.2625 21.1367 46.8689 20.7324 47.5721 20.4336C48.2752 20.1289 49.0135 19.9766 49.7869 19.9766C50.5604 19.9766 51.2986 20.1289 52.0018 20.4336C52.7049 20.7324 53.3084 21.1367 53.8123 21.6465C54.3221 22.1504 54.7264 22.7539 55.0252 23.457C55.3299 24.1602 55.4822 24.8984 55.4822 25.6719C55.4822 26.4453 55.3299 27.1836 55.0252 27.8867C54.7264 28.5898 54.3221 29.1963 53.8123 29.7061C53.3084 30.21 52.7049 30.6143 52.0018 30.9189C51.2986 31.2178 50.5604 31.3672 49.7869 31.3672C49.0135 31.3672 48.2752 31.2178 47.5721 30.9189C46.8689 30.6143 46.2625 30.21 45.7527 29.7061C45.2488 29.1963 44.8445 28.5898 44.5398 27.8867ZM43.9598 23.2197C43.6258 23.999 43.4588 24.8164 43.4588 25.6719C43.4588 26.5273 43.6258 27.3477 43.9598 28.1328C44.2938 28.9121 44.742 29.5859 45.3045 30.1543C45.8729 30.7168 46.5467 31.165 47.326 31.499C48.1111 31.833 48.9314 32 49.7869 32C50.6424 32 51.4598 31.833 52.2391 31.499C53.0242 31.165 53.698 30.7168 54.2605 30.1543C54.8289 29.5859 55.2801 28.9121 55.6141 28.1328C55.948 27.3477 56.115 26.5273 56.115 25.6719C56.115 24.8164 55.948 23.999 55.6141 23.2197C55.2801 22.4346 54.8289 21.7607 54.2605 21.1982C53.698 20.6299 53.0242 20.1787 52.2391 19.8447C51.4598 19.5107 50.6424 19.3438 49.7869 19.3438C48.9314 19.3438 48.1111 19.5107 47.326 19.8447C46.5467 20.1787 45.8729 20.6299 45.3045 21.1982C44.742 21.7607 44.2938 22.4346 43.9598 23.2197ZM43.3797 28.3789C43.0105 27.5176 42.826 26.6152 42.826 25.6719C42.826 24.7285 43.0105 23.8291 43.3797 22.9736C43.7488 22.1123 44.2439 21.3711 44.865 20.75C45.4861 20.1289 46.2244 19.6338 47.0799 19.2646C47.9412 18.8955 48.8436 18.7109 49.7869 18.7109C50.7303 18.7109 51.6297 18.8955 52.4852 19.2646C53.3465 19.6338 54.0877 20.1289 54.7088 20.75C55.3299 21.3711 55.825 22.1123 56.1941 22.9736C56.5633 23.8291 56.7479 24.7285 56.7479 25.6719C56.7479 26.6152 56.5633 27.5176 56.1941 28.3789C55.825 29.2344 55.3299 29.9727 54.7088 30.5938C54.0877 31.2148 53.3465 31.71 52.4852 32.0791C51.6297 32.4482 50.7303 32.6328 49.7869 32.6328C48.8436 32.6328 47.9412 32.4482 47.0799 32.0791C46.2244 31.71 45.4861 31.2148 44.865 30.5938C44.2439 29.9727 43.7488 29.2344 43.3797 28.3789ZM75.6461 25.584H76.2789V32C75.3414 32.4219 74.3717 32.6328 73.3697 32.6328C72.4264 32.6328 71.524 32.4482 70.6627 32.0791C69.8072 31.71 69.0689 31.2148 68.4479 30.5938C67.8268 29.9727 67.3316 29.2344 66.9625 28.3789C66.5934 27.5176 66.4088 26.6152 66.4088 25.6719C66.4088 24.7285 66.5934 23.8291 66.9625 22.9736C67.3316 22.1123 67.8268 21.3711 68.4479 20.75C69.0689 20.1289 69.8072 19.6338 70.6627 19.2646C71.524 18.8955 72.4264 18.7109 73.3697 18.7109C74.4479 18.7109 75.4615 18.9453 76.4107 19.4141C77.36 19.877 78.1598 20.5156 78.8102 21.3301L78.3004 21.708C77.7086 20.9756 76.982 20.3984 76.1207 19.9766C75.2652 19.5547 74.3482 19.3438 73.3697 19.3438C72.5143 19.3438 71.6939 19.5107 70.9088 19.8447C70.1295 20.1787 69.4557 20.6299 68.8873 21.1982C68.3248 21.7607 67.8766 22.4346 67.5426 23.2197C67.2086 23.999 67.0416 24.8164 67.0416 25.6719C67.0416 26.5273 67.2086 27.3477 67.5426 28.1328C67.8766 28.9121 68.3248 29.5859 68.8873 30.1543C69.4557 30.7168 70.1295 31.165 70.9088 31.499C71.6939 31.833 72.5143 32 73.3697 32C74.1607 32 74.9195 31.8594 75.6461 31.5781V30.9277C74.9137 31.2207 74.1549 31.3672 73.3697 31.3672C72.5963 31.3672 71.858 31.2178 71.1549 30.9189C70.4518 30.6143 69.8453 30.21 69.3355 29.7061C68.8316 29.1963 68.4273 28.5898 68.1227 27.8867C67.8238 27.1836 67.6744 26.4453 67.6744 25.6719C67.6744 24.8984 67.8238 24.1602 68.1227 23.457C68.4273 22.7539 68.8316 22.1504 69.3355 21.6465C69.8453 21.1367 70.4518 20.7324 71.1549 20.4336C71.858 20.1289 72.5963 19.9766 73.3697 19.9766C74.2545 19.9766 75.0836 20.167 75.857 20.5479C76.6363 20.9287 77.2926 21.4531 77.8258 22.1211L77.3336 22.5166C76.859 21.9248 76.276 21.459 75.5846 21.1191C74.8932 20.7793 74.1549 20.6094 73.3697 20.6094C72.6842 20.6094 72.0279 20.7441 71.401 21.0137C70.7799 21.2773 70.2408 21.6377 69.7838 22.0947C69.3326 22.5459 68.9723 23.085 68.7027 23.7119C68.4391 24.333 68.3072 24.9863 68.3072 25.6719C68.3072 26.3574 68.4391 27.0137 68.7027 27.6406C68.9723 28.2617 69.3326 28.8008 69.7838 29.2578C70.2408 29.709 70.7799 30.0693 71.401 30.3389C72.0279 30.6025 72.6842 30.7344 73.3697 30.7344C74.1783 30.7344 74.9371 30.5703 75.6461 30.2422V29.5918C74.9371 29.9316 74.1783 30.1016 73.3697 30.1016C72.567 30.1016 71.8258 29.9053 71.1461 29.5127C70.4664 29.1143 69.9273 28.5752 69.5289 27.8955C69.1363 27.2158 68.94 26.4746 68.94 25.6719C68.94 24.8691 69.1363 24.1279 69.5289 23.4482C69.9273 22.7686 70.4664 22.2324 71.1461 21.8398C71.8258 21.4414 72.567 21.2422 73.3697 21.2422C74.0553 21.2422 74.6998 21.3916 75.3033 21.6904C75.9127 21.9834 76.4225 22.3906 76.8326 22.9121L76.3316 23.2988C75.9801 22.8535 75.5436 22.5049 75.0221 22.2529C74.5064 22.001 73.9557 21.875 73.3697 21.875C72.3209 21.875 71.4244 22.2471 70.6803 22.9912C69.942 23.7354 69.5729 24.6289 69.5729 25.6719C69.5729 26.7148 69.942 27.6084 70.6803 28.3525C71.4244 29.0967 72.3209 29.4688 73.3697 29.4688C74.19 29.4688 74.9488 29.2695 75.6461 28.8711V28.2295C74.9605 28.6338 74.2018 28.8359 73.3697 28.8359C72.4967 28.8359 71.7496 28.5283 71.1285 27.9131C70.5133 27.292 70.2057 26.5449 70.2057 25.6719C70.2057 24.7988 70.5133 24.0547 71.1285 23.4395C71.7496 22.8184 72.4967 22.5078 73.3697 22.5078C73.8619 22.5078 74.3248 22.6162 74.7584 22.833C75.192 23.0439 75.5553 23.334 75.8482 23.7031L75.3385 24.0898C74.8287 23.457 74.1725 23.1406 73.3697 23.1406C72.6725 23.1406 72.0748 23.3896 71.5768 23.8877C71.0846 24.3799 70.8385 24.9746 70.8385 25.6719C70.8385 26.3691 71.0846 26.9668 71.5768 27.4648C72.0748 27.957 72.6725 28.2031 73.3697 28.2031C74.2662 28.2031 75.025 27.9541 75.6461 27.4561V25.584ZM79.443 25.584H80.0758V32H79.443V25.584ZM78.1773 25.584H78.8102V32H78.1773V25.584ZM76.9117 25.584H77.5445V32H76.9117V25.584ZM93.6654 23.8877C93.1732 24.3799 92.9271 24.9746 92.9271 25.6719C92.9271 26.3691 93.1732 26.9668 93.6654 27.4648C94.1635 27.957 94.7611 28.2031 95.4584 28.2031C96.1557 28.2031 96.7504 27.957 97.2426 27.4648C97.7406 26.9668 97.9896 26.3691 97.9896 25.6719C97.9896 24.9746 97.7406 24.3799 97.2426 23.8877C96.7504 23.3896 96.1557 23.1406 95.4584 23.1406C94.7611 23.1406 94.1635 23.3896 93.6654 23.8877ZM93.2172 27.9131C92.602 27.292 92.2943 26.5449 92.2943 25.6719C92.2943 24.7988 92.602 24.0547 93.2172 23.4395C93.8383 22.8184 94.5854 22.5078 95.4584 22.5078C96.3314 22.5078 97.0756 22.8184 97.6908 23.4395C98.3119 24.0547 98.6225 24.7988 98.6225 25.6719C98.6225 26.5449 98.3119 27.292 97.6908 27.9131C97.0756 28.5283 96.3314 28.8359 95.4584 28.8359C94.5854 28.8359 93.8383 28.5283 93.2172 27.9131ZM92.7689 22.9912C92.0307 23.7354 91.6615 24.6289 91.6615 25.6719C91.6615 26.7148 92.0307 27.6084 92.7689 28.3525C93.5131 29.0967 94.4096 29.4688 95.4584 29.4688C96.5072 29.4688 97.4008 29.0967 98.1391 28.3525C98.8832 27.6084 99.2553 26.7148 99.2553 25.6719C99.2553 24.6289 98.8832 23.7354 98.1391 22.9912C97.4008 22.2471 96.5072 21.875 95.4584 21.875C94.4096 21.875 93.5131 22.2471 92.7689 22.9912ZM91.6176 27.8955C91.225 27.2158 91.0287 26.4746 91.0287 25.6719C91.0287 24.8691 91.225 24.1279 91.6176 23.4482C92.016 22.7686 92.5551 22.2324 93.2348 21.8398C93.9145 21.4414 94.6557 21.2422 95.4584 21.2422C96.2611 21.2422 97.0023 21.4414 97.682 21.8398C98.3617 22.2324 98.8979 22.7686 99.2904 23.4482C99.6889 24.1279 99.8881 24.8691 99.8881 25.6719C99.8881 26.4746 99.6889 27.2158 99.2904 27.8955C98.8979 28.5752 98.3617 29.1143 97.682 29.5127C97.0023 29.9053 96.2611 30.1016 95.4584 30.1016C94.6557 30.1016 93.9145 29.9053 93.2348 29.5127C92.5551 29.1143 92.016 28.5752 91.6176 27.8955ZM90.7914 23.7119C90.5277 24.333 90.3959 24.9863 90.3959 25.6719C90.3959 26.3574 90.5277 27.0137 90.7914 27.6406C91.0609 28.2617 91.4213 28.8008 91.8725 29.2578C92.3295 29.709 92.8686 30.0693 93.4896 30.3389C94.1166 30.6025 94.7729 30.7344 95.4584 30.7344C96.1439 30.7344 96.7973 30.6025 97.4184 30.3389C98.0453 30.0693 98.5844 29.709 99.0355 29.2578C99.4926 28.8008 99.8529 28.2617 100.117 27.6406C100.386 27.0137 100.521 26.3574 100.521 25.6719C100.521 24.9863 100.386 24.333 100.117 23.7119C99.8529 23.085 99.4926 22.5459 99.0355 22.0947C98.5844 21.6377 98.0453 21.2773 97.4184 21.0137C96.7973 20.7441 96.1439 20.6094 95.4584 20.6094C94.7729 20.6094 94.1166 20.7441 93.4896 21.0137C92.8686 21.2773 92.3295 21.6377 91.8725 22.0947C91.4213 22.5459 91.0609 23.085 90.7914 23.7119ZM90.2113 27.8867C89.9125 27.1836 89.7631 26.4453 89.7631 25.6719C89.7631 24.8984 89.9125 24.1602 90.2113 23.457C90.516 22.7539 90.9203 22.1504 91.4242 21.6465C91.934 21.1367 92.5404 20.7324 93.2436 20.4336C93.9467 20.1289 94.685 19.9766 95.4584 19.9766C96.2318 19.9766 96.9701 20.1289 97.6732 20.4336C98.3764 20.7324 98.9799 21.1367 99.4838 21.6465C99.9936 22.1504 100.398 22.7539 100.697 23.457C101.001 24.1602 101.154 24.8984 101.154 25.6719C101.154 26.4453 101.001 27.1836 100.697 27.8867C100.398 28.5898 99.9936 29.1963 99.4838 29.7061C98.9799 30.21 98.3764 30.6143 97.6732 30.9189C96.9701 31.2178 96.2318 31.3672 95.4584 31.3672C94.685 31.3672 93.9467 31.2178 93.2436 30.9189C92.5404 30.6143 91.934 30.21 91.4242 29.7061C90.9203 29.1963 90.516 28.5898 90.2113 27.8867ZM89.6312 23.2197C89.2973 23.999 89.1303 24.8164 89.1303 25.6719C89.1303 26.5273 89.2973 27.3477 89.6312 28.1328C89.9652 28.9121 90.4135 29.5859 90.976 30.1543C91.5443 30.7168 92.2182 31.165 92.9975 31.499C93.7826 31.833 94.6029 32 95.4584 32C96.3139 32 97.1312 31.833 97.9105 31.499C98.6957 31.165 99.3695 30.7168 99.932 30.1543C100.5 29.5859 100.952 28.9121 101.286 28.1328C101.62 27.3477 101.787 26.5273 101.787 25.6719C101.787 24.8164 101.62 23.999 101.286 23.2197C100.952 22.4346 100.5 21.7607 99.932 21.1982C99.3695 20.6299 98.6957 20.1787 97.9105 19.8447C97.1312 19.5107 96.3139 19.3438 95.4584 19.3438C94.6029 19.3438 93.7826 19.5107 92.9975 19.8447C92.2182 20.1787 91.5443 20.6299 90.976 21.1982C90.4135 21.7607 89.9652 22.4346 89.6312 23.2197ZM89.0512 28.3789C88.682 27.5176 88.4975 26.6152 88.4975 25.6719C88.4975 24.7285 88.682 23.8291 89.0512 22.9736C89.4203 22.1123 89.9154 21.3711 90.5365 20.75C91.1576 20.1289 91.8959 19.6338 92.7514 19.2646C93.6127 18.8955 94.515 18.7109 95.4584 18.7109C96.4018 18.7109 97.3012 18.8955 98.1566 19.2646C99.018 19.6338 99.7592 20.1289 100.38 20.75C101.001 21.3711 101.496 22.1123 101.866 22.9736C102.235 23.8291 102.419 24.7285 102.419 25.6719C102.419 26.6152 102.235 27.5176 101.866 28.3789C101.496 29.2344 101.001 29.9727 100.38 30.5938C99.7592 31.2148 99.018 31.71 98.1566 32.0791C97.3012 32.4482 96.4018 32.6328 95.4584 32.6328C94.515 32.6328 93.6127 32.4482 92.7514 32.0791C91.8959 31.71 91.1576 31.2148 90.5365 30.5938C89.9154 29.9727 89.4203 29.2344 89.0512 28.3789ZM119.349 26.3926V19.3438H119.982V26.3926C119.982 27.0605 119.724 27.6348 119.208 28.1152C118.698 28.5957 118.083 28.8359 117.363 28.8359C116.642 28.8359 116.024 28.5957 115.508 28.1152C114.998 27.6348 114.743 27.0605 114.743 26.3926V19.3438H115.376V26.3926C115.376 26.8906 115.57 27.3184 115.956 27.6758C116.349 28.0273 116.818 28.2031 117.363 28.2031C117.907 28.2031 118.373 28.0273 118.76 27.6758C119.153 27.3184 119.349 26.8906 119.349 26.3926ZM120.614 26.3926V19.3438H121.247V26.3926C121.247 27.418 120.866 28.2939 120.105 29.0205C119.343 29.7412 118.429 30.1016 117.363 30.1016C116.296 30.1016 115.382 29.7412 114.62 29.0205C113.859 28.2939 113.478 27.418 113.478 26.3926V19.3438H114.111V26.3926C114.111 27.2422 114.427 27.9688 115.06 28.5723C115.698 29.1699 116.466 29.4688 117.363 29.4688C118.253 29.4688 119.018 29.1699 119.656 28.5723C120.295 27.9688 120.614 27.2422 120.614 26.3926ZM121.88 26.3926V19.3438H122.513V26.3926C122.513 27.2891 122.281 28.1211 121.819 28.8887C121.356 29.6504 120.729 30.2539 119.938 30.6992C119.147 31.1445 118.288 31.3672 117.363 31.3672C116.437 31.3672 115.578 31.1445 114.787 30.6992C113.996 30.2539 113.369 29.6504 112.906 28.8887C112.444 28.1211 112.212 27.2891 112.212 26.3926V19.3438H112.845V26.3926C112.845 27.1719 113.047 27.8955 113.451 28.5635C113.856 29.2314 114.404 29.7617 115.095 30.1543C115.792 30.541 116.548 30.7344 117.363 30.7344C118.177 30.7344 118.93 30.541 119.621 30.1543C120.319 29.7617 120.869 29.2314 121.274 28.5635C121.678 27.8955 121.88 27.1719 121.88 26.3926ZM123.146 26.3926V19.3438H123.779V26.3926C123.779 27.2363 123.609 28.0449 123.269 28.8184C122.929 29.5859 122.472 30.248 121.898 30.8047C121.323 31.3613 120.641 31.8037 119.85 32.1318C119.059 32.4658 118.23 32.6328 117.363 32.6328C116.495 32.6328 115.666 32.4658 114.875 32.1318C114.084 31.8037 113.402 31.3613 112.827 30.8047C112.253 30.248 111.796 29.5859 111.456 28.8184C111.116 28.0449 110.946 27.2363 110.946 26.3926V19.3438H111.579V26.3926C111.579 27.4004 111.837 28.335 112.353 29.1963C112.874 30.0576 113.577 30.7402 114.462 31.2441C115.353 31.748 116.32 32 117.363 32C118.405 32 119.369 31.748 120.254 31.2441C121.145 30.7402 121.848 30.0576 122.363 29.1963C122.885 28.335 123.146 27.4004 123.146 26.3926ZM134.811 22.8506H135.443V32H134.811V22.8506ZM132.279 19.9766V19.3438H141.771V19.9766H132.279ZM132.279 21.2422V20.6094H141.771V21.2422H132.279ZM132.279 22.5078V21.875H141.771V22.5078H132.279ZM138.607 22.8506H139.24V32H138.607V22.8506ZM137.342 22.8506H137.975V32H137.342V22.8506ZM136.076 22.8506H136.709V32H136.076V22.8506Z" fill="#FE77DD"/>
<path d="M25.4658 19.3438V18.9688H25.0908V19.3438H25.4658ZM26.0986 19.3438H26.4736V18.9688H26.0986V19.3438ZM26.0986 32V32.375H26.4736V32H26.0986ZM25.4658 32H25.0908V32.375H25.4658V32ZM29.2627 19.3438V18.9688H28.8877V19.3438H29.2627ZM29.8955 19.3438H30.2705V18.9688H29.8955V19.3438ZM29.8955 28.8359H29.5205V29.2109H29.8955V28.8359ZM34.5625 28.8359H34.9375V28.4609H34.5625V28.8359ZM34.5625 29.4688V29.8438H34.9375V29.4688H34.5625ZM29.8955 29.4688V29.0938H29.5205V29.4688H29.8955ZM29.8955 30.1016H29.5205V30.4766H29.8955V30.1016ZM34.5625 30.1016H34.9375V29.7266H34.5625V30.1016ZM34.5625 30.7344V31.1094H34.9375V30.7344H34.5625ZM29.8955 30.7344V30.3594H29.5205V30.7344H29.8955ZM29.8955 31.3672H29.5205V31.7422H29.8955V31.3672ZM34.5625 31.3672H34.9375V30.9922H34.5625V31.3672ZM34.5625 32V32.375H34.9375V32H34.5625ZM29.2627 32H28.8877V32.375H29.2627V32ZM27.9971 19.3438V18.9688H27.6221V19.3438H27.9971ZM28.6299 19.3438H29.0049V18.9688H28.6299V19.3438ZM28.6299 32V32.375H29.0049V32H28.6299ZM27.9971 32H27.6221V32.375H27.9971V32ZM26.7314 19.3438V18.9688H26.3564V19.3438H26.7314ZM27.3643 19.3438H27.7393V18.9688H27.3643V19.3438ZM27.3643 32V32.375H27.7393V32H27.3643ZM26.7314 32H26.3564V32.375H26.7314V32ZM25.4658 19.7188H26.0986V18.9688H25.4658V19.7188ZM25.7236 19.3438V32H26.4736V19.3438H25.7236ZM26.0986 31.625H25.4658V32.375H26.0986V31.625ZM25.8408 32V19.3438H25.0908V32H25.8408ZM29.2627 19.7188H29.8955V18.9688H29.2627V19.7188ZM29.5205 19.3438V28.8359H30.2705V19.3438H29.5205ZM29.8955 29.2109H34.5625V28.4609H29.8955V29.2109ZM34.1875 28.8359V29.4688H34.9375V28.8359H34.1875ZM34.5625 29.0938H29.8955V29.8438H34.5625V29.0938ZM29.5205 29.4688V30.1016H30.2705V29.4688H29.5205ZM29.8955 30.4766H34.5625V29.7266H29.8955V30.4766ZM34.1875 30.1016V30.7344H34.9375V30.1016H34.1875ZM34.5625 30.3594H29.8955V31.1094H34.5625V30.3594ZM29.5205 30.7344V31.3672H30.2705V30.7344H29.5205ZM29.8955 31.7422H34.5625V30.9922H29.8955V31.7422ZM34.1875 31.3672V32H34.9375V31.3672H34.1875ZM34.5625 31.625H29.2627V32.375H34.5625V31.625ZM29.6377 32V19.3438H28.8877V32H29.6377ZM27.9971 19.7188H28.6299V18.9688H27.9971V19.7188ZM28.2549 19.3438V32H29.0049V19.3438H28.2549ZM28.6299 31.625H27.9971V32.375H28.6299V31.625ZM28.3721 32V19.3438H27.6221V32H28.3721ZM26.7314 19.7188H27.3643V18.9688H26.7314V19.7188ZM26.9893 19.3438V32H27.7393V19.3438H26.9893ZM27.3643 31.625H26.7314V32.375H27.3643V31.625ZM27.1064 32V19.3438H26.3564V32H27.1064ZM47.9939 27.4648L47.7272 27.7285L47.7304 27.7316L47.9939 27.4648ZM51.5711 23.8877L51.3043 24.1513L51.3075 24.1544L51.5711 23.8877ZM47.5457 27.9131L47.2793 28.177L47.2818 28.1795L47.5457 27.9131ZM52.0193 23.4395L51.7529 23.7034L51.7554 23.7059L52.0193 23.4395ZM47.0975 22.9912L46.8323 22.726L46.8313 22.7271L47.0975 22.9912ZM47.0975 28.3525L46.8312 28.6167L46.8323 28.6177L47.0975 28.3525ZM52.4676 28.3525L52.2024 28.0874L52.2014 28.0884L52.4676 28.3525ZM52.4676 22.9912L52.2014 23.2553L52.2024 23.2564L52.4676 22.9912ZM45.9461 27.8955L45.6214 28.0831L45.6226 28.0852L45.9461 27.8955ZM45.9461 23.4482L45.6226 23.2586L45.6214 23.2607L45.9461 23.4482ZM47.5633 21.8398L47.7508 22.1646L47.7529 22.1634L47.5633 21.8398ZM52.0105 21.8398L51.8209 22.1634L51.823 22.1646L52.0105 21.8398ZM53.6189 23.4482L53.2942 23.6358L53.2954 23.6379L53.6189 23.4482ZM53.6189 27.8955L53.2954 27.7059L53.2942 27.708L53.6189 27.8955ZM52.0105 29.5127L52.1981 29.8374L52.2002 29.8362L52.0105 29.5127ZM47.5633 29.5127L47.3736 29.8362L47.3757 29.8374L47.5633 29.5127ZM45.1199 23.7119L44.7754 23.5638L44.7747 23.5654L45.1199 23.7119ZM45.1199 27.6406L44.7742 27.786L44.7759 27.7899L45.1199 27.6406ZM46.201 29.2578L45.9341 29.5213L45.9375 29.5247L46.201 29.2578ZM47.8182 30.3389L47.6689 30.6829L47.6728 30.6845L47.8182 30.3389ZM51.7469 30.3389L51.8934 30.6841L51.895 30.6834L51.7469 30.3389ZM54.4451 27.6406L54.1006 27.4925L54.0999 27.4941L54.4451 27.6406ZM54.4451 23.7119L54.0994 23.8573L54.1011 23.8612L54.4451 23.7119ZM53.3641 22.0947L53.0972 22.3582L53.1006 22.3616L53.3641 22.0947ZM51.7469 21.0137L51.5976 21.3577L51.6015 21.3593L51.7469 21.0137ZM47.8182 21.0137L47.9647 21.3589L47.9663 21.3582L47.8182 21.0137ZM44.5398 27.8867L44.1947 28.0334L44.1958 28.0358L44.5398 27.8867ZM44.5398 23.457L44.1958 23.3079L44.1947 23.3104L44.5398 23.457ZM47.5721 20.4336L47.7188 20.7787L47.7212 20.7777L47.5721 20.4336ZM52.0018 20.4336L51.8527 20.7777L51.8551 20.7787L52.0018 20.4336ZM53.8123 21.6465L53.5456 21.9101L53.5487 21.9132L53.8123 21.6465ZM55.0252 23.457L54.6801 23.6037L54.6811 23.6061L55.0252 23.457ZM55.0252 27.8867L54.6811 27.7376L54.6801 27.74L55.0252 27.8867ZM52.0018 30.9189L52.1484 31.2641L52.1509 31.263L52.0018 30.9189ZM47.5721 30.9189L47.423 31.263L47.4254 31.2641L47.5721 30.9189ZM45.7527 29.7061L45.486 29.9697L45.4891 29.9727L45.7527 29.7061ZM43.9598 23.2197L44.3044 23.3674L44.3048 23.3665L43.9598 23.2197ZM43.9598 28.1328L43.6147 28.2796L43.6151 28.2805L43.9598 28.1328ZM45.3045 30.1543L45.0379 30.4181L45.0407 30.4208L45.3045 30.1543ZM47.326 31.499L47.1783 31.8437L47.1792 31.8441L47.326 31.499ZM52.2391 31.499L52.0923 31.1539L52.0913 31.1543L52.2391 31.499ZM55.6141 28.1328L55.9587 28.2805L55.9591 28.2796L55.6141 28.1328ZM55.6141 23.2197L55.269 23.3665L55.2694 23.3674L55.6141 23.2197ZM54.2605 21.1982L53.994 21.462L53.9968 21.4648L54.2605 21.1982ZM52.2391 19.8447L52.0913 20.1894L52.0923 20.1898L52.2391 19.8447ZM47.326 19.8447L47.1792 19.4996L47.1783 19.5L47.326 19.8447ZM43.3797 28.3789L43.035 28.5266L43.0354 28.5275L43.3797 28.3789ZM43.3797 22.9736L43.724 23.1222L43.7244 23.1214L43.3797 22.9736ZM47.0799 19.2646L46.9322 18.92L46.9313 18.9203L47.0799 19.2646ZM52.4852 19.2646L52.3366 19.609L52.3374 19.6093L52.4852 19.2646ZM56.1941 22.9736L55.8495 23.1214L55.8498 23.1222L56.1941 22.9736ZM56.1941 28.3789L56.5385 28.5275L56.5388 28.5266L56.1941 28.3789ZM52.4852 32.0791L52.3374 31.7344L52.3366 31.7348L52.4852 32.0791ZM47.0799 32.0791L46.9313 32.4234L46.9322 32.4238L47.0799 32.0791ZM47.7288 23.6225C47.1661 24.1852 46.8807 24.8753 46.8807 25.6719H47.6307C47.6307 25.0739 47.8374 24.5746 48.2591 24.1529L47.7288 23.6225ZM46.8807 25.6719C46.8807 26.4683 47.166 27.1605 47.7272 27.7284L48.2607 27.2013C47.8375 26.7731 47.6307 26.27 47.6307 25.6719H46.8807ZM47.7304 27.7316C48.2983 28.2928 48.9905 28.5781 49.7869 28.5781V27.8281C49.1888 27.8281 48.6857 27.6213 48.2575 27.1981L47.7304 27.7316ZM49.7869 28.5781C50.5834 28.5781 51.2736 28.2927 51.8363 27.73L51.3059 27.1997C50.8842 27.6214 50.3849 27.8281 49.7869 27.8281V28.5781ZM51.8363 27.73C52.4038 27.1624 52.6932 26.4697 52.6932 25.6719H51.9432C51.9432 26.2686 51.7345 26.7712 51.3059 27.1997L51.8363 27.73ZM52.6932 25.6719C52.6932 24.8739 52.4037 24.1833 51.8347 23.621L51.3075 24.1544C51.7346 24.5765 51.9432 25.0753 51.9432 25.6719H52.6932ZM51.8378 23.6241C51.2755 23.0551 50.5849 22.7656 49.7869 22.7656V23.5156C50.3835 23.5156 50.8823 23.7242 51.3044 24.1513L51.8378 23.6241ZM49.7869 22.7656C48.9891 22.7656 48.2964 23.055 47.7288 23.6225L48.2591 24.1529C48.6876 23.7243 49.1902 23.5156 49.7869 23.5156V22.7656ZM47.8121 27.6492C47.2663 27.0982 46.9979 26.4459 46.9979 25.6719H46.2479C46.2479 26.6439 46.5946 27.4858 47.2793 28.177L47.8121 27.6492ZM46.9979 25.6719C46.9979 24.8979 47.2662 24.2493 47.8109 23.7046L47.2805 23.1743C46.5947 23.8601 46.2479 24.6998 46.2479 25.6719H46.9979ZM47.8109 23.7046C48.3621 23.1534 49.014 22.8828 49.7869 22.8828V22.1328C48.8137 22.1328 47.9715 22.4833 47.2805 23.1743L47.8109 23.7046ZM49.7869 22.8828C50.5597 22.8828 51.208 23.1533 51.7529 23.7034L52.2858 23.1755C51.6002 22.4835 50.7602 22.1328 49.7869 22.1328V22.8828ZM51.7554 23.7059C52.3055 24.2508 52.576 24.8991 52.576 25.6719H53.326C53.326 24.6986 52.9753 23.8586 52.2832 23.173L51.7554 23.7059ZM52.576 25.6719C52.576 26.4448 52.3054 27.0967 51.7542 27.6479L52.2845 28.1783C52.9754 27.4873 53.326 26.6451 53.326 25.6719H52.576ZM51.7542 27.6479C51.2095 28.1926 50.5609 28.4609 49.7869 28.4609V29.2109C50.759 29.2109 51.5987 28.8641 52.2845 28.1783L51.7542 27.6479ZM49.7869 28.4609C49.0129 28.4609 48.3606 28.1924 47.8096 27.6467L47.2818 28.1795C47.973 28.8642 48.8149 29.2109 49.7869 29.2109V28.4609ZM46.8313 22.7271C46.0237 23.5411 45.615 24.5294 45.615 25.6719H46.365C46.365 24.7284 46.6947 23.9296 47.3637 23.2553L46.8313 22.7271ZM45.615 25.6719C45.615 26.8143 46.0237 27.8027 46.8313 28.6167L47.3637 28.0884C46.6947 27.4141 46.365 26.6153 46.365 25.6719H45.615ZM46.8323 28.6177C47.6465 29.4319 48.6383 29.8438 49.7869 29.8438V29.0938C48.8379 29.0938 48.0367 28.7615 47.3626 28.0874L46.8323 28.6177ZM49.7869 29.8438C50.9356 29.8438 51.9251 29.4318 52.7338 28.6167L52.2014 28.0884C51.5335 28.7616 50.7358 29.0938 49.7869 29.0938V29.8438ZM52.7327 28.6177C53.5465 27.804 53.9588 26.8153 53.9588 25.6719H53.2088C53.2088 26.6144 52.8769 27.4128 52.2024 28.0874L52.7327 28.6177ZM53.9588 25.6719C53.9588 24.5284 53.5465 23.5398 52.7327 22.726L52.2024 23.2564C52.8769 23.9309 53.2088 24.7294 53.2088 25.6719H53.9588ZM52.7338 22.7271C51.9251 21.9119 50.9356 21.5 49.7869 21.5V22.25C50.7358 22.25 51.5335 22.5822 52.2014 23.2553L52.7338 22.7271ZM49.7869 21.5C48.6383 21.5 47.6465 21.9118 46.8323 22.726L47.3626 23.2564C48.0367 22.5823 48.8379 22.25 49.7869 22.25V21.5ZM46.2708 27.708C45.912 27.0866 45.7322 26.4103 45.7322 25.6719H44.9822C44.9822 26.5389 45.1951 27.345 45.6214 28.0831L46.2708 27.708ZM45.7322 25.6719C45.7322 24.9334 45.912 24.2571 46.2708 23.6358L45.6214 23.2607C45.1951 23.9987 44.9822 24.8049 44.9822 25.6719H45.7322ZM46.2696 23.6379C46.6353 23.014 47.1276 22.5245 47.7508 22.1646L47.3757 21.5151C46.6396 21.9403 46.0537 22.5231 45.6226 23.2586L46.2696 23.6379ZM47.7529 22.1634C48.374 21.7993 49.0495 21.6172 49.7869 21.6172V20.8672C48.9188 20.8672 48.112 21.0835 47.3736 21.5163L47.7529 22.1634ZM49.7869 21.6172C50.5243 21.6172 51.1999 21.7993 51.8209 22.1634L52.2002 21.5163C51.4619 21.0835 50.655 20.8672 49.7869 20.8672V21.6172ZM51.823 22.1646C52.4457 22.5242 52.9345 23.0131 53.2942 23.6358L53.9437 23.2607C53.5182 22.524 52.9348 21.9406 52.1981 21.5151L51.823 22.1646ZM53.2954 23.6379C53.6595 24.2589 53.8416 24.9345 53.8416 25.6719H54.5916C54.5916 24.8038 54.3753 23.9969 53.9425 23.2586L53.2954 23.6379ZM53.8416 25.6719C53.8416 26.4093 53.6595 27.0848 53.2954 27.7059L53.9425 28.0852C54.3753 27.3468 54.5916 26.54 54.5916 25.6719H53.8416ZM53.2942 27.708C52.9343 28.3312 52.4448 28.8235 51.8209 29.1892L52.2002 29.8362C52.9357 29.405 53.5185 28.8192 53.9437 28.0831L53.2942 27.708ZM51.823 29.188C51.2017 29.5468 50.5254 29.7266 49.7869 29.7266V30.4766C50.6539 30.4766 51.4601 30.2637 52.1981 29.8374L51.823 29.188ZM49.7869 29.7266C49.0485 29.7266 48.3722 29.5468 47.7508 29.188L47.3757 29.8374C48.1138 30.2637 48.9199 30.4766 49.7869 30.4766V29.7266ZM47.7529 29.1892C47.1286 28.8232 46.6356 28.3302 46.2696 27.7059L45.6226 28.0852C46.0535 28.8202 46.6386 29.4053 47.3736 29.8362L47.7529 29.1892ZM44.7747 23.5654C44.4911 24.2336 44.3494 24.9368 44.3494 25.6719H45.0994C45.0994 25.0359 45.2214 24.4324 45.4651 23.8585L44.7747 23.5654ZM44.3494 25.6719C44.3494 26.4069 44.4911 27.1127 44.7742 27.786L45.4656 27.4952C45.2214 26.9147 45.0994 26.3079 45.0994 25.6719H44.3494ZM44.7759 27.7899C45.0629 28.4512 45.4487 29.0295 45.9341 29.5213L46.4678 28.9944C46.051 28.5721 45.716 28.0723 45.4639 27.4913L44.7759 27.7899ZM45.9375 29.5247C46.4293 30.0101 47.0076 30.3959 47.6689 30.6829L47.9674 29.9949C47.3865 29.7428 46.8867 29.4078 46.4644 28.9909L45.9375 29.5247ZM47.6728 30.6845C48.3461 30.9677 49.0518 31.1094 49.7869 31.1094V30.3594C49.1509 30.3594 48.5441 30.2374 47.9635 29.9932L47.6728 30.6845ZM49.7869 31.1094C50.522 31.1094 51.2252 30.9677 51.8934 30.684L51.6003 29.9937C51.0263 30.2374 50.4229 30.3594 49.7869 30.3594V31.1094ZM51.895 30.6834C52.5626 30.3964 53.1421 30.0101 53.6292 29.523L53.0989 28.9926C52.6836 29.4079 52.1851 29.7423 51.5988 29.9944L51.895 30.6834ZM53.6292 29.523C54.1218 29.0304 54.5087 28.4506 54.7903 27.7872L54.0999 27.4941C53.8542 28.0728 53.5204 28.5711 53.0989 28.9926L53.6292 29.523ZM54.7896 27.7887C55.0794 27.1148 55.2244 26.4081 55.2244 25.6719H54.4744C54.4744 26.3067 54.3499 26.9126 54.1006 27.4925L54.7896 27.7887ZM55.2244 25.6719C55.2244 24.9356 55.0794 24.2314 54.7891 23.5626L54.1011 23.8612C54.3499 24.4346 54.4744 25.037 54.4744 25.6719H55.2244ZM54.7908 23.5665C54.5091 22.8968 54.1217 22.3157 53.6275 21.8279L53.1006 22.3616C53.5205 22.7761 53.8538 23.2731 54.0994 23.8573L54.7908 23.5665ZM53.6309 21.8313C53.1431 21.3371 52.562 20.9497 51.8923 20.668L51.6015 21.3593C52.1857 21.605 52.6827 21.9383 53.0972 22.3582L53.6309 21.8313ZM51.8962 20.6697C51.2273 20.3794 50.5232 20.2344 49.7869 20.2344V20.9844C50.4218 20.9844 51.0242 21.1089 51.5976 21.3577L51.8962 20.6697ZM49.7869 20.2344C49.0507 20.2344 48.344 20.3794 47.6701 20.6692L47.9663 21.3582C48.5462 21.1089 49.1521 20.9844 49.7869 20.9844V20.2344ZM47.6716 20.6685C47.0082 20.9501 46.4284 21.337 45.9358 21.8296L46.4661 22.3599C46.8876 21.9384 47.3859 21.6046 47.9647 21.3589L47.6716 20.6685ZM45.9358 21.8296C45.4487 22.3167 45.0624 22.8962 44.7754 23.5638L45.4644 23.86C45.7165 23.2737 46.0509 22.7751 46.4661 22.3599L45.9358 21.8296ZM44.885 27.74C44.6061 27.0839 44.4666 26.3955 44.4666 25.6719H43.7166C43.7166 26.4951 43.8759 27.2833 44.1947 28.0334L44.885 27.74ZM44.4666 25.6719C44.4666 24.9482 44.6061 24.2599 44.885 23.6037L44.1947 23.3104C43.8759 24.0605 43.7166 24.8487 43.7166 25.6719H44.4666ZM44.8839 23.6061C45.1713 22.943 45.5498 22.3797 46.0179 21.9116L45.4876 21.3813C44.9478 21.921 44.5178 22.5648 44.1958 23.3079L44.8839 23.6061ZM46.0179 21.9116C46.4917 21.4379 47.0572 21.0599 47.7187 20.7787L47.4254 20.0885C46.6807 20.405 46.0333 20.8356 45.4876 21.3813L46.0179 21.9116ZM47.7212 20.7777C48.3768 20.4936 49.0643 20.3516 49.7869 20.3516V19.6016C48.9627 19.6016 48.1736 19.7642 47.423 20.0895L47.7212 20.7777ZM49.7869 20.3516C50.5096 20.3516 51.197 20.4936 51.8527 20.7777L52.1509 20.0895C51.4002 19.7642 50.6112 19.6016 49.7869 19.6016V20.3516ZM51.8551 20.7787C52.5163 21.0597 53.0782 21.4373 53.5456 21.9101L54.079 21.3829C53.5386 20.8361 52.8935 20.4051 52.1484 20.0885L51.8551 20.7787ZM53.5487 21.9132C54.0215 22.3805 54.3991 22.9425 54.6801 23.6037L55.3703 23.3104C55.0537 22.5653 54.6227 21.9202 54.0759 21.3798L53.5487 21.9132ZM54.6811 23.6061C54.9652 24.2617 55.1072 24.9492 55.1072 25.6719H55.8572C55.8572 24.8476 55.6946 24.0586 55.3693 23.3079L54.6811 23.6061ZM55.1072 25.6719C55.1072 26.3945 54.9652 27.082 54.6811 27.7376L55.3693 28.0358C55.6946 27.2852 55.8572 26.4961 55.8572 25.6719H55.1072ZM54.6801 27.74C54.3989 28.4016 54.0209 28.9671 53.5471 29.4409L54.0775 29.9712C54.6232 29.4255 55.0538 28.7781 55.3703 28.0334L54.6801 27.74ZM53.5471 29.4409C53.0791 29.909 52.5158 30.2875 51.8527 30.5749L52.1509 31.263C52.894 30.941 53.5377 30.5109 54.0775 29.9712L53.5471 29.4409ZM51.8551 30.5738C51.1989 30.8527 50.5106 30.9922 49.7869 30.9922V31.7422C50.6101 31.7422 51.3983 31.5829 52.1484 31.2641L51.8551 30.5738ZM49.7869 30.9922C49.0632 30.9922 48.3749 30.8527 47.7187 30.5738L47.4254 31.2641C48.1755 31.5829 48.9637 31.7422 49.7869 31.7422V30.9922ZM47.7212 30.5749C47.0577 30.2874 46.4909 29.9084 46.0164 29.4394L45.4891 29.9727C46.0341 30.5115 46.6802 30.9412 47.423 31.263L47.7212 30.5749ZM46.0194 29.4424C45.5504 28.9679 45.1714 28.4011 44.8839 27.7376L44.1958 28.0358C44.5176 28.7786 44.9473 29.4246 45.486 29.9697L46.0194 29.4424ZM43.6151 23.072C43.2609 23.8984 43.0838 24.7661 43.0838 25.6719H43.8338C43.8338 24.8667 43.9907 24.0996 44.3044 23.3674L43.6151 23.072ZM43.0838 25.6719C43.0838 26.5777 43.2609 27.4479 43.6147 28.2796L44.3048 27.986C43.9907 27.2474 43.8338 26.477 43.8338 25.6719H43.0838ZM43.6151 28.2805C43.9665 29.1004 44.4404 29.8143 45.038 30.4181L45.571 29.8905C45.0436 29.3576 44.621 28.7238 44.3044 27.9851L43.6151 28.2805ZM45.0407 30.4208C45.6445 31.0184 46.3583 31.4923 47.1783 31.8437L47.4737 31.1543C46.735 30.8378 46.1012 30.4152 45.5683 29.8878L45.0407 30.4208ZM47.1792 31.8441C48.0109 32.1979 48.8811 32.375 49.7869 32.375V31.625C48.9818 31.625 48.2114 31.4681 47.4728 31.1539L47.1792 31.8441ZM49.7869 32.375C50.6927 32.375 51.5604 32.1979 52.3868 31.8437L52.0913 31.1543C51.3592 31.4681 50.5921 31.625 49.7869 31.625V32.375ZM52.3859 31.8441C53.212 31.4927 53.9268 31.0183 54.5257 30.4195L53.9954 29.8891C53.4693 30.4153 52.8365 30.8374 52.0923 31.1539L52.3859 31.8441ZM54.5257 30.4195C55.1296 29.8155 55.607 29.1012 55.9587 28.2805L55.2694 27.9851C54.9531 28.723 54.5282 29.3563 53.9954 29.8891L54.5257 30.4195ZM55.9591 28.2796C56.3129 27.4479 56.49 26.5777 56.49 25.6719H55.74C55.74 26.477 55.5832 27.2474 55.269 27.986L55.9591 28.2796ZM56.49 25.6719C56.49 24.7661 56.3129 23.8984 55.9587 23.072L55.2694 23.3674C55.5832 24.0996 55.74 24.8667 55.74 25.6719H56.49ZM55.9591 23.0729C55.6074 22.246 55.1296 21.5307 54.5243 20.9317L53.9968 21.4648C54.5282 21.9908 54.9528 22.6231 55.269 23.3665L55.9591 23.0729ZM54.5271 20.9345C53.9281 20.3292 53.2128 19.8514 52.3859 19.4996L52.0923 20.1898C52.8357 20.506 53.468 20.9306 53.994 21.462L54.5271 20.9345ZM52.3868 19.5C51.5604 19.1459 50.6927 18.9688 49.7869 18.9688V19.7188C50.5921 19.7188 51.3592 19.8756 52.0913 20.1894L52.3868 19.5ZM49.7869 18.9688C48.8811 18.9688 48.0109 19.1459 47.1792 19.4996L47.4728 20.1898C48.2114 19.8756 48.9818 19.7188 49.7869 19.7188V18.9688ZM47.1783 19.5C46.3575 19.8518 45.6432 20.3292 45.0393 20.9331L45.5697 21.4634C46.1025 20.9306 46.7358 20.5056 47.4737 20.1894L47.1783 19.5ZM45.0393 20.9331C44.4404 21.532 43.9661 22.2468 43.6147 23.0729L44.3048 23.3665C44.6214 22.6223 45.0435 21.9895 45.5697 21.4634L45.0393 20.9331ZM43.7244 28.2312C43.3754 27.4169 43.201 26.5648 43.201 25.6719H42.451C42.451 26.6657 42.6457 27.6183 43.035 28.5266L43.7244 28.2312ZM43.201 25.6719C43.201 24.779 43.3754 23.9302 43.724 23.1222L43.0354 22.8251C42.6457 23.728 42.451 24.6781 42.451 25.6719H43.201ZM43.7244 23.1214C44.076 22.3009 44.5451 21.6003 45.1302 21.0152L44.5999 20.4848C43.9428 21.1419 43.4217 21.9237 43.035 22.8259L43.7244 23.1214ZM45.1302 21.0152C45.7158 20.4296 46.4138 19.9605 47.2285 19.609L46.9313 18.9203C46.035 19.3071 45.2565 19.8282 44.5999 20.4848L45.1302 21.0152ZM47.2276 19.6093C48.0419 19.2603 48.894 19.0859 49.7869 19.0859V18.3359C48.7931 18.3359 47.8405 18.5307 46.9322 18.92L47.2276 19.6093ZM49.7869 19.0859C50.6798 19.0859 51.5286 19.2603 52.3366 19.609L52.6337 18.9203C51.7307 18.5307 50.7807 18.3359 49.7869 18.3359V19.0859ZM52.3374 19.6093C53.1579 19.9609 53.8585 20.43 54.4436 21.0152L54.974 20.4848C54.3169 19.8278 53.5351 19.3066 52.6329 18.92L52.3374 19.6093ZM54.4436 21.0152C55.0288 21.6003 55.4978 22.3009 55.8495 23.1214L56.5388 22.8259C56.1522 21.9237 55.631 21.1419 54.974 20.4848L54.4436 21.0152ZM55.8498 23.1222C56.1985 23.9302 56.3729 24.779 56.3729 25.6719H57.1229C57.1229 24.6781 56.9281 23.728 56.5385 22.8251L55.8498 23.1222ZM56.3729 25.6719C56.3729 26.5648 56.1985 27.4169 55.8495 28.2312L56.5388 28.5266C56.9281 27.6183 57.1229 26.6657 57.1229 25.6719H56.3729ZM55.8498 28.2303C55.4983 29.045 55.0292 29.743 54.4436 30.3286L54.974 30.8589C55.6306 30.2023 56.1517 29.4238 56.5385 28.5275L55.8498 28.2303ZM54.4436 30.3286C53.8585 30.9137 53.1579 31.3828 52.3374 31.7344L52.6329 32.4238C53.5351 32.0371 54.3169 31.516 54.974 30.8589L54.4436 30.3286ZM52.3366 31.7348C51.5286 32.0834 50.6798 32.2578 49.7869 32.2578V33.0078C50.7807 33.0078 51.7307 32.8131 52.6337 32.4234L52.3366 31.7348ZM49.7869 32.2578C48.894 32.2578 48.0419 32.0834 47.2276 31.7344L46.9322 32.4238C47.8405 32.8131 48.7931 33.0078 49.7869 33.0078V32.2578ZM47.2285 31.7348C46.4138 31.3833 45.7158 30.9142 45.1302 30.3286L44.5999 30.8589C45.2565 31.5155 46.035 32.0366 46.9313 32.4234L47.2285 31.7348ZM45.1302 30.3286C44.5446 29.743 44.0755 29.045 43.724 28.2303L43.0354 28.5275C43.4221 29.4238 43.9433 30.2023 44.5999 30.8589L45.1302 30.3286ZM75.6461 25.584V25.209H75.2711V25.584H75.6461ZM76.2789 25.584H76.6539V25.209H76.2789V25.584ZM76.2789 32L76.4328 32.342L76.6539 32.2425V32H76.2789ZM70.6627 32.0791L70.5141 32.4234L70.515 32.4238L70.6627 32.0791ZM66.9625 28.3789L66.6178 28.5266L66.6182 28.5275L66.9625 28.3789ZM66.9625 22.9736L67.3068 23.1222L67.3072 23.1214L66.9625 22.9736ZM70.6627 19.2646L70.515 18.92L70.5141 18.9203L70.6627 19.2646ZM76.4107 19.4141L76.2447 19.7503L76.2464 19.7511L76.4107 19.4141ZM78.8102 21.3301L79.0335 21.6313L79.3457 21.3998L79.1032 21.0961L78.8102 21.3301ZM78.3004 21.708L78.0087 21.9437L78.2348 22.2235L78.5237 22.0092L78.3004 21.708ZM76.1207 19.9766L75.9548 20.3129L75.9558 20.3133L76.1207 19.9766ZM70.9088 19.8447L70.762 19.4996L70.7611 19.5L70.9088 19.8447ZM67.5426 23.2197L67.8873 23.3674L67.8877 23.3665L67.5426 23.2197ZM67.5426 28.1328L67.1975 28.2796L67.1979 28.2805L67.5426 28.1328ZM68.8873 30.1543L68.6208 30.4181L68.6235 30.4208L68.8873 30.1543ZM70.9088 31.499L70.7611 31.8437L70.762 31.8441L70.9088 31.499ZM75.6461 31.5781L75.7815 31.9278L76.0211 31.8351V31.5781H75.6461ZM75.6461 30.9277H76.0211V30.3738L75.5068 30.5796L75.6461 30.9277ZM71.1549 30.9189L71.0058 31.263L71.0082 31.2641L71.1549 30.9189ZM69.3355 29.7061L69.0688 29.9697L69.0719 29.9727L69.3355 29.7061ZM68.1227 27.8867L67.7775 28.0334L67.7786 28.0358L68.1227 27.8867ZM68.1227 23.457L67.7786 23.3079L67.7775 23.3104L68.1227 23.457ZM71.1549 20.4336L71.3016 20.7787L71.304 20.7777L71.1549 20.4336ZM75.857 20.5479L75.6914 20.8843L75.6924 20.8848L75.857 20.5479ZM77.8258 22.1211L78.0607 22.4134L78.352 22.1793L78.1189 21.8871L77.8258 22.1211ZM77.3336 22.5166L77.0411 22.7512L77.2759 23.044L77.5685 22.8089L77.3336 22.5166ZM71.401 21.0137L71.5475 21.3589L71.5491 21.3582L71.401 21.0137ZM68.7027 23.7119L68.3582 23.5638L68.3576 23.5654L68.7027 23.7119ZM68.7027 27.6406L68.357 27.786L68.3587 27.7899L68.7027 27.6406ZM69.7838 29.2578L69.5169 29.5213L69.5203 29.5247L69.7838 29.2578ZM71.401 30.3389L71.2517 30.6829L71.2556 30.6845L71.401 30.3389ZM75.6461 30.2422L75.8036 30.5825L76.0211 30.4818V30.2422H75.6461ZM75.6461 29.5918H76.0211V28.9962L75.484 29.2536L75.6461 29.5918ZM71.1461 29.5127L70.9564 29.8362L70.9585 29.8374L71.1461 29.5127ZM69.5289 27.8955L69.2042 28.0831L69.2054 28.0852L69.5289 27.8955ZM69.5289 23.4482L69.2054 23.2586L69.2042 23.2607L69.5289 23.4482ZM71.1461 21.8398L71.3337 22.1646L71.3357 22.1634L71.1461 21.8398ZM75.3033 21.6904L75.1369 22.0265L75.1408 22.0284L75.3033 21.6904ZM76.8326 22.9121L77.0618 23.209L77.3613 22.9777L77.1274 22.6803L76.8326 22.9121ZM76.3316 23.2988L76.0373 23.5312L76.2672 23.8223L76.5608 23.5957L76.3316 23.2988ZM75.0221 22.2529L74.8574 22.5899L74.8589 22.5906L75.0221 22.2529ZM70.6803 22.9912L70.4151 22.726L70.4141 22.7271L70.6803 22.9912ZM70.6803 28.3525L70.4141 28.6167L70.4151 28.6177L70.6803 28.3525ZM75.6461 28.8711L75.8321 29.1967L76.0211 29.0887V28.8711H75.6461ZM75.6461 28.2295H76.0211V27.573L75.4556 27.9065L75.6461 28.2295ZM71.1285 27.9131L70.8621 28.177L70.8646 28.1795L71.1285 27.9131ZM74.7584 22.833L74.5907 23.1684L74.5944 23.1702L74.7584 22.833ZM75.8482 23.7031L76.0749 24.0019L76.3803 23.7702L76.142 23.47L75.8482 23.7031ZM75.3385 24.0898L75.0464 24.3251L75.2749 24.6087L75.5651 24.3886L75.3385 24.0898ZM71.5768 27.4648L71.31 27.7285L71.3132 27.7316L71.5768 27.4648ZM75.6461 27.4561L75.8807 27.7486L76.0211 27.636V27.4561H75.6461ZM79.443 25.584V25.209H79.068V25.584H79.443ZM80.0758 25.584H80.4508V25.209H80.0758V25.584ZM80.0758 32V32.375H80.4508V32H80.0758ZM79.443 32H79.068V32.375H79.443V32ZM78.1773 25.584V25.209H77.8023V25.584H78.1773ZM78.8102 25.584H79.1852V25.209H78.8102V25.584ZM78.8102 32V32.375H79.1852V32H78.8102ZM78.1773 32H77.8023V32.375H78.1773V32ZM76.9117 25.584V25.209H76.5367V25.584H76.9117ZM77.5445 25.584H77.9195V25.209H77.5445V25.584ZM77.5445 32V32.375H77.9195V32H77.5445ZM76.9117 32H76.5367V32.375H76.9117V32ZM75.6461 25.959H76.2789V25.209H75.6461V25.959ZM75.9039 25.584V32H76.6539V25.584H75.9039ZM76.125 31.658C75.2346 32.0587 74.3172 32.2578 73.3697 32.2578V33.0078C74.4261 33.0078 75.4482 32.785 76.4328 32.342L76.125 31.658ZM73.3697 32.2578C72.4768 32.2578 71.6247 32.0834 70.8104 31.7344L70.515 32.4238C71.4233 32.8131 72.3759 33.0078 73.3697 33.0078V32.2578ZM70.8113 31.7348C69.9966 31.3833 69.2986 30.9142 68.713 30.3286L68.1827 30.8589C68.8393 31.5155 69.6178 32.0366 70.5141 32.4234L70.8113 31.7348ZM68.713 30.3286C68.1274 29.743 67.6583 29.045 67.3068 28.2303L66.6182 28.5275C67.005 29.4238 67.5261 30.2023 68.1827 30.8589L68.713 30.3286ZM67.3072 28.2312C66.9582 27.4169 66.7838 26.5648 66.7838 25.6719H66.0338C66.0338 26.6657 66.2285 27.6183 66.6178 28.5266L67.3072 28.2312ZM66.7838 25.6719C66.7838 24.779 66.9582 23.9302 67.3068 23.1222L66.6182 22.8251C66.2285 23.728 66.0338 24.6781 66.0338 25.6719H66.7838ZM67.3072 23.1214C67.6588 22.3009 68.1279 21.6003 68.713 21.0152L68.1827 20.4848C67.5257 21.1419 67.0045 21.9237 66.6178 22.8259L67.3072 23.1214ZM68.713 21.0152C69.2986 20.4296 69.9966 19.9605 70.8113 19.609L70.5141 18.9203C69.6178 19.3071 68.8393 19.8282 68.1827 20.4848L68.713 21.0152ZM70.8104 19.6093C71.6247 19.2603 72.4768 19.0859 73.3697 19.0859V18.3359C72.3759 18.3359 71.4233 18.5307 70.515 18.92L70.8104 19.6093ZM73.3697 19.0859C74.3914 19.0859 75.3481 19.3075 76.2447 19.7503L76.5768 19.0778C75.575 18.5831 74.5043 18.3359 73.3697 18.3359V19.0859ZM76.2464 19.7511C77.1463 20.19 77.9019 20.7937 78.5171 21.5641L79.1032 21.0961C78.4176 20.2376 77.5736 19.5639 76.5751 19.077L76.2464 19.7511ZM78.5868 21.0288L78.0771 21.4068L78.5237 22.0092L79.0335 21.6313L78.5868 21.0288ZM78.5921 21.4723C77.9653 20.6966 77.1952 20.0853 76.2857 19.6398L75.9558 20.3133C76.7689 20.7116 77.4519 21.2546 78.0087 21.9437L78.5921 21.4723ZM76.2866 19.6402C75.3781 19.1922 74.4042 18.9688 73.3697 18.9688V19.7188C74.2923 19.7188 75.1523 19.9171 75.9548 20.3129L76.2866 19.6402ZM73.3697 18.9688C72.464 18.9688 71.5937 19.1459 70.762 19.4996L71.0556 20.1898C71.7942 19.8756 72.5646 19.7188 73.3697 19.7188V18.9688ZM70.7611 19.5C69.9404 19.8518 69.2261 20.3292 68.6221 20.9331L69.1525 21.4634C69.6853 20.9306 70.3186 20.5056 71.0565 20.1894L70.7611 19.5ZM68.6221 20.9331C68.0233 21.532 67.5489 22.2468 67.1975 23.0729L67.8877 23.3665C68.2042 22.6223 68.6264 21.9895 69.1525 21.4634L68.6221 20.9331ZM67.1979 23.072C66.8437 23.8984 66.6666 24.7661 66.6666 25.6719H67.4166C67.4166 24.8667 67.5735 24.0996 67.8873 23.3674L67.1979 23.072ZM66.6666 25.6719C66.6666 26.5777 66.8437 27.4479 67.1975 28.2796L67.8877 27.986C67.5735 27.2474 67.4166 26.477 67.4166 25.6719H66.6666ZM67.1979 28.2805C67.5493 29.1004 68.0232 29.8143 68.6208 30.4181L69.1538 29.8905C68.6264 29.3576 68.2038 28.7238 67.8873 27.9851L67.1979 28.2805ZM68.6235 30.4208C69.2273 31.0184 69.9412 31.4923 70.7611 31.8437L71.0565 31.1543C70.3178 30.8378 69.684 30.4152 69.1511 29.8878L68.6235 30.4208ZM70.762 31.8441C71.5937 32.1979 72.464 32.375 73.3697 32.375V31.625C72.5646 31.625 71.7942 31.4681 71.0556 31.1539L70.762 31.8441ZM73.3697 32.375C74.2063 32.375 75.0111 32.2261 75.7815 31.9278L75.5107 31.2284C74.828 31.4927 74.1152 31.625 73.3697 31.625V32.375ZM76.0211 31.5781V30.9277H75.2711V31.5781H76.0211ZM75.5068 30.5796C74.8185 30.8549 74.1069 30.9922 73.3697 30.9922V31.7422C74.2028 31.7422 75.0089 31.5865 75.7854 31.2759L75.5068 30.5796ZM73.3697 30.9922C72.6461 30.9922 71.9577 30.8527 71.3016 30.5738L71.0082 31.2641C71.7583 31.5829 72.5465 31.7422 73.3697 31.7422V30.9922ZM71.304 30.5749C70.6405 30.2874 70.0737 29.9084 69.5992 29.4394L69.0719 29.9727C69.617 30.5115 70.263 30.9412 71.0058 31.263L71.304 30.5749ZM69.6022 29.4424C69.1332 28.9679 68.7542 28.4011 68.4667 27.7376L67.7786 28.0358C68.1005 28.7786 68.5301 29.4246 69.0689 29.9697L69.6022 29.4424ZM68.4678 27.74C68.1889 27.0839 68.0494 26.3955 68.0494 25.6719H67.2994C67.2994 26.4951 67.4587 27.2833 67.7775 28.0334L68.4678 27.74ZM68.0494 25.6719C68.0494 24.9482 68.1889 24.2599 68.4678 23.6037L67.7775 23.3104C67.4587 24.0605 67.2994 24.8487 67.2994 25.6719H68.0494ZM68.4667 23.6061C68.7541 22.943 69.1326 22.3797 69.6007 21.9116L69.0704 21.3813C68.5307 21.921 68.1006 22.5648 67.7786 23.3079L68.4667 23.6061ZM69.6007 21.9116C70.0745 21.4379 70.64 21.0599 71.3016 20.7787L71.0082 20.0885C70.2635 20.405 69.6162 20.8356 69.0704 21.3813L69.6007 21.9116ZM71.304 20.7777C71.9596 20.4936 72.6471 20.3516 73.3697 20.3516V19.6016C72.5455 19.6016 71.7564 19.7642 71.0058 20.0895L71.304 20.7777ZM73.3697 20.3516C74.1986 20.3516 74.9709 20.5295 75.6914 20.8843L76.0227 20.2114C75.1963 19.8045 74.3104 19.6016 73.3697 19.6016V20.3516ZM75.6924 20.8848C76.4225 21.2416 77.0347 21.7311 77.5327 22.355L78.1189 21.8871C77.5505 21.1751 76.8501 20.6158 76.0217 20.2109L75.6924 20.8848ZM77.5909 21.8288L77.0987 22.2243L77.5685 22.8089L78.0607 22.4134L77.5909 21.8288ZM77.6261 22.282C77.1166 21.6466 76.4899 21.1463 75.75 20.7826L75.4192 21.4557C76.062 21.7717 76.6014 22.203 77.0411 22.7512L77.6261 22.282ZM75.75 20.7826C75.0061 20.417 74.2111 20.2344 73.3697 20.2344V20.9844C74.0987 20.9844 74.7802 21.1416 75.4192 21.4557L75.75 20.7826ZM73.3697 20.2344C72.6335 20.2344 71.9268 20.3794 71.2529 20.6692L71.5491 21.3582C72.129 21.1089 72.7349 20.9844 73.3697 20.9844V20.2344ZM71.2544 20.6685C70.591 20.9501 70.0112 21.337 69.5186 21.8296L70.049 22.3599C70.4705 21.9384 70.9688 21.6046 71.5475 21.3589L71.2544 20.6685ZM69.5186 21.8296C69.0315 22.3167 68.6452 22.8962 68.3582 23.5638L69.0472 23.86C69.2993 23.2737 69.6337 22.7751 70.049 22.3599L69.5186 21.8296ZM68.3576 23.5654C68.0739 24.2336 67.9322 24.9368 67.9322 25.6719H68.6822C68.6822 25.0359 68.8042 24.4324 69.0479 23.8585L68.3576 23.5654ZM67.9322 25.6719C67.9322 26.4069 68.0739 27.1127 68.3571 27.786L69.0484 27.4952C68.8043 26.9147 68.6822 26.3079 68.6822 25.6719H67.9322ZM68.3587 27.7899C68.6457 28.4512 69.0315 29.0295 69.5169 29.5213L70.0507 28.9944C69.6338 28.5721 69.2988 28.0723 69.0467 27.4913L68.3587 27.7899ZM69.5203 29.5247C70.0121 30.0101 70.5904 30.3959 71.2517 30.6829L71.5503 29.9949C70.9693 29.7428 70.4695 29.4078 70.0472 28.9909L69.5203 29.5247ZM71.2556 30.6845C71.929 30.9677 72.6347 31.1094 73.3697 31.1094V30.3594C72.7337 30.3594 72.1269 30.2374 71.5464 29.9932L71.2556 30.6845ZM73.3697 31.1094C74.2308 31.1094 75.0435 30.9343 75.8036 30.5825L75.4886 29.9019C74.8307 30.2063 74.1259 30.3594 73.3697 30.3594V31.1094ZM76.0211 30.2422V29.5918H75.2711V30.2422H76.0211ZM75.484 29.2536C74.8271 29.5685 74.1239 29.7266 73.3697 29.7266V30.4766C74.2328 30.4766 75.0471 30.2948 75.8082 29.93L75.484 29.2536ZM73.3697 29.7266C72.6313 29.7266 71.955 29.5468 71.3337 29.188L70.9585 29.8374C71.6966 30.2637 72.5027 30.4766 73.3697 30.4766V29.7266ZM71.3357 29.1892C70.7114 28.8232 70.2184 28.3302 69.8524 27.7059L69.2054 28.0852C69.6363 28.8202 70.2214 29.4053 70.9565 29.8362L71.3357 29.1892ZM69.8536 27.708C69.4948 27.0866 69.315 26.4103 69.315 25.6719H68.565C68.565 26.5389 68.7779 27.345 69.2042 28.0831L69.8536 27.708ZM69.315 25.6719C69.315 24.9334 69.4948 24.2571 69.8536 23.6358L69.2042 23.2607C68.7779 23.9987 68.565 24.8049 68.565 25.6719H69.315ZM69.8524 23.6379C70.2181 23.014 70.7104 22.5245 71.3337 22.1646L70.9585 21.5151C70.2224 21.9403 69.6366 22.5231 69.2054 23.2586L69.8524 23.6379ZM71.3357 22.1634C71.9568 21.7993 72.6323 21.6172 73.3697 21.6172V20.8672C72.5016 20.8672 71.6948 21.0835 70.9565 21.5163L71.3357 22.1634ZM73.3697 21.6172C73.9986 21.6172 74.5861 21.7537 75.1369 22.0265L75.4697 21.3544C74.8135 21.0295 74.1119 20.8672 73.3697 20.8672V21.6172ZM75.1408 22.0284C75.6996 22.297 76.1638 22.6684 76.5379 23.1439L77.1274 22.6803C76.6811 22.1129 76.1258 21.6698 75.4658 21.3525L75.1408 22.0284ZM76.6035 22.6153L76.1025 23.002L76.5608 23.5957L77.0618 23.209L76.6035 22.6153ZM76.626 23.0665C76.2385 22.5756 75.7567 22.1914 75.1852 21.9153L74.8589 22.5906C75.3304 22.8184 75.7217 23.1314 76.0373 23.5312L76.626 23.0665ZM75.1867 21.916C74.6187 21.6385 74.0115 21.5 73.3697 21.5V22.25C73.8998 22.25 74.3942 22.3635 74.8574 22.5899L75.1867 21.916ZM73.3697 21.5C72.2211 21.5 71.2293 21.9118 70.4151 22.726L70.9454 23.2564C71.6195 22.5823 72.4207 22.25 73.3697 22.25V21.5ZM70.4141 22.7271C69.6065 23.5411 69.1979 24.5294 69.1979 25.6719H69.9479C69.9479 24.7284 70.2775 23.9296 70.9465 23.2553L70.4141 22.7271ZM69.1979 25.6719C69.1979 26.8143 69.6065 27.8027 70.4141 28.6167L70.9465 28.0884C70.2775 27.4141 69.9479 26.6153 69.9479 25.6719H69.1979ZM70.4151 28.6177C71.2293 29.4319 72.2211 29.8438 73.3697 29.8438V29.0938C72.4207 29.0938 71.6195 28.7615 70.9454 28.0874L70.4151 28.6177ZM73.3697 29.8438C74.2538 29.8438 75.077 29.6282 75.8321 29.1967L75.46 28.5455C74.8207 28.9108 74.1262 29.0938 73.3697 29.0938V29.8438ZM76.0211 28.8711V28.2295H75.2711V28.8711H76.0211ZM75.4556 27.9065C74.8304 28.2752 74.1379 28.4609 73.3697 28.4609V29.2109C74.2656 29.2109 75.0907 28.9924 75.8366 28.5525L75.4556 27.9065ZM73.3697 28.4609C72.5957 28.4609 71.9434 28.1924 71.3924 27.6467L70.8646 28.1795C71.5558 28.8642 72.3977 29.2109 73.3697 29.2109V28.4609ZM71.3949 27.6492C70.8492 27.0982 70.5807 26.4459 70.5807 25.6719H69.8307C69.8307 26.6439 70.1774 27.4858 70.8621 28.177L71.3949 27.6492ZM70.5807 25.6719C70.5807 24.8979 70.849 24.2493 71.3937 23.7046L70.8634 23.1743C70.1775 23.8601 69.8307 24.6998 69.8307 25.6719H70.5807ZM71.3937 23.7046C71.9449 23.1534 72.5968 22.8828 73.3697 22.8828V22.1328C72.3965 22.1328 71.5543 22.4833 70.8634 23.1743L71.3937 23.7046ZM73.3697 22.8828C73.8046 22.8828 74.21 22.9781 74.5907 23.1684L74.9261 22.4976C74.4396 22.2544 73.9192 22.1328 73.3697 22.1328V22.8828ZM74.5944 23.1702C74.9787 23.3572 75.2973 23.6121 75.5545 23.9362L76.142 23.47C75.8133 23.0559 75.4053 22.7307 74.9224 22.4958L74.5944 23.1702ZM75.6216 23.4044L75.1118 23.7911L75.5651 24.3886L76.0749 24.0019L75.6216 23.4044ZM75.6305 23.8546C75.0506 23.1347 74.2876 22.7656 73.3697 22.7656V23.5156C74.0574 23.5156 74.6068 23.7794 75.0464 24.3251L75.6305 23.8546ZM73.3697 22.7656C72.5719 22.7656 71.8792 23.055 71.3116 23.6225L71.8419 24.1529C72.2704 23.7243 72.773 23.5156 73.3697 23.5156V22.7656ZM71.3116 23.6225C70.7489 24.1852 70.4635 24.8753 70.4635 25.6719H71.2135C71.2135 25.0739 71.4202 24.5746 71.8419 24.1529L71.3116 23.6225ZM70.4635 25.6719C70.4635 26.4683 70.7488 27.1605 71.31 27.7284L71.8435 27.2013C71.4203 26.7731 71.2135 26.27 71.2135 25.6719H70.4635ZM71.3132 27.7316C71.8811 28.2928 72.5733 28.5781 73.3697 28.5781V27.8281C72.7716 27.8281 72.2685 27.6213 71.8404 27.1981L71.3132 27.7316ZM73.3697 28.5781C74.3401 28.5781 75.1847 28.3067 75.8807 27.7486L75.4115 27.1635C74.8653 27.6015 74.1923 27.8281 73.3697 27.8281V28.5781ZM76.0211 27.4561V25.584H75.2711V27.4561H76.0211ZM79.443 25.959H80.0758V25.209H79.443V25.959ZM79.7008 25.584V32H80.4508V25.584H79.7008ZM80.0758 31.625H79.443V32.375H80.0758V31.625ZM79.818 32V25.584H79.068V32H79.818ZM78.1773 25.959H78.8102V25.209H78.1773V25.959ZM78.4352 25.584V32H79.1852V25.584H78.4352ZM78.8102 31.625H78.1773V32.375H78.8102V31.625ZM78.5523 32V25.584H77.8023V32H78.5523ZM76.9117 25.959H77.5445V25.209H76.9117V25.959ZM77.1695 25.584V32H77.9195V25.584H77.1695ZM77.5445 31.625H76.9117V32.375H77.5445V31.625ZM77.2867 32V25.584H76.5367V32H77.2867ZM93.6654 27.4648L93.3987 27.7285L93.4018 27.7316L93.6654 27.4648ZM97.2426 23.8877L96.9758 24.1513L96.979 24.1544L97.2426 23.8877ZM93.2172 27.9131L92.9508 28.177L92.9533 28.1795L93.2172 27.9131ZM97.6908 23.4395L97.4244 23.7034L97.4269 23.7059L97.6908 23.4395ZM92.7689 22.9912L92.5038 22.726L92.5027 22.7271L92.7689 22.9912ZM92.7689 28.3525L92.5027 28.6167L92.5038 28.6177L92.7689 28.3525ZM98.1391 28.3525L97.8739 28.0874L97.8728 28.0884L98.1391 28.3525ZM98.1391 22.9912L97.8728 23.2553L97.8739 23.2564L98.1391 22.9912ZM91.6176 27.8955L91.2928 28.0831L91.2941 28.0852L91.6176 27.8955ZM91.6176 23.4482L91.2941 23.2586L91.2929 23.2607L91.6176 23.4482ZM93.2348 21.8398L93.4223 22.1646L93.4244 22.1634L93.2348 21.8398ZM97.682 21.8398L97.4924 22.1634L97.4945 22.1646L97.682 21.8398ZM99.2904 23.4482L98.9657 23.6358L98.9669 23.6379L99.2904 23.4482ZM99.2904 27.8955L98.9669 27.7059L98.9657 27.708L99.2904 27.8955ZM97.682 29.5127L97.8696 29.8374L97.8717 29.8362L97.682 29.5127ZM93.2348 29.5127L93.0451 29.8362L93.0472 29.8374L93.2348 29.5127ZM90.7914 23.7119L90.4469 23.5638L90.4462 23.5654L90.7914 23.7119ZM90.7914 27.6406L90.4457 27.786L90.4474 27.7899L90.7914 27.6406ZM91.8725 29.2578L91.6056 29.5213L91.609 29.5247L91.8725 29.2578ZM93.4896 30.3389L93.3404 30.6829L93.3443 30.6845L93.4896 30.3389ZM97.4184 30.3389L97.5649 30.6841L97.5665 30.6834L97.4184 30.3389ZM100.117 27.6406L99.7721 27.4925L99.7714 27.4941L100.117 27.6406ZM100.117 23.7119L99.7709 23.8573L99.7726 23.8612L100.117 23.7119ZM99.0355 22.0947L98.7687 22.3582L98.7721 22.3616L99.0355 22.0947ZM97.4184 21.0137L97.2691 21.3577L97.273 21.3593L97.4184 21.0137ZM93.4896 21.0137L93.6362 21.3589L93.6378 21.3582L93.4896 21.0137ZM90.2113 27.8867L89.8662 28.0334L89.8672 28.0358L90.2113 27.8867ZM90.2113 23.457L89.8672 23.3079L89.8662 23.3104L90.2113 23.457ZM93.2436 20.4336L93.3902 20.7787L93.3927 20.7777L93.2436 20.4336ZM97.6732 20.4336L97.5241 20.7777L97.5266 20.7787L97.6732 20.4336ZM99.4838 21.6465L99.2171 21.9101L99.2202 21.9132L99.4838 21.6465ZM100.697 23.457L100.352 23.6037L100.353 23.6061L100.697 23.457ZM100.697 27.8867L100.353 27.7376L100.352 27.74L100.697 27.8867ZM97.6732 30.9189L97.8199 31.2641L97.8223 31.263L97.6732 30.9189ZM93.2436 30.9189L93.0944 31.263L93.0969 31.2641L93.2436 30.9189ZM91.4242 29.7061L91.1575 29.9697L91.1606 29.9727L91.4242 29.7061ZM89.6312 23.2197L89.9759 23.3674L89.9763 23.3665L89.6312 23.2197ZM89.6312 28.1328L89.2862 28.2796L89.2866 28.2805L89.6312 28.1328ZM90.976 30.1543L90.7094 30.4181L90.7122 30.4208L90.976 30.1543ZM92.9975 31.499L92.8497 31.8437L92.8507 31.8441L92.9975 31.499ZM97.9105 31.499L97.7638 31.1539L97.7628 31.1543L97.9105 31.499ZM101.286 28.1328L101.63 28.2805L101.631 28.2796L101.286 28.1328ZM101.286 23.2197L100.94 23.3665L100.941 23.3674L101.286 23.2197ZM99.932 21.1982L99.6655 21.462L99.6682 21.4648L99.932 21.1982ZM97.9105 19.8447L97.7628 20.1894L97.7638 20.1898L97.9105 19.8447ZM92.9975 19.8447L92.8507 19.4996L92.8497 19.5L92.9975 19.8447ZM89.0512 28.3789L88.7065 28.5266L88.7069 28.5275L89.0512 28.3789ZM89.0512 22.9736L89.3955 23.1222L89.3958 23.1214L89.0512 22.9736ZM92.7514 19.2646L92.6036 18.92L92.6028 18.9203L92.7514 19.2646ZM98.1566 19.2646L98.0081 19.609L98.0089 19.6093L98.1566 19.2646ZM101.866 22.9736L101.521 23.1214L101.521 23.1222L101.866 22.9736ZM101.866 28.3789L102.21 28.5275L102.21 28.5266L101.866 28.3789ZM98.1566 32.0791L98.0089 31.7344L98.0081 31.7348L98.1566 32.0791ZM92.7514 32.0791L92.6028 32.4234L92.6036 32.4238L92.7514 32.0791ZM93.4003 23.6225C92.8376 24.1852 92.5521 24.8753 92.5521 25.6719H93.3021C93.3021 25.0739 93.5089 24.5746 93.9306 24.1529L93.4003 23.6225ZM92.5521 25.6719C92.5521 26.4683 92.8375 27.1605 93.3987 27.7284L93.9322 27.2013C93.509 26.7731 93.3021 26.27 93.3021 25.6719H92.5521ZM93.4018 27.7316C93.9697 28.2928 94.662 28.5781 95.4584 28.5781V27.8281C94.8603 27.8281 94.3572 27.6213 93.929 27.1981L93.4018 27.7316ZM95.4584 28.5781C96.2549 28.5781 96.9451 28.2927 97.5077 27.73L96.9774 27.1997C96.5557 27.6214 96.0564 27.8281 95.4584 27.8281V28.5781ZM97.5077 27.73C98.0753 27.1624 98.3646 26.4697 98.3646 25.6719H97.6146C97.6146 26.2686 97.4059 26.7712 96.9774 27.1997L97.5077 27.73ZM98.3646 25.6719C98.3646 24.8739 98.0752 24.1833 97.5062 23.621L96.979 24.1544C97.4061 24.5765 97.6146 25.0753 97.6146 25.6719H98.3646ZM97.5093 23.6241C96.947 23.0551 96.2564 22.7656 95.4584 22.7656V23.5156C96.055 23.5156 96.5538 23.7242 96.9758 24.1513L97.5093 23.6241ZM95.4584 22.7656C94.6605 22.7656 93.9678 23.055 93.4003 23.6225L93.9306 24.1529C94.3591 23.7243 94.8617 23.5156 95.4584 23.5156V22.7656ZM93.4836 27.6492C92.9378 27.0982 92.6693 26.4459 92.6693 25.6719H91.9193C91.9193 26.6439 92.2661 27.4858 92.9508 28.177L93.4836 27.6492ZM92.6693 25.6719C92.6693 24.8979 92.9377 24.2493 93.4824 23.7046L92.952 23.1743C92.2662 23.8601 91.9193 24.6998 91.9193 25.6719H92.6693ZM93.4824 23.7046C94.0336 23.1534 94.6855 22.8828 95.4584 22.8828V22.1328C94.4852 22.1328 93.643 22.4833 92.952 23.1743L93.4824 23.7046ZM95.4584 22.8828C96.2312 22.8828 96.8795 23.1533 97.4244 23.7034L97.9572 23.1755C97.2717 22.4835 96.4317 22.1328 95.4584 22.1328V22.8828ZM97.4269 23.7059C97.977 24.2508 98.2475 24.8991 98.2475 25.6719H98.9975C98.9975 24.6986 98.6468 23.8586 97.9547 23.173L97.4269 23.7059ZM98.2475 25.6719C98.2475 26.4448 97.9769 27.0967 97.4257 27.6479L97.956 28.1783C98.6469 27.4873 98.9975 26.6451 98.9975 25.6719H98.2475ZM97.4257 27.6479C96.881 28.1926 96.2324 28.4609 95.4584 28.4609V29.2109C96.4305 29.2109 97.2702 28.8641 97.956 28.1783L97.4257 27.6479ZM95.4584 28.4609C94.6843 28.4609 94.0321 28.1924 93.4811 27.6467L92.9533 28.1795C93.6445 28.8642 94.4864 29.2109 95.4584 29.2109V28.4609ZM92.5027 22.7271C91.6952 23.5411 91.2865 24.5294 91.2865 25.6719H92.0365C92.0365 24.7284 92.3662 23.9296 93.0352 23.2553L92.5027 22.7271ZM91.2865 25.6719C91.2865 26.8143 91.6952 27.8027 92.5027 28.6167L93.0352 28.0884C92.3662 27.4141 92.0365 26.6153 92.0365 25.6719H91.2865ZM92.5038 28.6177C93.318 29.4319 94.3097 29.8438 95.4584 29.8438V29.0938C94.5094 29.0938 93.7082 28.7615 93.0341 28.0874L92.5038 28.6177ZM95.4584 29.8438C96.6071 29.8438 97.5965 29.4318 98.4053 28.6167L97.8728 28.0884C97.205 28.7616 96.4073 29.0938 95.4584 29.0938V29.8438ZM98.4042 28.6177C99.218 27.804 99.6303 26.8153 99.6303 25.6719H98.8803C98.8803 26.6144 98.5484 27.4128 97.8739 28.0874L98.4042 28.6177ZM99.6303 25.6719C99.6303 24.5284 99.218 23.5398 98.4042 22.726L97.8739 23.2564C98.5484 23.9309 98.8803 24.7294 98.8803 25.6719H99.6303ZM98.4053 22.7271C97.5965 21.9119 96.6071 21.5 95.4584 21.5V22.25C96.4073 22.25 97.205 22.5822 97.8728 23.2553L98.4053 22.7271ZM95.4584 21.5C94.3097 21.5 93.318 21.9118 92.5038 22.726L93.0341 23.2564C93.7082 22.5823 94.5094 22.25 95.4584 22.25V21.5ZM91.9423 27.708C91.5834 27.0866 91.4037 26.4103 91.4037 25.6719H90.6537C90.6537 26.5389 90.8666 27.345 91.2929 28.0831L91.9423 27.708ZM91.4037 25.6719C91.4037 24.9334 91.5834 24.2571 91.9423 23.6358L91.2929 23.2607C90.8666 23.9987 90.6537 24.8049 90.6537 25.6719H91.4037ZM91.9411 23.6379C92.3068 23.014 92.7991 22.5245 93.4223 22.1646L93.0472 21.5151C92.311 21.9403 91.7252 22.5231 91.2941 23.2586L91.9411 23.6379ZM93.4244 22.1634C94.0455 21.7993 94.721 21.6172 95.4584 21.6172V20.8672C94.5903 20.8672 93.7835 21.0835 93.0451 21.5163L93.4244 22.1634ZM95.4584 21.6172C96.1958 21.6172 96.8713 21.7993 97.4924 22.1634L97.8717 21.5163C97.1333 21.0835 96.3265 20.8672 95.4584 20.8672V21.6172ZM97.4945 22.1646C98.1172 22.5242 98.606 23.0131 98.9657 23.6358L99.6152 23.2607C99.1897 22.524 98.6062 21.9406 97.8696 21.5151L97.4945 22.1646ZM98.9669 23.6379C99.331 24.2589 99.5131 24.9345 99.5131 25.6719H100.263C100.263 24.8038 100.047 23.9969 99.6139 23.2586L98.9669 23.6379ZM99.5131 25.6719C99.5131 26.4093 99.331 27.0848 98.9669 27.7059L99.6139 28.0852C100.047 27.3468 100.263 26.54 100.263 25.6719H99.5131ZM98.9657 27.708C98.6057 28.3312 98.1163 28.8235 97.4924 29.1892L97.8717 29.8362C98.6072 29.405 99.19 28.8192 99.6152 28.0831L98.9657 27.708ZM97.4945 29.188C96.8731 29.5468 96.1968 29.7266 95.4584 29.7266V30.4766C96.3254 30.4766 97.1315 30.2637 97.8696 29.8374L97.4945 29.188ZM95.4584 29.7266C94.7199 29.7266 94.0436 29.5468 93.4223 29.188L93.0472 29.8374C93.7853 30.2637 94.5914 30.4766 95.4584 30.4766V29.7266ZM93.4244 29.1892C92.8001 28.8232 92.3071 28.3302 91.9411 27.7059L91.2941 28.0852C91.7249 28.8202 92.3101 29.4053 93.0451 29.8362L93.4244 29.1892ZM90.4462 23.5654C90.1626 24.2336 90.0209 24.9368 90.0209 25.6719H90.7709C90.7709 25.0359 90.8929 24.4324 91.1366 23.8585L90.4462 23.5654ZM90.0209 25.6719C90.0209 26.4069 90.1625 27.1127 90.4457 27.786L91.1371 27.4952C90.8929 26.9147 90.7709 26.3079 90.7709 25.6719H90.0209ZM90.4474 27.7899C90.7344 28.4512 91.1201 29.0295 91.6056 29.5213L92.1393 28.9944C91.7224 28.5721 91.3875 28.0723 91.1354 27.4913L90.4474 27.7899ZM91.609 29.5247C92.1008 30.0101 92.6791 30.3959 93.3404 30.6829L93.6389 29.9949C93.058 29.7428 92.5582 29.4078 92.1359 28.9909L91.609 29.5247ZM93.3443 30.6845C94.0176 30.9677 94.7233 31.1094 95.4584 31.1094V30.3594C94.8224 30.3594 94.2156 30.2374 93.635 29.9932L93.3443 30.6845ZM95.4584 31.1094C96.1935 31.1094 96.8967 30.9677 97.5649 30.684L97.2718 29.9937C96.6978 30.2374 96.0944 30.3594 95.4584 30.3594V31.1094ZM97.5665 30.6834C98.234 30.3964 98.8136 30.0101 99.3007 29.523L98.7704 28.9926C98.3551 29.4079 97.8566 29.7423 97.2702 29.9944L97.5665 30.6834ZM99.3007 29.523C99.7933 29.0304 100.18 28.4506 100.462 27.7872L99.7714 27.4941C99.5257 28.0728 99.1919 28.5711 98.7704 28.9926L99.3007 29.523ZM100.461 27.7887C100.751 27.1148 100.896 26.4081 100.896 25.6719H100.146C100.146 26.3067 100.021 26.9126 99.7721 27.4925L100.461 27.7887ZM100.896 25.6719C100.896 24.9356 100.751 24.2314 100.461 23.5626L99.7726 23.8612C100.021 24.4346 100.146 25.037 100.146 25.6719H100.896ZM100.462 23.5665C100.181 22.8968 99.7932 22.3157 99.299 21.8279L98.7721 22.3616C99.1919 22.7761 99.5252 23.2731 99.7709 23.8573L100.462 23.5665ZM99.3024 21.8313C98.8145 21.3371 98.2335 20.9497 97.5637 20.668L97.273 21.3593C97.8571 21.605 98.3542 21.9383 98.7687 22.3582L99.3024 21.8313ZM97.5676 20.6697C96.8988 20.3794 96.1946 20.2344 95.4584 20.2344V20.9844C96.0932 20.9844 96.6957 21.1089 97.2691 21.3577L97.5676 20.6697ZM95.4584 20.2344C94.7222 20.2344 94.0155 20.3794 93.3415 20.6692L93.6378 21.3582C94.2177 21.1089 94.8235 20.9844 95.4584 20.9844V20.2344ZM93.3431 20.6685C92.6797 20.9501 92.0999 21.337 91.6073 21.8296L92.1376 22.3599C92.5591 21.9384 93.0574 21.6046 93.6362 21.3589L93.3431 20.6685ZM91.6073 21.8296C91.1202 22.3167 90.7339 22.8962 90.4469 23.5638L91.1359 23.86C91.388 23.2737 91.7224 22.7751 92.1376 22.3599L91.6073 21.8296ZM90.5565 27.74C90.2776 27.0839 90.1381 26.3955 90.1381 25.6719H89.3881C89.3881 26.4951 89.5474 27.2833 89.8662 28.0334L90.5565 27.74ZM90.1381 25.6719C90.1381 24.9482 90.2776 24.2599 90.5565 23.6037L89.8662 23.3104C89.5474 24.0605 89.3881 24.8487 89.3881 25.6719H90.1381ZM90.5554 23.6061C90.8428 22.943 91.2213 22.3797 91.6894 21.9116L91.1591 21.3813C90.6193 21.921 90.1893 22.5648 89.8672 23.3079L90.5554 23.6061ZM91.6894 21.9116C92.1631 21.4379 92.7287 21.0599 93.3902 20.7787L93.0969 20.0885C92.3522 20.405 91.7048 20.8356 91.1591 21.3813L91.6894 21.9116ZM93.3927 20.7777C94.0483 20.4936 94.7358 20.3516 95.4584 20.3516V19.6016C94.6342 19.6016 93.8451 19.7642 93.0945 20.0895L93.3927 20.7777ZM95.4584 20.3516C96.181 20.3516 96.8685 20.4936 97.5241 20.7777L97.8223 20.0895C97.0717 19.7642 96.2826 19.6016 95.4584 19.6016V20.3516ZM97.5266 20.7787C98.1878 21.0597 98.7497 21.4373 99.2171 21.9101L99.7505 21.3829C99.21 20.8361 98.565 20.4051 97.8199 20.0885L97.5266 20.7787ZM99.2202 21.9132C99.693 22.3805 100.071 22.9425 100.352 23.6037L101.042 23.3104C100.725 22.5653 100.294 21.9202 99.7474 21.3798L99.2202 21.9132ZM100.353 23.6061C100.637 24.2617 100.779 24.9492 100.779 25.6719H101.529C101.529 24.8476 101.366 24.0586 101.041 23.3079L100.353 23.6061ZM100.779 25.6719C100.779 26.3945 100.637 27.082 100.353 27.7376L101.041 28.0358C101.366 27.2852 101.529 26.4961 101.529 25.6719H100.779ZM100.352 27.74C100.07 28.4016 99.6924 28.9671 99.2186 29.4409L99.749 29.9712C100.295 29.4255 100.725 28.7781 101.042 28.0334L100.352 27.74ZM99.2186 29.4409C98.7505 29.909 98.1872 30.2875 97.5241 30.5749L97.8223 31.263C98.5655 30.941 99.2092 30.5109 99.749 29.9712L99.2186 29.4409ZM97.5266 30.5738C96.8704 30.8527 96.1821 30.9922 95.4584 30.9922V31.7422C96.2816 31.7422 97.0698 31.5829 97.8199 31.2641L97.5266 30.5738ZM95.4584 30.9922C94.7347 30.9922 94.0464 30.8527 93.3902 30.5738L93.0969 31.2641C93.847 31.5829 94.6352 31.7422 95.4584 31.7422V30.9922ZM93.3927 30.5749C92.7292 30.2874 92.1623 29.9084 91.6878 29.4394L91.1606 29.9727C91.7056 30.5115 92.3517 30.9412 93.0945 31.263L93.3927 30.5749ZM91.6909 29.4424C91.2219 28.9679 90.8429 28.4011 90.5554 27.7376L89.8672 28.0358C90.1891 28.7786 90.6187 29.4246 91.1575 29.9697L91.6909 29.4424ZM89.2866 23.072C88.9324 23.8984 88.7553 24.7661 88.7553 25.6719H89.5053C89.5053 24.8667 89.6621 24.0996 89.9759 23.3674L89.2866 23.072ZM88.7553 25.6719C88.7553 26.5777 88.9324 27.4479 89.2862 28.2796L89.9763 27.986C89.6621 27.2474 89.5053 26.477 89.5053 25.6719H88.7553ZM89.2866 28.2805C89.638 29.1004 90.1119 29.8143 90.7094 30.4181L91.2425 29.8905C90.7151 29.3576 90.2925 28.7238 89.9759 27.9851L89.2866 28.2805ZM90.7122 30.4208C91.316 31.0184 92.0298 31.4923 92.8497 31.8437L93.1452 31.1543C92.4065 30.8378 91.7727 30.4152 91.2398 29.8878L90.7122 30.4208ZM92.8507 31.8441C93.6824 32.1979 94.5526 32.375 95.4584 32.375V31.625C94.6532 31.625 93.8829 31.4681 93.1442 31.1539L92.8507 31.8441ZM95.4584 32.375C96.3642 32.375 97.2319 32.1979 98.0583 31.8437L97.7628 31.1543C97.0306 31.4681 96.2636 31.625 95.4584 31.625V32.375ZM98.0573 31.8441C98.8835 31.4927 99.5983 31.0183 100.197 30.4195L99.6669 29.8891C99.1407 30.4153 98.5079 30.8374 97.7638 31.1539L98.0573 31.8441ZM100.197 30.4195C100.801 29.8155 101.278 29.1012 101.63 28.2805L100.941 27.9851C100.625 28.723 100.2 29.3563 99.6669 29.8891L100.197 30.4195ZM101.631 28.2796C101.984 27.4479 102.162 26.5777 102.162 25.6719H101.412C101.412 26.477 101.255 27.2474 100.94 27.986L101.631 28.2796ZM102.162 25.6719C102.162 24.7661 101.984 23.8984 101.63 23.072L100.941 23.3674C101.255 24.0996 101.412 24.8667 101.412 25.6719H102.162ZM101.631 23.0729C101.279 22.246 100.801 21.5307 100.196 20.9317L99.6682 21.4648C100.2 21.9908 100.624 22.6231 100.94 23.3665L101.631 23.0729ZM100.199 20.9345C99.5996 20.3292 98.8843 19.8514 98.0573 19.4996L97.7638 20.1898C98.5071 20.506 99.1395 20.9306 99.6655 21.462L100.199 20.9345ZM98.0583 19.5C97.2319 19.1459 96.3642 18.9688 95.4584 18.9688V19.7188C96.2636 19.7188 97.0306 19.8756 97.7628 20.1894L98.0583 19.5ZM95.4584 18.9688C94.5526 18.9688 93.6824 19.1459 92.8507 19.4996L93.1442 20.1898C93.8829 19.8756 94.6532 19.7188 95.4584 19.7188V18.9688ZM92.8497 19.5C92.029 19.8518 91.3147 20.3292 90.7108 20.9331L91.2411 21.4634C91.7739 20.9306 92.4073 20.5056 93.1452 20.1894L92.8497 19.5ZM90.7108 20.9331C90.1119 21.532 89.6376 22.2468 89.2862 23.0729L89.9763 23.3665C90.2929 22.6223 90.715 21.9895 91.2411 21.4634L90.7108 20.9331ZM89.3958 28.2312C89.0469 27.4169 88.8725 26.5648 88.8725 25.6719H88.1225C88.1225 26.6657 88.3172 27.6183 88.7065 28.5266L89.3958 28.2312ZM88.8725 25.6719C88.8725 24.779 89.0468 23.9302 89.3955 23.1222L88.7069 22.8251C88.3172 23.728 88.1225 24.6781 88.1225 25.6719H88.8725ZM89.3958 23.1214C89.7475 22.3009 90.2165 21.6003 90.8017 21.0152L90.2714 20.4848C89.6143 21.1419 89.0932 21.9237 88.7065 22.8259L89.3958 23.1214ZM90.8017 21.0152C91.3873 20.4296 92.0853 19.9605 92.8999 19.609L92.6028 18.9203C91.7065 19.3071 90.928 19.8282 90.2714 20.4848L90.8017 21.0152ZM92.8991 19.6093C93.7134 19.2603 94.5655 19.0859 95.4584 19.0859V18.3359C94.4646 18.3359 93.512 18.5307 92.6036 18.92L92.8991 19.6093ZM95.4584 19.0859C96.3513 19.0859 97.2001 19.2603 98.0081 19.609L98.3052 18.9203C97.4022 18.5307 96.4522 18.3359 95.4584 18.3359V19.0859ZM98.0089 19.6093C98.8294 19.9609 99.53 20.43 100.115 21.0152L100.645 20.4848C99.9884 19.8278 99.2066 19.3066 98.3044 18.92L98.0089 19.6093ZM100.115 21.0152C100.7 21.6003 101.169 22.3009 101.521 23.1214L102.21 22.8259C101.824 21.9237 101.302 21.1419 100.645 20.4848L100.115 21.0152ZM101.521 23.1222C101.87 23.9302 102.044 24.779 102.044 25.6719H102.794C102.794 24.6781 102.6 23.728 102.21 22.8251L101.521 23.1222ZM102.044 25.6719C102.044 26.5648 101.87 27.4169 101.521 28.2312L102.21 28.5266C102.6 27.6183 102.794 26.6657 102.794 25.6719H102.044ZM101.521 28.2303C101.17 29.045 100.701 29.743 100.115 30.3286L100.645 30.8589C101.302 30.2023 101.823 29.4238 102.21 28.5275L101.521 28.2303ZM100.115 30.3286C99.53 30.9137 98.8294 31.3828 98.0089 31.7344L98.3044 32.4238C99.2066 32.0371 99.9884 31.516 100.645 30.8589L100.115 30.3286ZM98.0081 31.7348C97.2001 32.0834 96.3513 32.2578 95.4584 32.2578V33.0078C96.4522 33.0078 97.4022 32.8131 98.3052 32.4234L98.0081 31.7348ZM95.4584 32.2578C94.5655 32.2578 93.7134 32.0834 92.8991 31.7344L92.6036 32.4238C93.512 32.8131 94.4646 33.0078 95.4584 33.0078V32.2578ZM92.8999 31.7348C92.0853 31.3833 91.3873 30.9142 90.8017 30.3286L90.2714 30.8589C90.928 31.5155 91.7065 32.0366 92.6028 32.4234L92.8999 31.7348ZM90.8017 30.3286C90.2161 29.743 89.747 29.045 89.3955 28.2303L88.7069 28.5275C89.0936 29.4238 89.6148 30.2023 90.2714 30.8589L90.8017 30.3286ZM119.349 19.3438V18.9688H118.974V19.3438H119.349ZM119.982 19.3438H120.357V18.9688H119.982V19.3438ZM119.208 28.1152L118.953 27.8409L118.951 27.8423L119.208 28.1152ZM115.508 28.1152L115.251 28.3881L115.252 28.3896L115.508 28.1152ZM114.743 19.3438V18.9688H114.368V19.3438H114.743ZM115.376 19.3438H115.751V18.9688H115.376V19.3438ZM115.956 27.6758L115.702 27.9512L115.706 27.9551L115.956 27.6758ZM118.76 27.6758L119.012 27.9533L119.012 27.9531L118.76 27.6758ZM120.614 19.3438V18.9688H120.239V19.3438H120.614ZM121.247 19.3438H121.622V18.9688H121.247V19.3438ZM120.105 29.0205L120.362 29.2929L120.364 29.2919L120.105 29.0205ZM114.62 29.0205L114.361 29.2919L114.363 29.2929L114.62 29.0205ZM113.478 19.3438V18.9688H113.103V19.3438H113.478ZM114.111 19.3438H114.486V18.9688H114.111V19.3438ZM115.06 28.5723L114.801 28.8437L114.804 28.8461L115.06 28.5723ZM119.656 28.5723L119.913 28.8461L119.914 28.8448L119.656 28.5723ZM121.88 19.3438V18.9688H121.505V19.3438H121.88ZM122.513 19.3438H122.888V18.9688H122.513V19.3438ZM121.819 28.8887L122.139 29.0834L122.14 29.0823L121.819 28.8887ZM112.906 28.8887L112.585 29.0823L112.586 29.0834L112.906 28.8887ZM112.212 19.3438V18.9688H111.837V19.3438H112.212ZM112.845 19.3438H113.22V18.9688H112.845V19.3438ZM115.095 30.1543L114.91 30.4804L114.913 30.4822L115.095 30.1543ZM119.621 30.1543L119.804 30.4816L119.805 30.4811L119.621 30.1543ZM123.146 19.3438V18.9688H122.771V19.3438H123.146ZM123.779 19.3438H124.154V18.9688H123.779V19.3438ZM123.269 28.8184L123.612 28.9702L123.612 28.9692L123.269 28.8184ZM119.85 32.1318L119.706 31.7854L119.704 31.7864L119.85 32.1318ZM114.875 32.1318L115.021 31.7864L115.019 31.7855L114.875 32.1318ZM111.456 28.8184L111.113 28.9692L111.113 28.9702L111.456 28.8184ZM110.946 19.3438V18.9688H110.571V19.3438H110.946ZM111.579 19.3438H111.954V18.9688H111.579V19.3438ZM112.353 29.1963L112.031 29.3889L112.032 29.3905L112.353 29.1963ZM114.462 31.2441L114.277 31.57L114.277 31.5705L114.462 31.2441ZM120.254 31.2441L120.069 30.9178L120.069 30.9183L120.254 31.2441ZM122.363 29.1963L122.043 29.0021L122.042 29.0037L122.363 29.1963ZM119.724 26.3926V19.3438H118.974V26.3926H119.724ZM119.349 19.7188H119.982V18.9688H119.349V19.7188ZM119.607 19.3438V26.3926H120.357V19.3438H119.607ZM119.607 26.3926C119.607 26.9502 119.397 27.427 118.953 27.8409L119.464 28.3896C120.051 27.8426 120.357 27.1709 120.357 26.3926H119.607ZM118.951 27.8423C118.513 28.2552 117.991 28.4609 117.363 28.4609V29.2109C118.176 29.2109 118.884 28.9362 119.465 28.3881L118.951 27.8423ZM117.363 28.4609C116.734 28.4609 116.208 28.2551 115.764 27.8409L115.252 28.3896C115.839 28.9363 116.549 29.2109 117.363 29.2109V28.4609ZM115.765 27.8423C115.327 27.4289 115.118 26.9517 115.118 26.3926H114.368C114.368 27.1694 114.67 27.8407 115.251 28.3881L115.765 27.8423ZM115.118 26.3926V19.3438H114.368V26.3926H115.118ZM114.743 19.7188H115.376V18.9688H114.743V19.7188ZM115.001 19.3438V26.3926H115.751V19.3438H115.001ZM115.001 26.3926C115.001 27.0018 115.243 27.5273 115.702 27.9512L116.211 27.4004C115.896 27.1094 115.751 26.7795 115.751 26.3926H115.001ZM115.706 27.9551C116.17 28.3706 116.729 28.5781 117.363 28.5781V27.8281C116.906 27.8281 116.528 27.6841 116.206 27.3964L115.706 27.9551ZM117.363 28.5781C117.996 28.5781 118.553 28.3705 119.012 27.9533L118.508 27.3983C118.193 27.6842 117.819 27.8281 117.363 27.8281V28.5781ZM119.012 27.9531C119.477 27.5299 119.724 27.0038 119.724 26.3926H118.974C118.974 26.7775 118.828 27.1069 118.508 27.3985L119.012 27.9531ZM120.989 26.3926V19.3438H120.239V26.3926H120.989ZM120.614 19.7188H121.247V18.9688H120.614V19.7188ZM120.872 19.3438V26.3926H121.622V19.3438H120.872ZM120.872 26.3926C120.872 27.3124 120.536 28.0912 119.846 28.7492L120.364 29.2919C121.197 28.4967 121.622 27.5235 121.622 26.3926H120.872ZM119.847 28.7481C119.156 29.4017 118.335 29.7266 117.363 29.7266V30.4766C118.523 30.4766 119.53 30.0807 120.362 29.2929L119.847 28.7481ZM117.363 29.7266C116.39 29.7266 115.569 29.4017 114.878 28.7481L114.363 29.2929C115.195 30.0807 116.202 30.4766 117.363 30.4766V29.7266ZM114.879 28.7492C114.189 28.0912 113.853 27.3124 113.853 26.3926H113.103C113.103 27.5235 113.528 28.4967 114.361 29.2919L114.879 28.7492ZM113.853 26.3926V19.3438H113.103V26.3926H113.853ZM113.478 19.7188H114.111V18.9688H113.478V19.7188ZM113.736 19.3438V26.3926H114.486V19.3438H113.736ZM113.736 26.3926C113.736 27.3481 114.096 28.1717 114.801 28.8436L115.319 28.3009C114.758 27.7658 114.486 27.1363 114.486 26.3926H113.736ZM114.804 28.8461C115.514 29.5105 116.373 29.8438 117.363 29.8438V29.0938C116.559 29.0938 115.883 28.8293 115.316 28.2985L114.804 28.8461ZM117.363 29.8438C118.346 29.8438 119.203 29.5101 119.913 28.8461L119.4 28.2985C118.832 28.8298 118.16 29.0938 117.363 29.0938V29.8438ZM119.914 28.8448C120.625 28.1732 120.989 27.3492 120.989 26.3926H120.239C120.239 27.1351 119.965 27.7643 119.399 28.2997L119.914 28.8448ZM122.255 26.3926V19.3438H121.505V26.3926H122.255ZM121.88 19.7188H122.513V18.9688H121.88V19.7188ZM122.138 19.3438V26.3926H122.888V19.3438H122.138ZM122.138 26.3926C122.138 27.2208 121.925 27.9859 121.497 28.695L122.14 29.0823C122.638 28.2563 122.888 27.3573 122.888 26.3926H122.138ZM121.498 28.6939C121.069 29.3996 120.49 29.9581 119.754 30.3724L120.122 31.026C120.968 30.5497 121.642 29.9012 122.139 29.0834L121.498 28.6939ZM119.754 30.3724C119.02 30.7855 118.225 30.9922 117.363 30.9922V31.7422C118.351 31.7422 119.273 31.5036 120.122 31.026L119.754 30.3724ZM117.363 30.9922C116.5 30.9922 115.705 30.7855 114.971 30.3724L114.603 31.026C115.452 31.5036 116.374 31.7422 117.363 31.7422V30.9922ZM114.971 30.3724C114.235 29.9581 113.656 29.3996 113.227 28.6939L112.586 29.0834C113.083 29.9012 113.757 30.5497 114.603 31.026L114.971 30.3724ZM113.228 28.695C112.8 27.9859 112.587 27.2208 112.587 26.3926H111.837C111.837 27.3573 112.087 28.2563 112.585 29.0823L113.228 28.695ZM112.587 26.3926V19.3438H111.837V26.3926H112.587ZM112.212 19.7188H112.845V18.9688H112.212V19.7188ZM112.47 19.3438V26.3926H113.22V19.3438H112.47ZM112.47 26.3926C112.47 27.2405 112.691 28.0312 113.131 28.7577L113.772 28.3693C113.403 27.7598 113.22 27.1033 113.22 26.3926H112.47ZM113.131 28.7577C113.569 29.4815 114.164 30.0568 114.91 30.4804L115.28 29.8282C114.643 29.4667 114.143 28.9814 113.772 28.3693L113.131 28.7577ZM114.913 30.4822C115.667 30.9005 116.486 31.1094 117.363 31.1094V30.3594C116.61 30.3594 115.917 30.1815 115.277 29.8264L114.913 30.4822ZM117.363 31.1094C118.239 31.1094 119.055 30.9005 119.804 30.4816L119.438 29.827C118.804 30.1815 118.115 30.3594 117.363 30.3594V31.1094ZM119.805 30.4811C120.557 30.0576 121.156 29.4823 121.594 28.7577L120.953 28.3693C120.583 28.9806 120.08 29.4658 119.437 29.8275L119.805 30.4811ZM121.594 28.7577C122.034 28.0312 122.255 27.2405 122.255 26.3926H121.505C121.505 27.1033 121.322 27.7598 120.953 28.3693L121.594 28.7577ZM123.521 26.3926V19.3438H122.771V26.3926H123.521ZM123.146 19.7188H123.779V18.9688H123.146V19.7188ZM123.404 19.3438V26.3926H124.154V19.3438H123.404ZM123.404 26.3926C123.404 27.1843 123.244 27.9416 122.925 28.6675L123.612 28.9692C123.973 28.1483 124.154 27.2883 124.154 26.3926H123.404ZM122.926 28.6665C122.605 29.3923 122.175 30.014 121.637 30.5354L122.159 31.0739C122.769 30.4821 123.253 29.7796 123.612 28.9702L122.926 28.6665ZM121.637 30.5354C121.099 31.0569 120.457 31.4741 119.706 31.7855L119.993 32.4782C120.825 32.1333 121.548 31.6657 122.159 31.0739L121.637 30.5354ZM119.704 31.7864C118.96 32.1007 118.18 32.2578 117.363 32.2578V33.0078C118.279 33.0078 119.158 32.831 119.996 32.4773L119.704 31.7864ZM117.363 32.2578C116.545 32.2578 115.765 32.1007 115.021 31.7864L114.729 32.4773C115.567 32.831 116.446 33.0078 117.363 33.0078V32.2578ZM115.019 31.7855C114.268 31.4741 113.626 31.0569 113.088 30.5354L112.566 31.0739C113.177 31.6657 113.9 32.1333 114.732 32.4782L115.019 31.7855ZM113.088 30.5354C112.55 30.014 112.12 29.3923 111.799 28.6665L111.113 28.9702C111.472 29.7796 111.956 30.4821 112.566 31.0739L113.088 30.5354ZM111.8 28.6675C111.481 27.9416 111.321 27.1843 111.321 26.3926H110.571C110.571 27.2883 110.752 28.1483 111.113 28.9692L111.8 28.6675ZM111.321 26.3926V19.3438H110.571V26.3926H111.321ZM110.946 19.7188H111.579V18.9688H110.946V19.7188ZM111.204 19.3438V26.3926H111.954V19.3438H111.204ZM111.204 26.3926C111.204 27.4679 111.48 28.4691 112.031 29.3889L112.674 29.0037C112.194 28.2008 111.954 27.3328 111.954 26.3926H111.204ZM112.032 29.3905C112.587 30.3072 113.337 31.0348 114.277 31.57L114.648 30.9183C113.818 30.4456 113.162 29.8081 112.674 29.0021L112.032 29.3905ZM114.277 31.5705C115.226 32.1069 116.256 32.375 117.363 32.375V31.625C116.383 31.625 115.48 31.3892 114.647 30.9178L114.277 31.5705ZM117.363 32.375C118.469 32.375 119.497 32.1069 120.44 31.57L120.069 30.9183C119.242 31.3892 118.342 31.625 117.363 31.625V32.375ZM120.439 31.5705C121.385 31.0353 122.136 30.3071 122.685 29.3889L122.042 29.0037C121.56 29.8082 120.905 30.4452 120.069 30.9178L120.439 31.5705ZM122.684 29.3905C123.241 28.4705 123.521 27.4688 123.521 26.3926H122.771C122.771 27.332 122.529 28.1994 122.043 29.0021L122.684 29.3905ZM134.811 22.8506V22.4756H134.436V22.8506H134.811ZM135.443 22.8506H135.818V22.4756H135.443V22.8506ZM135.443 32V32.375H135.818V32H135.443ZM134.811 32H134.436V32.375H134.811V32ZM132.279 19.9766H131.904V20.3516H132.279V19.9766ZM132.279 19.3438V18.9688H131.904V19.3438H132.279ZM141.771 19.3438H142.146V18.9688H141.771V19.3438ZM141.771 19.9766V20.3516H142.146V19.9766H141.771ZM132.279 21.2422H131.904V21.6172H132.279V21.2422ZM132.279 20.6094V20.2344H131.904V20.6094H132.279ZM141.771 20.6094H142.146V20.2344H141.771V20.6094ZM141.771 21.2422V21.6172H142.146V21.2422H141.771ZM132.279 22.5078H131.904V22.8828H132.279V22.5078ZM132.279 21.875V21.5H131.904V21.875H132.279ZM141.771 21.875H142.146V21.5H141.771V21.875ZM141.771 22.5078V22.8828H142.146V22.5078H141.771ZM138.607 22.8506V22.4756H138.232V22.8506H138.607ZM139.24 22.8506H139.615V22.4756H139.24V22.8506ZM139.24 32V32.375H139.615V32H139.24ZM138.607 32H138.232V32.375H138.607V32ZM137.342 22.8506V22.4756H136.967V22.8506H137.342ZM137.975 22.8506H138.35V22.4756H137.975V22.8506ZM137.975 32V32.375H138.35V32H137.975ZM137.342 32H136.967V32.375H137.342V32ZM136.076 22.8506V22.4756H135.701V22.8506H136.076ZM136.709 22.8506H137.084V22.4756H136.709V22.8506ZM136.709 32V32.375H137.084V32H136.709ZM136.076 32H135.701V32.375H136.076V32ZM134.811 23.2256H135.443V22.4756H134.811V23.2256ZM135.068 22.8506V32H135.818V22.8506H135.068ZM135.443 31.625H134.811V32.375H135.443V31.625ZM135.186 32V22.8506H134.436V32H135.186ZM132.654 19.9766V19.3438H131.904V19.9766H132.654ZM132.279 19.7188H141.771V18.9688H132.279V19.7188ZM141.396 19.3438V19.9766H142.146V19.3438H141.396ZM141.771 19.6016H132.279V20.3516H141.771V19.6016ZM132.654 21.2422V20.6094H131.904V21.2422H132.654ZM132.279 20.9844H141.771V20.2344H132.279V20.9844ZM141.396 20.6094V21.2422H142.146V20.6094H141.396ZM141.771 20.8672H132.279V21.6172H141.771V20.8672ZM132.654 22.5078V21.875H131.904V22.5078H132.654ZM132.279 22.25H141.771V21.5H132.279V22.25ZM141.396 21.875V22.5078H142.146V21.875H141.396ZM141.771 22.1328H132.279V22.8828H141.771V22.1328ZM138.607 23.2256H139.24V22.4756H138.607V23.2256ZM138.865 22.8506V32H139.615V22.8506H138.865ZM139.24 31.625H138.607V32.375H139.24V31.625ZM138.982 32V22.8506H138.232V32H138.982ZM137.342 23.2256H137.975V22.4756H137.342V23.2256ZM137.6 22.8506V32H138.35V22.8506H137.6ZM137.975 31.625H137.342V32.375H137.975V31.625ZM137.717 32V22.8506H136.967V32H137.717ZM136.076 23.2256H136.709V22.4756H136.076V23.2256ZM136.334 22.8506V32H137.084V22.8506H136.334ZM136.709 31.625H136.076V32.375H136.709V31.625ZM136.451 32V22.8506H135.701V32H136.451Z" fill="black"/>
</svg>
