<svg width="521" height="974" viewBox="0 0 521 974" fill="none" xmlns="http://www.w3.org/2000/svg">
<rect width="521" height="974" fill="#0F102E"/>
<g style="mix-blend-mode:exclusion" opacity="0.65">
<path d="M56.2632 692H450.474V703.079H56.2632V692Z" fill="#8D8C82"/>
<path d="M56.2632 900.921H450.474V912H56.2632V900.921Z" fill="#8D8C82"/>
<path d="M450.474 692H461.737V703.079H450.474V692Z" fill="#8D8C82"/>
<path d="M286.353 744.23H410.248V755.309H286.353V744.23Z" fill="#8D8C82"/>
<path d="M302.444 733.151H397.376V744.23H302.444V733.151Z" fill="#8D8C82"/>
<path d="M302.444 815.453H397.376V826.532H302.444V815.453Z" fill="#8D8C82"/>
<path d="M286.353 804.374H411.857V815.453H286.353V804.374Z" fill="#8D8C82"/>
<path d="M402.203 750.561H413.466V804.374H402.203V750.561Z" fill="#8D8C82"/>
<path d="M283.135 753.727H294.398V807.54H283.135V753.727Z" fill="#8D8C82"/>
<path d="M160.85 810.705H180.158V904.086H160.85V810.705Z" fill="#8D8C82"/>
<path d="M461.737 703.079H473V900.921H461.737V703.079Z" fill="#8D8C82"/>
<path d="M450.474 900.921H461.737V912H450.474V900.921Z" fill="#8D8C82"/>
<path d="M83.6165 744.23H252.564V755.309H83.6165V744.23Z" fill="#8D8C82"/>
<path d="M159.241 796.46H255.782V807.54H159.241V796.46Z" fill="#8D8C82"/>
<path d="M160.85 788.547H249.346V799.626H160.85V788.547Z" fill="#8D8C82"/>
<path d="M160.85 804.374H249.346V815.453H160.85V804.374Z" fill="#8D8C82"/>
<path d="M54.6541 794.878H143.15V805.957H54.6541V794.878Z" fill="#8D8C82"/>
<path d="M56.2632 788.547H136.714V798.043H56.2632V788.547Z" fill="#8D8C82"/>
<path d="M56.2632 802.791H136.714V812.288H56.2632V802.791Z" fill="#8D8C82"/>
<path d="M54.6541 845.525H143.15V856.604H54.6541V845.525Z" fill="#8D8C82"/>
<path d="M56.2632 839.194H136.714V848.691H56.2632V839.194Z" fill="#8D8C82"/>
<path d="M56.2632 853.439H136.714V862.935H56.2632V853.439Z" fill="#8D8C82"/>
<path d="M93.2707 736.317H242.91V747.396H93.2707V736.317Z" fill="#8D8C82"/>
<path d="M93.2707 750.561H242.91V761.64H93.2707V750.561Z" fill="#8D8C82"/>
<path d="M221.992 850.273H437.601V861.353H221.992V850.273Z" fill="#8D8C82"/>
<path d="M234.865 842.36H424.729V853.439H234.865V842.36Z" fill="#8D8C82"/>
<path d="M234.865 856.604H424.729V867.683H234.865V856.604Z" fill="#8D8C82"/>
<path d="M45 703.079H56.2632V900.921H45V703.079Z" fill="#8D8C82"/>
<path d="M109.36 748.978H202.683V842.36H109.36V748.978Z" fill="#181D36"/>
<path d="M109.36 842.36H202.683V850.273H109.36V842.36Z" fill="#181D36"/>
<path d="M101.314 756.892H109.36V842.36H101.314V756.892Z" fill="#181D36"/>
<path d="M194.638 756.892H202.683V842.36H194.638V756.892Z" fill="#181D36"/>
<path d="M125.45 755.309H194.638V821.784H125.45V755.309Z" fill="#8B94C1"/>
<path d="M125.45 821.784H194.638V829.698H125.45V821.784Z" fill="#8B94C1"/>
<path d="M117.405 763.223H125.45V821.784H117.405V763.223Z" fill="#8B94C1"/>
<path d="M186.593 763.223H194.638V821.784H186.593V763.223Z" fill="#8B94C1"/>
<path d="M157.23 748.978H188.606V804.918H157.23V748.978Z" fill="#9B2A18"/>
<path d="M157.23 802.989H188.606V810.705H157.23V802.989Z" fill="#9B2A18"/>
<path d="M149.386 756.694H157.23V764.41H149.386V756.694Z" fill="#9B2A18"/>
<path d="M149.386 795.273H157.23V802.989H149.386V795.273Z" fill="#9B2A18"/>
<path d="M188.606 756.694H196.45V764.41H188.606V756.694Z" fill="#9B2A18"/>
<path d="M188.606 795.273H196.45V802.989H188.606V795.273Z" fill="#9B2A18"/>
<path d="M141.542 764.41H149.386V795.273H141.542V764.41Z" fill="#9B2A18"/>
<path d="M149.386 764.41H204.294V795.273H149.386V764.41Z" fill="#9B2A18"/>
<path d="M280.321 760.057H303.652V801.654H280.321V760.057Z" fill="#9B2A18"/>
<path d="M280.321 800.219H303.652V805.957H280.321V800.219Z" fill="#9B2A18"/>
<path d="M274.488 765.795H280.321V771.532H274.488V765.795Z" fill="#9B2A18"/>
<path d="M274.488 794.482H280.321V800.219H274.488V794.482Z" fill="#9B2A18"/>
<path d="M303.652 765.795H309.484V771.532H303.652V765.795Z" fill="#9B2A18"/>
<path d="M303.652 794.482H309.484V800.219H303.652V794.482Z" fill="#9B2A18"/>
<path d="M268.655 771.532H274.488V794.482H268.655V771.532Z" fill="#9B2A18"/>
<path d="M274.488 771.532H315.317V794.482H274.488V771.532Z" fill="#9B2A18"/>
<path d="M333.418 760.057H356.749V801.654H333.418V760.057Z" fill="#CD9100"/>
<path d="M333.418 800.219H356.749V805.957H333.418V800.219Z" fill="#CD9100"/>
<path d="M327.586 765.795H333.418V771.532H327.586V765.795Z" fill="#CD9100"/>
<path d="M327.586 794.482H333.418V800.219H327.586V794.482Z" fill="#CD9100"/>
<path d="M356.749 765.795H362.582V771.532H356.749V765.795Z" fill="#CD9100"/>
<path d="M356.749 794.482H362.582V800.219H356.749V794.482Z" fill="#CD9100"/>
<path d="M321.753 771.532H327.586V794.482H321.753V771.532Z" fill="#CD9100"/>
<path d="M327.586 771.532H368.415V794.482H327.586V771.532Z" fill="#CD9100"/>
<path d="M280.321 813.87H303.652V855.467H280.321V813.87Z" fill="#E97000"/>
<path d="M280.321 854.032H303.652V859.77H280.321V854.032Z" fill="#E97000"/>
<path d="M274.488 819.608H280.321V825.345H274.488V819.608Z" fill="#E97000"/>
<path d="M274.488 848.295H280.321V854.032H274.488V848.295Z" fill="#E97000"/>
<path d="M303.652 819.608H309.484V825.345H303.652V819.608Z" fill="#E97000"/>
<path d="M303.652 848.295H309.484V854.032H303.652V848.295Z" fill="#E97000"/>
<path d="M268.655 825.345H274.488V848.295H268.655V825.345Z" fill="#E97000"/>
<path d="M274.488 825.345H315.317V848.295H274.488V825.345Z" fill="#E97000"/>
<path d="M373.644 813.87H396.975V855.467H373.644V813.87Z" fill="#66B8B6"/>
<path d="M373.644 854.032H396.975V859.77H373.644V854.032Z" fill="#66B8B6"/>
<path d="M367.811 819.608H373.644V825.345H367.811V819.608Z" fill="#66B8B6"/>
<path d="M367.811 848.295H373.644V854.032H367.811V848.295Z" fill="#66B8B6"/>
<path d="M396.975 819.608H402.807V825.345H396.975V819.608Z" fill="#66B8B6"/>
<path d="M396.975 848.295H402.807V854.032H396.975V848.295Z" fill="#66B8B6"/>
<path d="M361.979 825.345H367.811V848.295H361.979V825.345Z" fill="#66B8B6"/>
<path d="M367.811 825.345H408.64V848.295H367.811V825.345Z" fill="#66B8B6"/>
<rect x="183.376" y="767.971" width="8.04511" height="7.91367" fill="#FFA597"/>
<rect x="283.135" y="774.302" width="19.3083" height="18.9928" fill="#D1533F"/>
<rect x="336.233" y="774.302" width="19.3083" height="18.9928" fill="#E7B847"/>
<rect x="283.135" y="828.115" width="19.3083" height="18.9928" fill="#F8AA62"/>
<rect x="376.458" y="828.115" width="19.3083" height="18.9928" fill="#B6EFED"/>
</g>
<g style="mix-blend-mode:exclusion" opacity="0.65">
<path d="M456.734 279.475L62.5259 278.078L62.5652 266.999L456.773 268.395L456.734 279.475Z" fill="#8D8C82"/>
<path d="M457.474 70.555L63.2658 69.1589L63.3051 58.0798L457.513 59.4759L457.474 70.555Z" fill="#8D8C82"/>
<path d="M62.5259 278.078L51.2629 278.039L51.3021 266.959L62.5652 266.999L62.5259 278.078Z" fill="#8D8C82"/>
<path d="M226.83 226.43L102.936 225.991L102.975 214.912L226.869 215.351L226.83 226.43Z" fill="#8D8C82"/>
<path d="M210.701 237.452L115.769 237.116L115.808 226.037L210.74 226.373L210.701 237.452Z" fill="#8D8C82"/>
<path d="M210.992 155.15L116.061 154.814L116.1 143.735L211.032 144.071L210.992 155.15Z" fill="#8D8C82"/>
<path d="M227.043 166.286L101.54 165.842L101.579 154.763L227.082 155.207L227.043 166.286Z" fill="#8D8C82"/>
<path d="M111.004 219.689L99.7406 219.649L99.9312 165.836L111.194 165.876L111.004 219.689Z" fill="#8D8C82"/>
<path d="M230.082 216.945L218.819 216.905L219.009 163.092L230.272 163.132L230.082 216.945Z" fill="#8D8C82"/>
<path d="M352.569 160.4L333.26 160.331L333.591 66.9507L352.899 67.0191L352.569 160.4Z" fill="#8D8C82"/>
<path d="M51.3021 266.959L40.039 266.92L40.7396 69.0791L52.0027 69.119L51.3021 266.959Z" fill="#8D8C82"/>
<path d="M63.2658 69.1589L52.0027 69.119L52.042 58.0399L63.3051 58.0798L63.2658 69.1589Z" fill="#8D8C82"/>
<path d="M429.566 227.148L260.619 226.549L260.659 215.47L429.605 216.069L429.566 227.148Z" fill="#8D8C82"/>
<path d="M354.127 174.65L257.586 174.308L257.626 163.229L354.166 163.571L354.127 174.65Z" fill="#8D8C82"/>
<path d="M352.49 182.558L263.994 182.245L264.034 171.166L352.529 171.479L352.49 182.558Z" fill="#8D8C82"/>
<path d="M352.546 166.731L264.05 166.417L264.09 155.338L352.585 155.652L352.546 166.731Z" fill="#8D8C82"/>
<path d="M458.707 176.603L370.212 176.29L370.251 165.211L458.747 165.524L458.707 176.603Z" fill="#8D8C82"/>
<path d="M457.076 182.928L376.625 182.643L376.659 173.147L457.11 173.432L457.076 182.928Z" fill="#8D8C82"/>
<path d="M457.126 168.684L376.676 168.399L376.709 158.903L457.16 159.187L457.126 168.684Z" fill="#8D8C82"/>
<path d="M458.887 125.956L370.391 125.643L370.43 114.564L458.926 114.877L458.887 125.956Z" fill="#8D8C82"/>
<path d="M457.255 132.281L376.805 131.996L376.838 122.5L457.289 122.785L457.255 132.281Z" fill="#8D8C82"/>
<path d="M457.306 118.037L376.855 117.752L376.889 108.255L457.339 108.54L457.306 118.037Z" fill="#8D8C82"/>
<path d="M419.884 235.027L270.245 234.497L270.285 223.418L419.923 223.948L419.884 235.027Z" fill="#8D8C82"/>
<path d="M419.934 220.783L270.296 220.253L270.335 209.174L419.973 209.704L419.934 220.783Z" fill="#8D8C82"/>
<path d="M291.566 120.615L75.9586 119.852L75.9978 108.773L291.605 109.536L291.566 120.615Z" fill="#8D8C82"/>
<path d="M278.666 128.483L88.8026 127.811L88.8419 116.732L278.705 117.404L278.666 128.483Z" fill="#8D8C82"/>
<path d="M278.717 114.239L88.8531 113.566L88.8923 102.487L278.756 103.16L278.717 114.239Z" fill="#8D8C82"/>
<path d="M468.036 268.435L456.773 268.395L457.474 70.555L468.737 70.5948L468.036 268.435Z" fill="#8D8C82"/>
<path d="M403.84 222.309L310.517 221.978L310.848 128.597L404.17 128.928L403.84 222.309Z" fill="#181D36"/>
<path d="M404.17 128.928L310.848 128.597L310.876 120.684L404.198 121.014L404.17 128.928Z" fill="#181D36"/>
<path d="M411.913 214.424L403.868 214.395L404.17 128.928L412.215 128.956L411.913 214.424Z" fill="#181D36"/>
<path d="M318.59 214.093L310.545 214.065L310.848 128.597L318.893 128.626L318.59 214.093Z" fill="#181D36"/>
<path d="M387.771 215.92L318.584 215.675L318.819 149.201L388.007 149.446L387.771 215.92Z" fill="#8B94C1"/>
<path d="M388.007 149.446L318.819 149.201L318.847 141.287L388.035 141.532L388.007 149.446Z" fill="#8B94C1"/>
<path d="M395.844 208.035L387.799 208.007L388.007 149.446L396.052 149.475L395.844 208.035Z" fill="#8B94C1"/>
<path d="M326.657 207.79L318.612 207.762L318.819 149.201L326.864 149.23L326.657 207.79Z" fill="#8B94C1"/>
<path d="M355.969 222.139L324.594 222.028L324.792 166.089L356.167 166.2L355.969 222.139Z" fill="#9B2A18"/>
<path d="M356.161 168.129L324.785 168.017L324.812 160.302L356.188 160.413L356.161 168.129Z" fill="#9B2A18"/>
<path d="M363.841 214.451L355.997 214.423L356.024 206.707L363.868 206.735L363.841 214.451Z" fill="#9B2A18"/>
<path d="M363.977 175.872L356.133 175.844L356.161 168.129L364.005 168.156L363.977 175.872Z" fill="#9B2A18"/>
<path d="M324.621 214.312L316.777 214.284L316.804 206.569L324.648 206.596L324.621 214.312Z" fill="#9B2A18"/>
<path d="M324.758 175.733L316.914 175.705L316.941 167.99L324.785 168.017L324.758 175.733Z" fill="#9B2A18"/>
<path d="M371.712 206.763L363.868 206.735L363.977 175.872L371.821 175.9L371.712 206.763Z" fill="#9B2A18"/>
<path d="M363.868 206.735L308.96 206.541L309.07 175.678L363.977 175.872L363.868 206.735Z" fill="#9B2A18"/>
<path d="M232.92 210.624L209.589 210.541L209.736 168.945L233.067 169.028L232.92 210.624Z" fill="#9B2A18"/>
<path d="M233.062 170.462L209.731 170.38L209.751 164.642L233.082 164.725L233.062 170.462Z" fill="#9B2A18"/>
<path d="M238.773 204.907L232.94 204.887L232.96 199.149L238.793 199.17L238.773 204.907Z" fill="#9B2A18"/>
<path d="M238.874 176.22L233.042 176.2L233.062 170.462L238.895 170.483L238.874 176.22Z" fill="#9B2A18"/>
<path d="M209.609 204.804L203.777 204.783L203.797 199.046L209.63 199.067L209.609 204.804Z" fill="#9B2A18"/>
<path d="M209.711 176.117L203.878 176.096L203.898 170.359L209.731 170.38L209.711 176.117Z" fill="#9B2A18"/>
<path d="M244.626 199.191L238.793 199.17L238.874 176.22L244.707 176.241L244.626 199.191Z" fill="#9B2A18"/>
<path d="M238.793 199.17L197.964 199.025L198.046 176.076L238.874 176.22L238.793 199.17Z" fill="#9B2A18"/>
<path d="M179.822 210.436L156.491 210.353L156.639 168.757L179.969 168.84L179.822 210.436Z" fill="#CD9100"/>
<path d="M179.964 170.274L156.634 170.192L156.654 164.454L179.985 164.537L179.964 170.274Z" fill="#CD9100"/>
<path d="M185.675 204.719L179.842 204.699L179.863 198.961L185.695 198.982L185.675 204.719Z" fill="#CD9100"/>
<path d="M185.777 176.032L179.944 176.012L179.964 170.274L185.797 170.295L185.777 176.032Z" fill="#CD9100"/>
<path d="M156.512 204.616L150.679 204.595L150.699 198.858L156.532 198.879L156.512 204.616Z" fill="#CD9100"/>
<path d="M156.613 175.929L150.781 175.908L150.801 170.171L156.634 170.192L156.613 175.929Z" fill="#CD9100"/>
<path d="M191.528 199.003L185.695 198.982L185.777 176.032L191.609 176.053L191.528 199.003Z" fill="#CD9100"/>
<path d="M185.695 198.982L144.867 198.837L144.948 175.888L185.777 176.032L185.695 198.982Z" fill="#CD9100"/>
<path d="M233.11 156.811L209.779 156.729L209.927 115.133L233.257 115.216L233.11 156.811Z" fill="#E97000"/>
<path d="M233.252 116.65L209.922 116.567L209.942 110.83L233.273 110.912L233.252 116.65Z" fill="#E97000"/>
<path d="M238.963 151.095L233.13 151.074L233.151 145.337L238.983 145.357L238.963 151.095Z" fill="#E97000"/>
<path d="M239.065 122.408L233.232 122.387L233.252 116.65L239.085 116.671L239.065 122.408Z" fill="#E97000"/>
<path d="M209.8 150.991L203.967 150.971L203.987 145.233L209.82 145.254L209.8 150.991Z" fill="#E97000"/>
<path d="M209.901 122.305L204.069 122.284L204.089 116.547L209.922 116.567L209.901 122.305Z" fill="#E97000"/>
<path d="M244.816 145.378L238.983 145.357L239.065 122.408L244.897 122.429L244.816 145.378Z" fill="#E97000"/>
<path d="M238.983 145.357L198.155 145.213L198.236 122.263L239.065 122.408L238.983 145.357Z" fill="#E97000"/>
<path d="M139.787 156.481L116.456 156.398L116.603 114.802L139.934 114.885L139.787 156.481Z" fill="#66B8B6"/>
<path d="M139.929 116.319L116.598 116.237L116.619 110.499L139.949 110.582L139.929 116.319Z" fill="#66B8B6"/>
<path d="M145.64 150.764L139.807 150.744L139.827 145.006L145.66 145.027L145.64 150.764Z" fill="#66B8B6"/>
<path d="M145.741 122.077L139.909 122.057L139.929 116.319L145.762 116.34L145.741 122.077Z" fill="#66B8B6"/>
<path d="M116.476 150.661L110.644 150.64L110.664 144.903L116.497 144.924L116.476 150.661Z" fill="#66B8B6"/>
<path d="M116.578 121.974L110.745 121.953L110.766 116.216L116.598 116.237L116.578 121.974Z" fill="#66B8B6"/>
<path d="M151.493 145.047L145.66 145.027L145.741 122.077L151.574 122.098L151.493 145.047Z" fill="#66B8B6"/>
<path d="M145.66 145.027L104.831 144.882L104.913 121.933L145.741 122.077L145.66 145.027Z" fill="#66B8B6"/>
<rect x="329.891" y="203.054" width="8.04511" height="7.91367" transform="rotate(-179.797 329.891 203.054)" fill="#FFA597"/>
<rect x="230.155" y="196.369" width="19.3083" height="18.9928" transform="rotate(-179.797 230.155 196.369)" fill="#D1533F"/>
<rect x="177.058" y="196.181" width="19.3083" height="18.9928" transform="rotate(-179.797 177.058 196.181)" fill="#E7B847"/>
<rect x="230.346" y="142.557" width="19.3083" height="18.9928" transform="rotate(-179.797 230.346 142.557)" fill="#F8AA62"/>
<rect x="137.023" y="142.226" width="19.3083" height="18.9928" transform="rotate(-179.797 137.023 142.226)" fill="#B6EFED"/>
</g>
</svg>
