<svg width="353" height="598" viewBox="0 0 353 598" fill="none" xmlns="http://www.w3.org/2000/svg">
<path fill-rule="evenodd" clip-rule="evenodd" d="M303.71 151.814L352.011 152.124L352.692 101.483L292.985 101.211L303.71 151.814Z" fill="#C11D99"/>
<path fill-rule="evenodd" clip-rule="evenodd" d="M352.616 87.715L290.064 87.4302L292.985 101.211L352.692 101.483L352.616 87.715Z" fill="#F8C7EC"/>
<path d="M238.815 152.055L303.71 151.814L292.985 101.211L241.615 100.977L238.815 152.055Z" fill="#C11D99"/>
<path d="M290.064 87.4302L242.369 87.2131L241.615 100.977L292.985 101.211L290.064 87.4302Z" fill="#F8C7EC"/>
<path d="M241.615 100.977L242.369 87.2131L-52.4887 85.8706L-52.4887 99.6378L241.615 100.977Z" fill="#F8C7EC"/>
<path d="M238.815 152.055L241.615 100.977L-52.4887 99.6378L-52.4887 153.134L238.815 152.055Z" fill="#C11D99"/>
<path d="M242.369 87.2131L290.064 87.4302L352.616 87.715L303.71 61.624L-48.9887 61.624L-52.4887 85.8706L242.369 87.2131Z" fill="#D698C7"/>
<path d="M334.405 595.278L-331.93 597.702L-331.929 133.41L346.993 133.41L344.992 584.454C344.965 590.443 340.404 595.256 334.405 595.278Z" fill="#47C0BB"/>
<rect width="118.587" height="170.048" transform="matrix(0.999976 -0.00689169 0.0169338 0.999857 -27.9668 326.331)" fill="#15A19B"/>
<path fill-rule="evenodd" clip-rule="evenodd" d="M312.665 388.847C315.67 426.271 296.138 460.095 265.38 477.252L227.615 409.081L215.284 411.727L206.783 488.259C181.583 484.88 159.175 471.557 144.086 452.167L207.889 401.335L239.761 304.232C278.831 313.53 309.307 347.022 312.665 388.847Z" fill="#2B2B2B"/>
<path d="M206.783 488.259C213.073 489.102 219.537 489.326 226.105 488.87C240.403 487.878 253.701 483.766 265.38 477.252L227.615 409.081L215.284 411.727L206.783 488.259Z" fill="black"/>
<path fill-rule="evenodd" clip-rule="evenodd" d="M144.086 452.167C133.147 438.111 126.054 420.866 124.532 401.91C124.02 395.532 124.163 389.259 124.903 383.155L187.563 358.139L194.391 304.544C199.771 303.186 205.351 302.285 211.092 301.886C220.962 301.201 230.598 302.051 239.761 304.232L207.889 401.335L144.086 452.167Z" fill="#2B2B2B"/>
<path d="M187.563 358.139L194.391 304.544C157.11 313.957 129.498 345.303 124.903 383.155L187.563 358.139Z" fill="#828282"/>
<path d="M86.7585 387.47L73.621 387.56L-12.4818 388.154L-21.8449 388.218L-18.0917 391.822L54.2722 391.324L64.4019 391.254L82.963 391.126L86.7585 387.47Z" fill="#070937"/>
<path d="M-21.8449 388.218L-20.7391 453.508L-17.0475 453.483L-17.4326 430.743L-18.0917 391.822L-21.8449 388.218Z" fill="#23266E"/>
<path d="M88.276 452.757L86.7585 387.47L82.963 391.126L84.0073 452.787L88.276 452.757Z" fill="#23266E"/>
<path fill-rule="evenodd" clip-rule="evenodd" d="M84.0073 452.787L-17.0475 453.483L-17.4326 430.743C-15.063 417.876 2.68725 393.175 54.2722 391.324L64.4019 391.254L82.963 391.126L84.0073 452.787Z" fill="#0A0F7E"/>
<path d="M-18.0917 391.822L-17.4326 430.743C-15.063 417.876 2.68725 393.175 54.2722 391.324L-18.0917 391.822Z" fill="#0A0F7E"/>
<path fill-rule="evenodd" clip-rule="evenodd" d="M-22.8242 330.394L53.2314 329.869C45.3427 342.626 24.6015 347.993 15.217 349.082L-13.1402 349.277L-22.8242 330.394Z" fill="#97F1ED"/>
<path d="M72.9626 348.684L86.4799 329.64L53.2314 329.869C45.3427 342.626 24.6015 347.993 15.217 349.082L72.9626 348.684Z" fill="#6CCAD0"/>
<path fill-rule="evenodd" clip-rule="evenodd" d="M-21.8449 388.218L-22.6421 341.148C-21.3775 348.28 -17.9192 354.315 -12.9715 359.24L-12.4818 388.154L-21.8449 388.218Z" fill="#31616B"/>
<path fill-rule="evenodd" clip-rule="evenodd" d="M86.5317 340.396L86.7585 387.47L73.621 387.56L73.2218 363.993C80.7329 358.278 85.7589 350.423 86.5317 340.396Z" fill="#31616B"/>
<path fill-rule="evenodd" clip-rule="evenodd" d="M73.621 387.56L-12.4818 388.154L-12.9715 359.24C6.9413 379.063 50.9786 380.916 73.2218 363.993L73.621 387.56Z" fill="#5192A0"/>
<path d="M15.217 349.082L-13.1402 349.277L-12.9715 359.24C6.9413 379.063 50.9786 380.916 73.2218 363.993L72.9626 348.684L15.217 349.082Z" fill="#5192A0"/>
<path d="M-13.1402 349.277L-22.8242 330.394L-22.6421 341.148C-21.3775 348.28 -17.9192 354.315 -12.9715 359.24L-13.1402 349.277Z" fill="#31616B"/>
<path d="M86.4799 329.64L72.9626 348.684L73.2218 363.993C80.7329 358.278 85.7589 350.423 86.5317 340.396L86.4799 329.64Z" fill="#31616B"/>
<path fill-rule="evenodd" clip-rule="evenodd" d="M-17.0475 453.483L-20.7391 453.508L-20.1181 490.175C6.27655 488.594 64.9079 478.897 88.276 452.757L84.0073 452.787L-17.0475 453.483Z" fill="#97F1ED"/>
<path d="M89.186 489.421L88.276 452.757C64.9079 478.897 6.27655 488.594 -20.1181 490.175L89.186 489.421Z" fill="#6CCAD0"/>
<path d="M-86.0592 230.065C-79.7485 199.82 -91.8606 178.3 -100.9 168.633C-102.167 167.279 -100.868 164.48 -98.89 164.478L228.539 164.162C229.55 164.161 230.311 164.919 230.311 165.917L230.311 231.184C230.311 232.371 229.248 233.414 228.046 233.41L-84.3243 232.286C-85.5129 232.282 -86.3049 231.243 -86.0592 230.065Z" fill="#0F102E"/>
<path d="M-62.7299 180.464C-62.2958 177.867 -59.8091 175.754 -57.1759 175.744L215.774 174.762C218.102 174.753 219.81 176.409 219.81 178.673V178.673C219.81 181.528 217.142 184.134 214.206 184.145L-58.7475 185.15C-61.381 185.159 -63.1641 183.061 -62.7299 180.464V180.464Z" fill="#1E75A6"/>
<path d="M-62.4032 199.346C-61.9691 196.749 -59.4825 194.636 -56.8492 194.626L216.101 193.644C218.429 193.636 220.137 195.291 220.137 197.555V197.555C220.137 200.411 217.468 203.016 214.533 203.027L-58.4209 204.032C-61.0544 204.042 -62.8374 201.944 -62.4032 199.346V199.346Z" fill="#1E75A6"/>
<path d="M-62.4032 216.346C-61.9691 213.749 -59.4825 211.636 -56.8492 211.626L216.101 210.644C218.429 210.636 220.137 212.291 220.137 214.555V214.555C220.137 217.411 217.468 220.016 214.533 220.027L-58.4209 221.032C-61.0544 221.042 -62.8374 218.944 -62.4032 216.346V216.346Z" fill="#1E75A6"/>
<path d="M-128.19 304.287L-117.186 295.93L174.689 294.643L167.811 302.124L-128.19 304.287Z" fill="#20A19B"/>
<path fill-rule="evenodd" clip-rule="evenodd" d="M174.979 295.311C174.96 281.791 174.989 257.624 174.967 242.124L168.311 239.259L-76.0317 239.834L-78.766 242.964C-81.5172 272.536 -108.319 291.449 -121.07 297.208L-98.3017 288.82L168.311 289.624L174.979 295.311Z" fill="#2E92A0"/>
<path d="M-121.07 297.208L174.979 295.311L168.311 289.624L-98.3017 288.82L-121.07 297.208Z" fill="#26737D"/>
<path d="M-104.244 290.917C-77.1317 271.067 -74.7931 250.241 -76.6323 239.836L168.31 239.124L168.311 289.624L-104.244 290.917Z" fill="#60EFE9"/>
<path d="M57.7547 425.103C59.1785 425.093 60.3132 423.938 60.2893 422.524C60.2839 422.207 60.2206 421.903 60.1096 421.624C59.9305 421.172 59.6269 420.783 59.2418 420.496C57.5997 420.109 55.9181 421.109 55.2825 421.657C55.181 421.938 55.1281 422.242 55.1334 422.56C55.1452 423.253 55.433 423.88 55.891 424.337C56.3677 424.814 57.0287 425.108 57.7547 425.103Z" fill="#A1A4E3"/>
<path fill-rule="evenodd" clip-rule="evenodd" d="M62.3516 422.51C62.3947 425.056 60.3522 427.133 57.7894 427.151C55.2267 427.169 53.1142 425.12 53.0711 422.574C53.028 420.028 55.0706 417.951 57.6333 417.933C60.1961 417.915 62.3085 419.965 62.3516 422.51ZM60.2893 422.524C60.3132 423.938 59.1785 425.093 57.7547 425.103C57.0287 425.108 56.3677 424.814 55.891 424.337C55.433 423.88 55.1452 423.253 55.1334 422.56C55.1281 422.242 55.181 421.938 55.2825 421.657C55.6333 420.685 56.5637 419.989 57.668 419.981C58.2565 419.977 58.8023 420.17 59.2418 420.496C59.6269 420.783 59.9305 421.172 60.1096 421.624C60.2206 421.903 60.2839 422.207 60.2893 422.524Z" fill="#6064CB"/>
<path d="M57.668 419.981C56.5637 419.989 55.6333 420.685 55.2825 421.657C55.9181 421.109 57.5997 420.109 59.2418 420.496C58.8023 420.17 58.2565 419.977 57.668 419.981Z" fill="#D3DBFF"/>
<path fill-rule="evenodd" clip-rule="evenodd" d="M64.414 422.496C64.4762 426.173 61.5259 429.174 57.8241 429.2C54.1224 429.225 51.071 426.265 51.0087 422.588C50.9465 418.911 53.8969 415.91 57.5986 415.884C61.3004 415.859 64.3517 418.819 64.414 422.496ZM57.7894 427.151C60.3522 427.133 62.3947 425.056 62.3516 422.51C62.3085 419.965 60.1961 417.915 57.6333 417.933C55.0706 417.951 53.028 420.028 53.0711 422.574C53.1142 425.12 55.2267 427.169 57.7894 427.151Z" fill="#090B33"/>
<path d="M15.9506 422.83C16.0129 426.507 13.0625 429.509 9.36074 429.534C5.65899 429.56 2.60764 426.6 2.54537 422.923C2.4831 419.246 5.43348 416.244 9.13523 416.219C12.837 416.193 15.8883 419.153 15.9506 422.83Z" fill="#090B33"/>
<path d="M13.8883 422.845C13.9314 425.39 11.8888 427.468 9.32604 427.486C6.76329 427.503 4.65082 425.454 4.60771 422.908C4.5646 420.363 6.60717 418.285 9.16992 418.267C11.7327 418.25 13.8451 420.299 13.8883 422.845Z" fill="#5A5DB2"/>
<path d="M9.20461 420.316C8.10036 420.324 7.16995 421.02 6.81915 421.991C7.4547 421.443 9.13632 420.443 10.7784 420.831C10.3389 420.504 9.79314 420.312 9.20461 420.316Z" fill="#D3D5FF"/>
<path fill-rule="evenodd" clip-rule="evenodd" d="M7.42763 424.672C8.75842 424.416 10.8208 424.402 11.6463 421.958C11.4671 421.507 11.1636 421.117 10.7784 420.831C9.13632 420.443 7.4547 421.443 6.81915 421.991C6.71766 422.273 6.66468 422.577 6.67005 422.894C6.68179 423.587 6.9696 424.214 7.42763 424.672Z" fill="#A1A4E3"/>
<path d="M9.29135 425.437C10.7151 425.427 11.8499 424.273 11.8259 422.859C11.8205 422.541 11.7573 422.238 11.6463 421.958C10.8208 424.402 8.75842 424.416 7.42763 424.672C7.90429 425.148 8.56529 425.442 9.29135 425.437Z" fill="#8386D2"/>
<path d="M23.2631 428.414L45.9488 428.257L45.9141 426.209L23.2284 426.365L23.2631 428.414Z" fill="#3D42A3"/>
<path fill-rule="evenodd" clip-rule="evenodd" d="M23.2284 426.365L23.107 419.195L45.7927 419.039L45.9141 426.209L23.2284 426.365Z" fill="#6064CB"/>
<path d="M45.7927 419.039C45.6122 418.528 44.94 417.406 43.6957 417.005L25.1346 417.133C24.4472 417.137 23.0792 417.557 23.107 419.195L45.7927 419.039Z" fill="#969BFA"/>
<ellipse cx="217.811" cy="395.624" rx="84" ry="83" fill="black"/>
<ellipse cx="217.969" cy="394.788" rx="77.158" ry="78.1637" fill="#FFFCE5"/>
<path d="M222.135 341.05V440.096C227.925 439.665 230.162 438.41 233.16 437.186C243.502 432.962 246.387 422.828 248.075 416.293C263.13 414.52 269.846 402.467 270.819 395.363C273.659 374.624 254.593 364.694 246.178 364.614C244.233 350.964 238.07 345.696 233.16 343.349C233.16 343.349 228.667 341.05 222.135 341.05Z" fill="#0F102E" stroke="#0F102E" stroke-width="2"/>
<path d="M223.824 391.954C223.098 392.138 222.337 392.138 221.612 391.954C221.416 391.221 221.416 390.444 221.612 389.711C222.33 389.456 223.11 389.456 223.824 389.711C224.102 390.432 224.102 391.232 223.824 391.954Z" fill="#0F102E"/>
<path d="M241.197 362.411C241.197 376.06 229.447 387.125 214.951 387.125C200.787 387.125 189.243 376.682 188.723 363.465C188.711 363.156 188.723 362.914 188.723 362.603C188.723 362.266 188.593 361.499 188.609 361.166C189.238 347.999 199.116 340.876 212.461 340.188C217.107 339.949 216.484 340.044 221.225 340.044C229.176 344.291 241.197 353.189 241.197 362.411Z" fill="#0F102E"/>
<path d="M221.465 390.621C221.465 405.936 209.049 418.352 193.734 418.352C191.563 418.352 189.449 418.102 187.422 417.63C187.097 417.555 186.774 417.473 186.454 417.386C174.67 414.189 166.003 403.417 166.003 390.621C166.003 377.378 175.669 366.22 188.083 363.465C188.422 363.389 188.38 363.527 188.723 363.465C190.349 363.168 192.023 362.89 193.734 362.89C209.049 362.89 221.465 375.306 221.465 390.621Z" fill="#0F102E"/>
<path d="M242.634 413.898C242.634 424.329 233.151 437.078 221.13 441.197C219.693 441.197 218.686 441.389 213.802 441.389C200.221 441.389 190.021 431.865 187.636 418.974C187.554 418.53 187.482 418.082 187.422 417.63C187.257 416.409 187.173 415.163 187.173 413.898C187.173 398.582 199.588 386.167 214.903 386.167C230.219 386.167 242.634 398.582 242.634 413.898Z" fill="#0F102E"/>
<path d="M188.723 363.465C188.711 363.156 188.723 362.914 188.723 362.603C188.723 362.266 188.593 361.499 188.609 361.166L188.083 363.465C188.422 363.389 188.38 363.527 188.723 363.465Z" fill="#0F102E"/>
<path d="M187.422 417.63C187.097 417.555 186.774 417.473 186.454 417.386L187.636 418.974C187.554 418.53 187.482 418.082 187.422 417.63Z" fill="#0F102E"/>
<path d="M199.361 390.541C200.624 387.698 202.958 385.486 205.844 384.404C201.259 379.886 198.589 373.737 198.389 367.254C189.118 367.639 180.996 373.666 177.832 382.51C176.082 388.702 179.616 395.157 185.726 396.929C191.212 398.522 197.02 395.792 199.369 390.522L199.361 390.537V390.541Z" fill="#FFBA15"/>
<path d="M221.213 397.122C221.056 398.157 220.762 399.169 220.338 400.122C215.119 411.867 201.499 417.103 189.914 411.812C178.33 406.522 173.169 392.71 178.385 380.965C175.855 386.875 178.526 393.742 184.353 396.31C190.071 398.828 196.726 396.271 199.361 390.545C200.624 387.702 202.958 385.49 205.844 384.408C209.856 388.392 215.091 390.867 220.68 391.428C221.17 391.475 221.664 391.506 222.166 391.526C222.08 393.439 221.758 395.334 221.213 397.169C221.213 397.157 221.213 397.142 221.217 397.126" fill="#D56819"/>
<path d="M223.107 391.545C222.679 391.545 222.26 391.533 221.848 391.514C221.319 404.106 210.824 413.879 198.404 413.346C185.985 412.812 176.345 402.169 176.875 389.577C177.373 377.737 186.722 368.251 198.401 367.745C198.381 367.321 198.369 366.894 198.369 366.466C198.369 366.137 198.381 365.815 198.393 365.486C184.745 366.027 174.11 377.682 174.643 391.522C175.177 405.361 186.671 416.142 200.322 415.601C213.224 415.091 223.57 404.6 224.072 391.518C223.75 391.529 223.432 391.541 223.107 391.541" fill="#0F102E"/>
<path d="M222.666 367.054C225.462 368.352 227.63 370.732 228.677 373.662C233.164 369.042 239.242 366.371 245.635 366.211C245.313 356.803 239.189 347.865 230.479 344.602C224.385 342.79 218.222 346.994 216.438 353.175C214.834 358.728 217.489 364.634 222.673 367.05H222.666V367.054Z" fill="#F34529"/>
<path d="M216.307 388.961C215.287 388.8 214.291 388.502 213.346 388.075C201.761 382.785 196.6 368.972 201.816 357.227C207.036 345.482 220.656 340.246 232.24 345.537C226.413 342.972 219.636 345.682 217.107 351.588C214.624 357.384 217.146 364.129 222.793 366.804C225.597 368.082 227.781 370.451 228.844 373.377C224.915 377.443 222.472 382.753 221.923 388.42C221.875 388.918 221.844 389.42 221.828 389.926C219.942 389.836 218.071 389.51 216.264 388.957H216.307V388.961Z" fill="#FF836F"/>
<path d="M221.805 390.883C221.805 390.451 221.817 390.024 221.836 389.604C209.416 389.082 199.765 378.455 200.279 365.859C200.777 353.619 210.714 343.964 222.797 343.98C234.887 343.98 244.778 353.725 245.284 365.851C245.699 365.827 246.123 365.819 246.543 365.819C246.868 365.819 247.182 365.831 247.507 365.843C246.997 352.474 236.111 341.721 222.797 341.721C209.138 341.721 198.067 352.952 198.071 366.804C198.071 380.267 208.561 391.326 221.828 391.855C221.828 391.53 221.809 391.204 221.809 390.875" fill="#0F102E"/>
<path d="M223.084 414.66C220.28 413.381 218.096 411.012 217.033 408.087C212.574 412.726 206.511 415.424 200.123 415.613C200.484 425.029 206.433 433.288 215.17 436.495C221.276 438.268 227.645 434.684 229.39 428.491C230.959 422.93 228.268 417.04 223.072 414.656H223.084V414.66Z" fill="#B63C98"/>
<path d="M229.33 392.502C230.338 392.663 231.318 392.961 232.244 393.389C243.652 398.679 248.734 412.491 243.597 424.236C238.46 435.982 225.044 441.217 213.64 435.927C219.377 438.491 226.052 435.782 228.542 429.876C230.985 424.079 228.503 417.334 222.942 414.66C220.177 413.381 218.032 411.012 216.981 408.087C220.855 404.02 223.259 398.714 223.805 393.043C223.852 392.545 223.879 392.043 223.899 391.538C225.758 391.628 227.597 391.953 229.381 392.506H229.33V392.502Z" fill="#FE77DD"/>
<path d="M246.445 390.965C245.206 393.82 242.645 395.701 239.771 396.807C244.39 401.289 247.355 407.761 247.606 414.24C256.876 413.781 264.955 407.687 268.049 398.812C269.747 392.608 266.163 386.18 260.041 384.455C254.543 382.906 248.759 385.682 246.449 390.973V390.965H246.445Z" fill="#3AD1CA"/>
<path d="M224.66 384.325C224.817 383.29 225.111 382.278 225.534 381.325C230.754 369.58 244.378 364.349 255.962 369.639C267.547 374.933 272.708 388.745 267.488 400.49C270.018 394.581 267.347 387.714 261.519 385.145C255.802 382.627 249.15 385.184 246.511 390.91C245.248 393.753 242.915 395.965 240.029 397.047C236.017 393.063 230.781 390.588 225.193 390.027C224.805 389.988 224.417 389.961 224.024 389.945C223.919 389.945 224.024 389.749 223.926 389.749C223.926 389.62 223.711 389.678 223.726 389.549C223.836 387.765 224.15 386 224.664 384.29C224.664 384.298 224.664 384.314 224.66 384.325Z" fill="#65FBF4"/>
<mask id="mask0_68_2" style="mask-type:alpha" maskUnits="userSpaceOnUse" x="140" y="316" width="156" height="157">
<ellipse cx="217.969" cy="394.788" rx="77.158" ry="78.1637" fill="#FFFCE5"/>
</mask>
<g mask="url(#mask0_68_2)">
<path d="M226.811 396.515L137.038 359.375L176.403 313.463L226.811 396.515Z" fill="#F34529"/>
<path d="M226.335 396.222L131.995 419.429L136.545 359.123L226.335 396.222Z" fill="#65FBF4"/>
<path d="M225.672 395.893L162.383 469.603L131.04 417.881L225.672 395.893Z" fill="#FFBA15"/>
<path d="M226.388 395.014L216.952 491.707L161.579 467.391L226.388 395.014Z" fill="#FE77DD"/>
</g>
<path d="M241.197 362.411C241.197 376.06 229.447 387.125 214.951 387.125C200.787 387.125 189.243 376.682 188.723 363.465C188.711 363.156 188.723 362.914 188.723 362.603C188.723 362.266 188.593 361.499 188.609 361.166C189.238 347.999 199.116 340.876 212.461 340.188C217.107 339.949 216.484 340.044 221.225 340.044C229.176 344.291 241.197 353.189 241.197 362.411Z" fill="#0F102E"/>
<path d="M221.465 390.621C221.465 405.936 209.049 418.352 193.734 418.352C191.563 418.352 189.449 418.102 187.422 417.63C187.097 417.555 186.774 417.473 186.454 417.386C174.67 414.189 166.003 403.417 166.003 390.621C166.003 377.378 175.669 366.22 188.083 363.465C188.422 363.389 188.38 363.527 188.723 363.465C190.349 363.168 192.023 362.89 193.734 362.89C209.049 362.89 221.465 375.306 221.465 390.621Z" fill="#0F102E"/>
<path d="M242.634 413.898C242.634 424.329 233.151 437.078 221.13 441.197C219.693 441.197 218.686 441.389 213.802 441.389C200.221 441.389 190.021 431.865 187.636 418.974C187.554 418.53 187.482 418.082 187.422 417.63C187.257 416.409 187.173 415.163 187.173 413.898C187.173 398.582 199.588 386.167 214.903 386.167C230.219 386.167 242.634 398.582 242.634 413.898Z" fill="#0F102E"/>
<path d="M188.723 363.465C188.711 363.156 188.723 362.914 188.723 362.603C188.723 362.266 188.593 361.499 188.609 361.166L188.083 363.465C188.422 363.389 188.38 363.527 188.723 363.465Z" fill="#0F102E"/>
<path d="M187.422 417.63C187.097 417.555 186.774 417.473 186.454 417.386L187.636 418.974C187.554 418.53 187.482 418.082 187.422 417.63Z" fill="#0F102E"/>
<path d="M199.361 390.541C200.624 387.698 202.958 385.486 205.844 384.404C201.259 379.886 198.589 373.737 198.389 367.254C189.118 367.639 180.996 373.666 177.832 382.51C176.082 388.702 179.616 395.157 185.726 396.929C191.212 398.522 197.02 395.792 199.369 390.522L199.361 390.537V390.541Z" fill="#FFBA15"/>
<path d="M221.213 397.122C221.056 398.157 220.762 399.169 220.338 400.122C215.119 411.867 201.499 417.103 189.914 411.812C178.33 406.522 173.169 392.71 178.385 380.965C175.855 386.875 178.526 393.742 184.353 396.31C190.071 398.828 196.726 396.271 199.361 390.545C200.624 387.702 202.958 385.49 205.844 384.408C209.856 388.392 215.091 390.867 220.68 391.428C221.17 391.475 221.664 391.506 222.166 391.526C222.08 393.439 221.758 395.334 221.213 397.169C221.213 397.157 221.213 397.142 221.217 397.126" fill="#D56819"/>
<path d="M222.666 367.054C225.462 368.352 227.63 370.732 228.677 373.662C233.164 369.042 239.242 366.371 245.635 366.211C245.313 356.803 239.189 347.865 230.479 344.602C224.385 342.79 218.222 346.994 216.438 353.175C214.834 358.728 217.489 364.634 222.673 367.05H222.666V367.054Z" fill="#F34529"/>
<path d="M216.307 388.961C215.287 388.8 214.291 388.502 213.346 388.075C201.761 382.785 196.6 368.972 201.816 357.227C207.036 345.482 220.656 340.246 232.24 345.537C226.413 342.972 219.636 345.682 217.107 351.588C214.624 357.384 217.146 364.129 222.793 366.804C225.597 368.082 227.781 370.451 228.844 373.377C224.915 377.443 222.472 382.753 221.923 388.42C221.875 388.918 221.844 389.42 221.828 389.926C219.942 389.836 218.071 389.51 216.264 388.957H216.307V388.961Z" fill="#FF836F"/>
<path d="M223.084 414.66C220.28 413.381 218.096 411.012 217.033 408.087C212.574 412.726 206.511 415.424 200.123 415.613C200.484 425.029 206.433 433.288 215.17 436.495C221.276 438.268 227.645 434.684 229.39 428.491C230.959 422.93 228.268 417.04 223.072 414.656H223.084V414.66Z" fill="#B63C98"/>
<path d="M229.33 392.502C230.338 392.663 231.318 392.961 232.244 393.389C243.652 398.679 248.734 412.491 243.597 424.236C238.46 435.982 225.044 441.217 213.64 435.927C219.377 438.491 226.052 435.782 228.542 429.876C230.985 424.079 228.503 417.334 222.942 414.66C220.177 413.381 218.032 411.012 216.981 408.087C220.855 404.02 223.259 398.714 223.805 393.043C223.852 392.545 223.879 392.043 223.899 391.538C225.758 391.628 227.597 391.953 229.381 392.506H229.33V392.502Z" fill="#FE77DD"/>
<path d="M246.445 390.965C245.206 393.82 242.645 395.701 239.771 396.807C244.39 401.289 247.355 407.761 247.606 414.24C256.876 413.781 264.955 407.687 268.049 398.812C269.747 392.608 266.163 386.18 260.041 384.455C254.543 382.906 248.759 385.682 246.449 390.973V390.965H246.445Z" fill="#3AD1CA"/>
<path d="M224.66 384.325C224.817 383.29 225.111 382.278 225.534 381.325C230.754 369.58 244.378 364.349 255.962 369.639C267.547 374.933 272.708 388.745 267.488 400.49C270.018 394.581 267.347 387.714 261.519 385.145C255.802 382.627 249.15 385.184 246.511 390.91C245.248 393.753 242.915 395.965 240.029 397.047C236.017 393.063 230.781 390.588 225.193 390.027C224.805 389.988 224.417 389.961 224.024 389.945C223.919 389.945 224.024 389.749 223.926 389.749C223.926 389.62 223.711 389.678 223.726 389.549C223.836 387.765 224.15 386 224.664 384.29C224.664 384.298 224.664 384.314 224.66 384.325Z" fill="#65FBF4"/>
<path d="M222.476 389.886C222.903 389.886 223.319 389.902 223.735 389.926C224.264 377.333 234.758 367.56 247.178 368.098C259.598 368.635 269.234 379.274 268.708 391.871C268.21 403.718 258.849 413.204 247.166 413.698C247.186 414.122 247.198 414.546 247.198 414.977C247.198 415.306 247.186 415.628 247.174 415.957C260.822 415.424 271.461 403.773 270.936 389.933C270.41 376.094 258.916 365.309 245.268 365.843C232.366 366.349 222.017 376.831 221.507 389.918C221.829 389.906 222.15 389.894 222.476 389.894" fill="#0F102E"/>
<path d="M223.825 390.436C223.825 390.867 224.068 391.44 224.045 391.859C236.465 392.381 246.116 403.009 245.602 415.605C245.104 427.844 235.166 437.499 223.084 437.484C210.993 437.484 201.103 427.723 200.597 415.589C200.17 415.613 199.781 415.628 199.358 415.628C199.032 415.628 198.691 415.609 198.37 415.597C198.879 428.974 209.766 439.743 223.08 439.743C236.739 439.739 247.806 428.503 247.802 414.656C247.798 401.193 236.79 390.079 223.523 389.549C223.535 389.875 223.817 390.114 223.817 390.44" fill="#0F102E"/>
<rect x="140.811" y="511.624" width="157" height="63" rx="5" fill="#B79C74"/>
<rect x="140.811" y="504.624" width="157" height="63" rx="5" fill="#FFFCE5"/>
<path d="M153.311 550.124V525.624H160.311V546.624H174.311V550.124H153.311ZM181.311 550.124V546.624H177.811V529.124H181.311V525.624H198.811V529.124H202.311V546.624H198.811V550.124H181.311ZM184.811 546.624H195.311V529.124H184.811V546.624ZM212.811 550.124V546.624H209.311V543.124H205.811V532.624H209.311V529.124H212.811V525.624H230.311V529.124H216.311V532.624H212.811V543.124H216.311V546.624H223.311V539.624H219.811V536.124H230.311V550.124H212.811ZM237.311 550.124V546.624H244.311V529.124H237.311V525.624H258.311V529.124H251.311V546.624H258.311V550.124H237.311ZM261.811 550.124V525.624H268.811V529.124H272.311V532.624H275.811V536.124H279.311V525.624H286.311V550.124H279.311V543.124H275.811V539.624H272.311V536.124H268.811V550.124H261.811Z" fill="#FE77DD"/>
<path d="M-1.00981 13.9219L166.154 13.9219L172.1 7.55935H-1.00981V13.9219Z" fill="#C11D99"/>
<path d="M-163.219 13.9219L-1.00981 13.9219V7.55935H-169.164L-163.219 13.9219Z" fill="#C11D99"/>
<path fill-rule="evenodd" clip-rule="evenodd" d="M-169.164 7.55935L-172.136 4.37807L-175.109 1.19678L-189 89.2862H-179L-169.164 7.55935Z" fill="#D698C7"/>
<path d="M-169 89.2862L-163.219 13.9219L-169.164 7.55935L-179 89.2862H-169Z" fill="#BD319B"/>
<path fill-rule="evenodd" clip-rule="evenodd" d="M172.1 7.55935L175.072 4.37807L178.045 1.19678L191.936 89.2862H181.936L172.1 7.55935Z" fill="#D698C7"/>
<path d="M166.154 13.9219L171.936 89.2862H181.936L172.1 7.55935L166.154 13.9219Z" fill="#BD319B"/>
<path fill-rule="evenodd" clip-rule="evenodd" d="M-172.136 4.37807L-169.164 7.55935H-1.00981V4.37807H-172.136Z" fill="#D698C7"/>
<path d="M-1.00981 -6.58035e-05L-175.109 1.19678L-172.136 4.37807H-1.00981V-6.58035e-05Z" fill="#FFBDEF"/>
<path fill-rule="evenodd" clip-rule="evenodd" d="M175.072 4.37807L172.1 7.55935H-1.00981V4.37807H175.072Z" fill="#D698C7"/>
<path d="M178.045 1.19678L-1.00981 -6.58035e-05V4.37807H175.072L178.045 1.19678Z" fill="#FFBDEF"/>
</svg>
