<svg width="390" height="844" viewBox="0 0 390 844" fill="none" xmlns="http://www.w3.org/2000/svg">
<g clip-path="url(#clip0_2007_912)">
<rect width="390" height="844" fill="#0F102E"/>
<path fill-rule="evenodd" clip-rule="evenodd" d="M-96.9432 47.7679H466.627C477.601 47.7679 486.497 57.9468 486.497 70.5031V572.745C486.497 585.301 477.601 595.48 466.627 595.48H-96.9432C-107.917 595.48 -116.813 585.301 -116.813 572.745V70.5031C-116.813 57.9468 -107.917 47.7679 -96.9432 47.7679ZM-69.8484 74.6368H441.339C444.434 74.6368 447.27 75.9093 449.467 78.0221C452.228 80.676 453.983 84.6559 453.983 89.1047V554.144C453.983 557.218 453.145 560.067 451.717 562.411C449.432 566.159 445.636 568.611 441.339 568.611H-69.8484C-74.1452 568.611 -77.9414 566.159 -80.2263 562.411C-81.6548 560.067 -82.4926 557.218 -82.4926 554.144V89.1047C-82.4926 84.6559 -80.7377 80.676 -77.9768 78.0221C-75.779 75.9093 -72.9436 74.6368 -69.8484 74.6368Z" fill="#DDBC97"/>
<path d="M441.339 74.6368H-69.8484C-72.9436 74.6368 -75.779 75.9093 -77.9768 78.0221C-67.1389 92.0505 -38.7798 120.107 -12.0463 120.107H383.537C416.051 113.493 441.038 89.2947 449.467 78.0221C447.27 75.9093 444.434 74.6368 441.339 74.6368Z" fill="#B57F69"/>
<path d="M453.983 554.144V89.1047C453.983 84.6559 452.228 80.676 449.467 78.0221L409.728 133.999C414.799 140.844 417.857 149.702 417.857 159.377V483.871C417.857 532.648 440.43 556.555 451.717 562.411C453.145 560.067 453.983 557.218 453.983 554.144Z" fill="#B57F69"/>
<path d="M-69.8484 568.611H441.339C429.598 566.545 401.6 554.557 383.537 523.141H-12.0463C-20.7166 547.116 -54.1937 563.444 -69.8484 568.611Z" fill="#FAD8B8"/>
<path d="M-82.4926 89.1047V554.144C-82.4926 557.218 -81.6548 560.067 -80.2263 562.411C-68.9396 553.799 -46.3663 526.035 -46.3663 483.871V159.377C-46.3663 149.702 -43.3083 140.844 -38.2379 133.999L-77.9768 78.0221C-80.7377 80.676 -82.4926 84.6559 -82.4926 89.1047Z" fill="#FFFCE5"/>
<path d="M-38.2379 133.999C-31.9425 125.501 -22.5449 120.107 -12.0463 120.107C-38.7798 120.107 -67.1389 92.0505 -77.9768 78.0221L-38.2379 133.999Z" fill="#DCBBA3"/>
<path d="M383.537 120.107C394.035 120.107 403.433 125.501 409.728 133.999L449.467 78.0221C441.038 89.2947 416.051 113.493 383.537 120.107Z" fill="#845F50"/>
<path d="M417.857 483.871C417.857 505.559 402.491 523.141 383.537 523.141C401.6 554.557 429.598 566.545 441.339 568.611C445.636 568.611 449.432 566.159 451.717 562.411C440.43 556.555 417.857 532.648 417.857 483.871Z" fill="#DBAA96"/>
<path d="M-12.0463 523.141C-31.0007 523.141 -46.3663 505.559 -46.3663 483.871C-46.3663 526.035 -68.9396 553.799 -80.2263 562.411C-77.9414 566.159 -74.1452 568.611 -69.8484 568.611C-54.1937 563.444 -20.7166 547.116 -12.0463 523.141Z" fill="#F6E3CD"/>
<path d="M579.158 623.468C591.639 613.942 588.759 22.229 579.158 14.8191C569.557 7.40934 525.394 1.13834e-05 525.394 1.13834e-05L529.372 631.936C529.372 631.936 566.677 632.995 579.158 623.468Z" fill="#FFFCE5"/>
<path d="M514.833 1.13834e-05L518.811 631.936H529.372L525.394 1.13834e-05H514.833Z" fill="#B57F69"/>
<path d="M518.811 631.936H-85.2139C-88.5216 636.664 -92.608 646.945 -82.4926 650.252C-72.3772 653.559 319.939 651.63 514.833 650.252C519.103 649.409 525.877 644.566 518.811 631.936Z" fill="#4A2C20"/>
<path d="M-85.2139 631.936L-144.739 663.692H514.833H525.394H579.158L518.811 631.936C525.877 644.566 519.103 649.409 514.833 650.252C319.939 651.63 -72.3772 653.559 -82.4926 650.252C-92.608 646.945 -88.5216 636.664 -85.2139 631.936Z" fill="#DDBD97"/>
<path d="M-144.739 663.692V847.874H-115.936H-26.4968H-17.4653H514.833V663.692H-144.739Z" fill="#FFFCE5"/>
<path d="M579.158 847.874V663.692H525.394V847.874H552.276H579.158Z" fill="#FFFCE5"/>
<path d="M514.833 663.692V847.874H525.394V663.692H514.833Z" fill="#B57F69"/>
<path fill-rule="evenodd" clip-rule="evenodd" d="M-149.869 562.411C-156.669 411.949 -182.926 1.32807e-05 -149.869 0C-116.813 -1.32807e-05 514.833 1.13834e-05 514.833 1.13834e-05L518.811 631.936H-85.2139C-85.2139 631.936 -136.098 630.878 -144.739 623.468C-146.425 622.022 -148.221 598.891 -149.869 562.411ZM-116.813 70.5031L-149.869 562.411L-116.813 572.745C-116.813 585.301 -107.917 595.48 -96.9432 595.48H466.627C477.601 595.48 486.497 585.301 486.497 572.745V70.5031C486.497 57.9468 477.601 47.7679 466.627 47.7679H-96.9432C-107.917 47.7679 -116.813 57.9468 -116.813 70.5031Z" fill="#FFFCE5"/>
<path d="M-116.813 572.745V70.5031L-149.869 562.411L-116.813 572.745Z" fill="#4A2C20"/>
<path d="M525.394 847.874H514.833H-17.4653L-26.4968 867.986H565.072H591.639L552.276 847.874H525.394Z" fill="#4A2C20"/>
<path d="M-115.936 847.874L-146.179 867.986H-128.554H-37.3347L-26.4968 847.874H-115.936Z" fill="#4A2C20"/>
<path d="M-128.554 867.986L-146.179 942.709C-143.655 946.929 -138.594 957.946 -128.554 962.344C-123.021 964.768 -104.644 962.344 -96.9432 962.344H-56.301L-37.3347 867.986H-128.554Z" fill="#DDBD97"/>
<path fill-rule="evenodd" clip-rule="evenodd" d="M565.072 867.986H-26.4968L-45.4632 962.344H389.216C464.933 954.825 538.002 896.306 565.072 867.986ZM-23.8619 956.15L-20.3237 932.761H90.2433H94.666H157.468L157.468 956.15H92.8969H88.4742H-23.8619Z" fill="#DDBD97"/>
<path d="M529.372 962.344C541.807 962 574.956 956.351 584.941 932.375C594.926 908.4 573.927 879.115 565.072 867.986C538.002 896.306 464.933 954.825 389.216 962.344H529.372Z" fill="#F6E3CD"/>
<path d="M-26.4968 867.986H-37.3347L-56.301 962.344H-45.4632L-26.4968 867.986Z" fill="#845F50"/>
<path d="M-26.4968 847.874L-37.3347 867.986H-26.4968L-17.4653 847.874H-26.4968Z" fill="#311C13"/>
<path d="M-146.179 867.986L-159.261 953.044C-156.686 961.382 -152.687 976.83 -139.392 985.08L-128.554 962.344C-138.594 957.946 -143.655 946.929 -146.179 942.709L-128.554 867.986H-146.179Z" fill="#94754F"/>
<path d="M-96.9432 962.344C-104.644 962.344 -123.021 964.768 -128.554 962.344L-139.392 985.08C-134.014 988.416 -124.093 989.77 -116.813 990.247C-110.648 990.65 -100.212 990.927 -56.301 991.061V962.344H-96.9432Z" fill="#FFFCE5"/>
<path d="M-45.4632 962.344V991.061C50.8566 991.303 216.288 991.064 359.142 990.727L389.216 962.344H-45.4632Z" fill="#FFFCE5"/>
<path d="M529.372 990.247C531.969 990.17 534.882 989.998 538.02 989.714L529.372 962.344H389.216L359.142 990.727C423.173 990.575 482.669 990.404 529.372 990.247Z" fill="#E6D0B7"/>
<path d="M610.23 953.044L591.639 867.986H565.072C573.927 879.115 594.926 908.4 584.941 932.375C574.956 956.351 541.807 962 529.372 962.344L538.02 989.714C563.085 987.443 602.524 978.025 610.23 953.044Z" fill="#FFFCE5"/>
<path fill-rule="evenodd" clip-rule="evenodd" d="M-159.261 953.044L-199 1230H659L610.23 953.044C602.524 978.025 563.085 987.443 538.02 989.714C534.882 989.998 531.969 990.17 529.372 990.247C482.669 990.404 423.173 990.575 359.142 990.727C216.288 991.064 50.8566 991.303 -45.4632 991.061C-49.1661 991.052 -52.7802 991.072 -56.301 991.061C-100.212 990.927 -110.648 990.65 -116.813 990.247C-124.093 989.77 -134.014 988.416 -139.392 985.08C-152.687 976.83 -156.686 961.382 -159.261 953.044ZM628.041 1185.17C630.533 1191.67 630.46 1204.66 610.23 1204.66H-56.301H-167.157C-172.464 1205.96 -181.486 1203.88 -175.118 1185.17L-174.933 1183.45L-167.157 1037.04C-167.157 1020.67 -155.632 1013.32 -149.869 1011.7H-85.2139V1000.01L-45.4632 1011.7H579.158C589.515 1013.97 610.23 1023.78 610.23 1044.83L628.041 1185.17Z" fill="#F6E3CD"/>
<path d="M-175.118 1185.17C-181.486 1203.88 -172.464 1205.96 -167.157 1204.66H-56.301L-139.392 1168.6L-128.554 1153.01H-85.2139L-144.739 1141.32L-123.814 1119.88L-80.2263 1113.05L-128.554 1099.41L-108.777 1082.84H-80.2263V1069.2L-108.777 1059.45L-96.9432 1037.04H-69.8484L-93.602 1020.47H-149.869C-158.251 1020.47 -159.623 1031.52 -159.261 1037.04L-174.933 1183.45L-175.118 1185.17Z" fill="#F6E3CD"/>
<path d="M-56.301 1204.66L-37.3347 1020.47H-93.602L-69.8484 1037.04H-96.9432L-108.777 1059.45L-80.2263 1069.2V1082.84H-108.777L-128.554 1099.41L-80.2263 1113.05L-123.814 1119.88L-144.739 1141.32L-85.2139 1153.01H-128.554L-139.392 1168.6L-56.301 1204.66Z" fill="#DDBD97"/>
<path d="M-45.4632 1011.7L-85.2139 1000.01V1011.7H-45.4632Z" fill="#DDBD97"/>
<path d="M-159.261 1037.04C-159.623 1031.52 -158.251 1020.47 -149.869 1020.47H-93.602L-85.2139 1011.7H-149.869C-155.632 1013.32 -167.157 1020.67 -167.157 1037.04L-174.933 1183.45L-159.261 1037.04Z" fill="#FFFCE5"/>
<path d="M601.505 1044.83C603.628 1026.12 587.492 1020.8 579.158 1020.47H-37.3347L-56.301 1204.66H610.23C630.46 1204.66 630.533 1191.67 628.041 1185.17L601.505 1044.83Z" fill="#4A2C20"/>
<path d="M579.158 1020.47C587.492 1020.8 603.628 1026.12 601.505 1044.83L628.041 1185.17L610.23 1044.83C610.23 1023.78 589.515 1013.97 579.158 1011.7H-45.4632L-37.3347 1020.47H579.158Z" fill="#4A2C20"/>
<path d="M-45.4632 1011.7H-85.2139L-93.602 1020.47H-37.3347L-45.4632 1011.7Z" fill="#864C35"/>
<path d="M-20.3237 932.761L-23.8619 956.15H88.4742L90.2433 932.761H-20.3237Z" fill="#FCF8D8"/>
<path d="M157.468 956.15L157.468 932.761H94.666L92.8969 956.15H157.468Z" fill="#FFFCE5"/>
<path d="M90.2433 932.761L88.4742 956.15H92.8969L94.666 932.761H90.2433Z" fill="#DDBD97"/>
<path d="M418.659 722H350.53V744.303H418.659V722Z" fill="#FAD8B8"/>
<path d="M350.53 786H418.659L384.594 778.242H350.53V786Z" fill="#DDBD97"/>
<path d="M350.53 751.091V754H418.659V751.091V744.303H350.53V751.091Z" fill="#845F50"/>
<path d="M297 751.091V758.848H350.53V754V751.091H297Z" fill="#845F50"/>
<path d="M418.659 758.848H473V751.091H418.659V754V758.848Z" fill="#845F50"/>
<path d="M418.659 778.242V758.848L384.594 765.636V778.242H418.659Z" fill="#B57F69"/>
<path d="M418.659 786V778.242H384.594L418.659 786Z" fill="#B57F69"/>
<path d="M418.659 754H350.53V758.848V778.242H384.594V765.636L418.659 758.848V754Z" fill="#E0B58E"/>
<path d="M46.424 723H-23.2535V745.303H46.424V723Z" fill="#FAD8B8"/>
<path d="M-23.2535 787H46.424L11.5853 779.242H-23.2535V787Z" fill="#DDBD97"/>
<path d="M-23.2535 752.091V755H46.424V752.091V745.303H-23.2535V752.091Z" fill="#845F50"/>
<path d="M-78 752.091V759.848H-23.2535V755V752.091H-78Z" fill="#845F50"/>
<path d="M46.424 759.848H102V752.091H46.424V755V759.848Z" fill="#845F50"/>
<path d="M46.424 779.242V759.848L11.5853 766.636V779.242H46.424Z" fill="#B57F69"/>
<path d="M46.424 787V779.242H11.5853L46.424 787Z" fill="#B57F69"/>
<path d="M46.424 755H-23.2535V759.848V779.242H11.5853V766.636L46.424 759.848V755Z" fill="#E0B58E"/>
<path d="M28 700V712H89.5V700H28Z" fill="#ECE8CC"/>
<path d="M110 712V700H89.5V712H110Z" fill="#F34529"/>
<path d="M89 700.5V711.5H28.5V700.5H89ZM90 711.5V700.5H109.5V711.5H90Z" stroke="white"/>
<path d="M254.415 860.337L275.035 819.091C275.758 817.514 279.085 811.48 286.605 808.777L333.765 792H389.507L400 795.674C400 795.674 384.56 845.163 379.164 850.178C373.768 855.193 359.341 858.867 359.341 858.867L280.097 879.534C280.097 879.534 268.187 883.116 264.908 881.646C261.629 880.176 253.477 866.163 253.477 866.163C253.36 866.048 253.261 865.909 253.184 865.743C252.771 864.851 253 863.189 254.415 860.337Z" fill="#FFFCE5"/>
<path d="M253.184 865.743C252.771 864.851 253 863.189 254.415 860.337L275.035 819.091C275.758 817.514 279.085 811.48 286.605 808.777L333.765 792H389.507L400 795.674C400 795.674 384.56 845.163 379.164 850.178C373.768 855.193 359.341 858.867 359.341 858.867L280.097 879.534C280.097 879.534 268.187 883.116 264.908 881.646C261.629 880.176 253.477 866.163 253.477 866.163M253.184 865.743L253.477 866.163M253.184 865.743C253.261 865.909 253.36 866.048 253.477 866.163" stroke="black"/>
<path d="M300.391 863.584L304.109 862.401L303.142 861.018L301.011 861.81L299.152 858.854L301.217 858.263L300.391 857.08L296.673 858.263L300.391 863.584Z" fill="#55126D"/>
<path d="M319.6 849.985L323.938 856.489L329.514 854.715L328.563 853.467L325.177 854.715L322.698 851.168L325.909 849.985L324.557 848.212L319.6 849.985Z" fill="#55126D"/>
<path d="M340.668 843.482L330.134 847.029L331.993 849.985L343.766 846.438L340.668 843.482Z" fill="#FFFCE5"/>
<path d="M317.535 851.168L305.348 855.307L307.827 858.854L320.013 854.715L317.535 851.168Z" fill="#FFFCE5"/>
<path d="M325.909 849.985L322.698 851.168L325.177 854.715L328.563 853.467L325.909 849.985Z" fill="#FFFCE5"/>
<path d="M294.401 859.445L286.759 861.81L288.618 864.766L296.467 862.401L294.401 859.445Z" fill="#FFFCE5"/>
<path d="M301.217 858.263L299.152 858.854L301.011 861.81L303.142 861.018L301.217 858.263Z" fill="#FFFCE5"/>
<path d="M306.216 817.467C304.318 818.033 299.152 823.971 302.87 825.634C306.588 824.525 312.784 818.058 306.216 817.467Z" fill="#FFFCE5"/>
<path d="M342.527 807.347C339.842 809.398 335.711 814.017 340.668 816.076C344.799 813.759 350.954 808.77 342.527 807.347Z" fill="#FFFCE5"/>
<path d="M323.938 806.14C326.278 809.22 328.275 818.368 317.535 830.318L323.834 828.622C328.874 820.519 330.134 813.473 330.134 810.964L323.938 806.14Z" fill="#F8D4B3"/>
<path d="M320.013 807.416L310.925 832.097L317.535 830.318C328.275 818.368 326.278 809.22 323.938 806.14L320.013 807.416Z" fill="#95683F"/>
<path fill-rule="evenodd" clip-rule="evenodd" d="M276.225 842.891L289.238 816.285L302.25 811.555L292.955 836.978L276.225 842.891ZM346.245 823.971L355.954 795.799L367.617 795.311L358.864 820.423L346.245 823.971ZM308.447 832.764L318.98 805.567L339.429 798.547L330.134 826.927L323.834 828.622L317.535 830.318L310.925 832.097L308.447 832.764ZM298.532 826.927L302.25 818.65L306.216 817.467L312.164 815.693L308.447 823.971L302.87 825.634L298.532 826.927ZM335.711 817.467L338.809 808.599L342.527 807.347L349.343 805.051L346.245 814.511L340.668 816.076L335.711 817.467Z" fill="#FFBA15"/>
<path d="M358.864 833.431C357.511 834.647 355.948 835.599 354.3 835.796L343.766 839.122L340.668 840.101L353.061 851.067L372.27 845.255L358.864 833.431Z" fill="#EE995B"/>
<path d="M339.429 838.752L340.668 840.101L343.766 839.122L335.711 828.622H332.613L339.429 838.752Z" fill="#B14C04"/>
<path d="M355.954 795.799L346.245 823.971L358.864 820.423L367.617 795.311L355.954 795.799Z" fill="#B14C04"/>
<path d="M289.238 816.285L276.225 842.891L292.955 836.978L302.25 811.555L289.238 816.285Z" fill="#B14C04"/>
<path d="M318.98 805.567L308.447 832.764L310.925 832.097L320.013 807.416L323.938 806.14L330.134 810.964C330.134 813.473 328.874 820.519 323.834 828.622L330.134 826.927L339.429 798.547L318.98 805.567Z" fill="#B14C04"/>
<path d="M278.084 859.866L266.311 863.584C264.998 864.238 263.205 864.747 262.409 863.951L270.648 876L287.379 870.938L278.084 859.866Z" fill="#EE995B"/>
<path fill-rule="evenodd" clip-rule="evenodd" d="M276.225 858.854L278.084 859.866L287.379 870.938L353.061 851.067L340.668 840.101L339.429 838.752L276.225 858.854ZM288.618 868.314L281.802 859.866L292.336 856.489L294.401 859.445L296.467 862.401L298.532 865.358L288.618 868.314ZM307.207 862.401L301.011 853.533L315.882 848.803L317.535 851.168L320.013 854.715L322.079 857.672L307.207 862.401ZM332.613 854.715L325.177 845.255L338.189 841.117L340.668 843.482L343.766 846.438L347.484 849.985L332.613 854.715ZM323.938 856.489L319.6 849.985L324.557 848.212L325.909 849.985L328.563 853.467L329.514 854.715L323.938 856.489ZM304.109 862.401L300.391 863.584L296.673 858.263L300.391 857.08L301.217 858.263L303.142 861.018L304.109 862.401Z" fill="#FFBA15"/>
<path d="M281.802 859.866L288.618 868.314L298.532 865.358L296.467 862.401L288.618 864.766L286.759 861.81L294.401 859.445L292.336 856.489L281.802 859.866Z" fill="#B14C04"/>
<path d="M325.177 845.255L332.613 854.715L347.484 849.985L343.766 846.438L331.993 849.985L330.134 847.029L340.668 843.482L338.189 841.117L325.177 845.255Z" fill="#B14C04"/>
<path d="M301.011 853.533L307.207 862.401L322.079 857.672L320.013 854.715L307.827 858.854L305.348 855.307L317.535 851.168L315.882 848.803L301.011 853.533Z" fill="#B14C04"/>
<path fill-rule="evenodd" clip-rule="evenodd" d="M283.041 818.058L263.213 858.854C262 861.349 261.804 862.804 262.158 863.584L262.409 863.951C263.205 864.747 264.998 864.238 266.311 863.584L278.084 859.866L276.225 858.854L339.429 838.752L332.613 828.622H335.711L343.766 839.122L354.3 835.796C355.948 835.599 357.511 834.647 358.864 833.431C360.765 831.721 362.251 829.491 362.975 828.109L375.067 795L367.617 795.311L358.864 820.423L346.245 823.971L355.954 795.799L332.613 796.774L292.955 810.964C286.511 813.328 283.661 816.679 283.041 818.058ZM276.225 842.891L289.238 816.285L302.25 811.555L292.955 836.978L276.225 842.891ZM308.447 832.764L318.98 805.567L339.429 798.547L330.134 826.927L323.834 828.622L317.535 830.318L310.925 832.097L308.447 832.764ZM298.532 826.927L302.25 818.65L306.216 817.467L312.164 815.693L308.447 823.971L302.87 825.634L298.532 826.927ZM335.711 817.467L338.809 808.599L342.527 807.347L349.343 805.051L346.245 814.511L340.668 816.076L335.711 817.467Z" fill="#FFBA15"/>
<path d="M372.27 845.255L389 795H375.067L362.975 828.109C362.251 829.491 360.765 831.721 358.864 833.431L372.27 845.255Z" fill="#B14C04"/>
<path d="M372.27 845.255L389 795H375.067M372.27 845.255L358.864 833.431M372.27 845.255L353.061 851.067M358.864 833.431C360.765 831.721 362.251 829.491 362.975 828.109L375.067 795M358.864 833.431C357.511 834.647 355.948 835.599 354.3 835.796L343.766 839.122M262.158 863.584C261.804 862.804 262 861.349 263.213 858.854L283.041 818.058C283.661 816.679 286.511 813.328 292.955 810.964L332.613 796.774M262.158 863.584L262.409 863.951M262.158 863.584C262.224 863.729 262.308 863.851 262.409 863.951M278.084 859.866L266.311 863.584C264.998 864.238 263.205 864.747 262.409 863.951M278.084 859.866L276.225 858.854L339.429 838.752M278.084 859.866L287.379 870.938M339.429 838.752L340.668 840.101M339.429 838.752L332.613 828.622H335.711L343.766 839.122M340.668 840.101L353.061 851.067M340.668 840.101L343.766 839.122M353.061 851.067L287.379 870.938M287.379 870.938L270.648 876L262.409 863.951M355.954 795.799L346.245 823.971L358.864 820.423L367.617 795.311M355.954 795.799L367.617 795.311M355.954 795.799L332.613 796.774M367.617 795.311L375.067 795M292.336 856.489L281.802 859.866L288.618 868.314L298.532 865.358L296.467 862.401M292.336 856.489L296.467 862.401M292.336 856.489L294.401 859.445M325.909 849.985L324.557 848.212L319.6 849.985L323.938 856.489L329.514 854.715L328.563 853.467M325.909 849.985L322.698 851.168L325.177 854.715L328.563 853.467M325.909 849.985L328.563 853.467M301.217 858.263L300.391 857.08L296.673 858.263L300.391 863.584L304.109 862.401L303.142 861.018M301.217 858.263L299.152 858.854L301.011 861.81L303.142 861.018M301.217 858.263L303.142 861.018M294.401 859.445L286.759 861.81L288.618 864.766L296.467 862.401M294.401 859.445L296.467 862.401M317.535 851.168L315.882 848.803L301.011 853.533L307.207 862.401L322.079 857.672L320.013 854.715M317.535 851.168L305.348 855.307L307.827 858.854L320.013 854.715M317.535 851.168L320.013 854.715M340.668 843.482L338.189 841.117L325.177 845.255L332.613 854.715L347.484 849.985L343.766 846.438M340.668 843.482L330.134 847.029L331.993 849.985L343.766 846.438M340.668 843.482L343.766 846.438M310.925 832.097L308.447 832.764L318.98 805.567L339.429 798.547L330.134 826.927L323.834 828.622M310.925 832.097L320.013 807.416L323.938 806.14M310.925 832.097L317.535 830.318M338.189 801.504L323.938 806.14M323.938 806.14C326.278 809.22 328.275 818.368 317.535 830.318M323.938 806.14L330.134 810.964C330.134 813.473 328.874 820.519 323.834 828.622M317.535 830.318L323.834 828.622M306.216 817.467L312.164 815.693L308.447 823.971L302.87 825.634M306.216 817.467L302.25 818.65L298.532 826.927L302.87 825.634M306.216 817.467C304.318 818.033 299.152 823.971 302.87 825.634M306.216 817.467C312.784 818.058 306.588 824.525 302.87 825.634M342.527 807.347L349.343 805.051L346.245 814.511L340.668 816.076M342.527 807.347L338.809 808.599L335.711 817.467L340.668 816.076M342.527 807.347C339.842 809.398 335.711 814.017 340.668 816.076M342.527 807.347C350.954 808.77 344.799 813.759 340.668 816.076M332.613 796.774L375.067 795M289.238 816.285L276.225 842.891L292.955 836.978L302.25 811.555L289.238 816.285Z" stroke="black"/>
<path d="M219.906 860.642C213.335 854.722 210 797 210 797H280C280 797 226.476 866.563 219.906 860.642Z" fill="#FFFCE5" stroke="black"/>
<path d="M223.55 851L219 797H271L223.55 851Z" fill="#F34529" stroke="black"/>
</g>
<defs>
<clipPath id="clip0_2007_912">
<rect width="390" height="844" fill="white"/>
</clipPath>
</defs>
</svg>
