<svg width="430" height="932" viewBox="0 0 430 932" fill="none" xmlns="http://www.w3.org/2000/svg">
<g clip-path="url(#clip0_2735_416)">
<rect width="430" height="932" fill="white"/>
<rect width="430" height="932" fill="#0E112E"/>
<rect x="19.0283" width="90.064" height="6.00426" transform="rotate(90 19.0283 0)" fill="#2924D6"/>
<rect x="201.164" width="121.586" height="6.00426" transform="rotate(90 201.164 0)" fill="#2924D6"/>
<rect x="234.188" width="121.586" height="6.00426" transform="rotate(90 234.188 0)" fill="#2924D6"/>
<rect width="90.064" height="6.00426" transform="matrix(4.37114e-08 1 1 -4.37114e-08 410.32 0)" fill="#2924D6"/>
<rect x="19.0283" y="73.5522" width="16.5117" height="6.00426" transform="rotate(90 19.0283 73.5522)" fill="#2924D6"/>
<rect x="201.164" y="73.5522" width="48.0341" height="6.00426" transform="rotate(90 201.164 73.5522)" fill="#2924D6"/>
<rect x="234.188" y="73.5522" width="48.0341" height="6.00426" transform="rotate(90 234.188 73.5522)" fill="#2924D6"/>
<rect width="16.5117" height="6.00426" transform="matrix(4.37114e-08 1 1 -4.37114e-08 410.32 73.5522)" fill="#2924D6"/>
<rect x="22.0303" y="90.064" width="4.5032" height="3.00213" transform="rotate(90 22.0303 90.064)" fill="#2924D6"/>
<rect x="22.0303" y="90.064" width="4.5032" height="3.00213" transform="rotate(90 22.0303 90.064)" fill="#2924D6"/>
<rect width="4.5032" height="3.00213" transform="matrix(4.37114e-08 1 1 -4.37114e-08 407.317 90.064)" fill="#2924D6"/>
<rect width="4.5032" height="3.00213" transform="matrix(4.37114e-08 1 1 -4.37114e-08 407.317 90.064)" fill="#2924D6"/>
<rect x="22.0303" y="94.5674" width="99.0704" height="6.00426" fill="#2924D6"/>
<rect x="22.0303" y="94.5674" width="99.0704" height="6.00426" fill="#2924D6"/>
<rect width="99.0704" height="6.00426" transform="matrix(-1 0 0 1 407.317 94.5674)" fill="#2924D6"/>
<rect width="99.0704" height="6.00426" transform="matrix(-1 0 0 1 407.317 94.5674)" fill="#2924D6"/>
<rect x="127.104" y="100.571" width="3.00213" height="6.00426" transform="rotate(90 127.104 100.571)" fill="#2924D6"/>
<rect x="127.104" y="100.571" width="3.00213" height="6.00426" transform="rotate(90 127.104 100.571)" fill="#2924D6"/>
<rect width="3.00213" height="6.00426" transform="matrix(4.37114e-08 1 1 -4.37114e-08 302.243 100.571)" fill="#2924D6"/>
<rect width="3.00213" height="6.00426" transform="matrix(4.37114e-08 1 1 -4.37114e-08 302.243 100.571)" fill="#2924D6"/>
<rect x="133.109" y="103.574" width="18.0128" height="6.00426" transform="rotate(90 133.109 103.574)" fill="#2924D6"/>
<rect x="133.109" y="103.574" width="18.0128" height="6.00426" transform="rotate(90 133.109 103.574)" fill="#2924D6"/>
<rect width="18.0128" height="6.00426" transform="matrix(4.37114e-08 1 1 -4.37114e-08 296.239 103.574)" fill="#2924D6"/>
<rect width="18.0128" height="6.00426" transform="matrix(4.37114e-08 1 1 -4.37114e-08 296.239 103.574)" fill="#2924D6"/>
<rect x="127.104" y="121.586" width="3.00213" height="6.00426" transform="rotate(90 127.104 121.586)" fill="#2924D6"/>
<rect x="127.104" y="121.586" width="3.00213" height="6.00426" transform="rotate(90 127.104 121.586)" fill="#2924D6"/>
<rect x="205.668" y="121.586" width="4.5032" height="4.5032" transform="rotate(90 205.668 121.586)" fill="#2924D6"/>
<rect x="205.668" y="121.586" width="4.5032" height="4.5032" transform="rotate(90 205.668 121.586)" fill="#2924D6"/>
<rect x="228.184" y="121.586" width="4.5032" height="4.5032" transform="rotate(90 228.184 121.586)" fill="#2924D6"/>
<rect x="228.184" y="121.586" width="4.5032" height="4.5032" transform="rotate(90 228.184 121.586)" fill="#2924D6"/>
<rect width="3.00213" height="6.00426" transform="matrix(4.37114e-08 1 1 -4.37114e-08 302.243 121.586)" fill="#2924D6"/>
<rect width="3.00213" height="6.00426" transform="matrix(4.37114e-08 1 1 -4.37114e-08 302.243 121.586)" fill="#2924D6"/>
<rect x="22.0303" y="124.588" width="99.0704" height="6.00426" fill="#2924D6"/>
<rect x="22.0303" y="124.588" width="99.0704" height="6.00426" fill="#2924D6"/>
<rect width="99.0704" height="6.00426" transform="matrix(-1 0 0 1 407.317 124.588)" fill="#2924D6"/>
<rect width="99.0704" height="6.00426" transform="matrix(-1 0 0 1 407.317 124.588)" fill="#2924D6"/>
<rect x="205.668" y="126.089" width="18.0128" height="6.00426" fill="#2924D6"/>
<rect x="205.668" y="126.089" width="18.0128" height="6.00426" fill="#2924D6"/>
<rect x="22.0303" y="130.593" width="4.5032" height="3.00213" transform="rotate(90 22.0303 130.593)" fill="#2924D6"/>
<rect x="22.0303" y="130.593" width="4.5032" height="3.00213" transform="rotate(90 22.0303 130.593)" fill="#2924D6"/>
<rect width="4.5032" height="3.00213" transform="matrix(4.37114e-08 1 1 -4.37114e-08 407.317 130.593)" fill="#2924D6"/>
<rect width="4.5032" height="3.00213" transform="matrix(4.37114e-08 1 1 -4.37114e-08 407.317 130.593)" fill="#2924D6"/>
<rect x="19.0283" y="135.096" width="99.0704" height="6.00426" transform="rotate(90 19.0283 135.096)" fill="#2924D6"/>
<rect x="19.0283" y="135.096" width="99.0704" height="6.00426" transform="rotate(90 19.0283 135.096)" fill="#2924D6"/>
<rect width="99.0704" height="6.00426" transform="matrix(4.37114e-08 1 1 -4.37114e-08 410.32 135.096)" fill="#2924D6"/>
<rect width="99.0704" height="6.00426" transform="matrix(4.37114e-08 1 1 -4.37114e-08 410.32 135.096)" fill="#2924D6"/>
<rect width="9.0064" height="9.0064" transform="matrix(-1 0 0 1 65.0068 153)" fill="#07D6E8"/>
<rect width="9.0064" height="9.0064" transform="matrix(-1 0 0 1 256.007 153)" fill="#07D6E8"/>
<rect width="9.0064" height="9.0064" transform="matrix(-1 0 0 1 105.007 153.473)" fill="#07D6E8"/>
<rect width="9.0064" height="9.0064" transform="matrix(-1 0 0 1 144.034 153.473)" fill="#07D6E8"/>
<rect width="9.0064" height="9.0064" transform="matrix(-1 0 0 1 180.06 153.473)" fill="#07D6E8"/>
<rect width="9.0064" height="9.0064" transform="matrix(-1 0 0 1 217.587 153.473)" fill="#07D6E8"/>
<rect width="9.0064" height="9.0064" transform="matrix(-1 0 0 1 296.007 153.473)" fill="#07D6E8"/>
<rect width="9.0064" height="9.0064" transform="matrix(-1 0 0 1 335.034 153.473)" fill="#07D6E8"/>
<rect width="9.0064" height="9.0064" transform="matrix(-1 0 0 1 371.06 153.473)" fill="#07D6E8"/>
<path d="M70.63 196.6C70.63 195.5 70.845 194.53 71.275 193.69C71.705 192.85 72.33 192.195 73.15 191.725C73.97 191.255 74.965 191.02 76.135 191.02C77.295 191.02 78.285 191.255 79.105 191.725C79.935 192.195 80.565 192.85 80.995 193.69C81.425 194.53 81.64 195.5 81.64 196.6C81.64 197.7 81.425 198.67 80.995 199.51C80.565 200.35 79.935 201.005 79.105 201.475C78.285 201.945 77.295 202.18 76.135 202.18C74.965 202.18 73.97 201.95 73.15 201.49C72.33 201.02 71.705 200.365 71.275 199.525C70.845 198.685 70.63 197.71 70.63 196.6ZM73.345 196.6C73.345 197.25 73.445 197.83 73.645 198.34C73.855 198.84 74.165 199.23 74.575 199.51C74.995 199.79 75.515 199.93 76.135 199.93C76.755 199.93 77.27 199.79 77.68 199.51C78.09 199.23 78.395 198.84 78.595 198.34C78.805 197.83 78.91 197.25 78.91 196.6C78.91 195.95 78.805 195.375 78.595 194.875C78.395 194.365 78.09 193.97 77.68 193.69C77.27 193.41 76.755 193.27 76.135 193.27C75.515 193.27 74.995 193.41 74.575 193.69C74.165 193.97 73.855 194.365 73.645 194.875C73.445 195.375 73.345 195.95 73.345 196.6ZM83.4154 202V191.2H85.5454L90.9004 196.615V200.11L85.3204 194.47L86.0854 194.155V202H83.4154ZM90.0154 202V191.2H92.6704V202H90.0154ZM94.4484 196.645C94.4484 195.535 94.6834 194.56 95.1534 193.72C95.6334 192.87 96.3334 192.21 97.2534 191.74C98.1734 191.26 99.3034 191.02 100.643 191.02C101.193 191.02 101.688 191.06 102.128 191.14C102.568 191.22 102.903 191.31 103.133 191.41V193.705H102.968C102.748 193.585 102.438 193.485 102.038 193.405C101.638 193.315 101.208 193.27 100.748 193.27C99.5484 193.27 98.6484 193.56 98.0484 194.14C97.4584 194.72 97.1634 195.57 97.1634 196.69C97.1634 197.38 97.2884 197.975 97.5384 198.475C97.7884 198.965 98.1434 199.34 98.6034 199.6C99.0634 199.86 99.6084 199.99 100.238 199.99C100.538 199.99 100.793 199.96 101.003 199.9C101.213 199.84 101.398 199.735 101.558 199.585L101.063 200.98V196.48H103.508V201.58C103.118 201.76 102.638 201.905 102.068 202.015C101.508 202.125 100.888 202.18 100.208 202.18C98.9284 202.18 97.8634 201.95 97.0134 201.49C96.1634 201.03 95.5234 200.385 95.0934 199.555C94.6634 198.715 94.4484 197.745 94.4484 196.645ZM105.171 196.6C105.171 195.5 105.386 194.53 105.816 193.69C106.246 192.85 106.871 192.195 107.691 191.725C108.511 191.255 109.506 191.02 110.676 191.02C111.836 191.02 112.826 191.255 113.646 191.725C114.476 192.195 115.106 192.85 115.536 193.69C115.966 194.53 116.181 195.5 116.181 196.6C116.181 197.7 115.966 198.67 115.536 199.51C115.106 200.35 114.476 201.005 113.646 201.475C112.826 201.945 111.836 202.18 110.676 202.18C109.506 202.18 108.511 201.95 107.691 201.49C106.871 201.02 106.246 200.365 105.816 199.525C105.386 198.685 105.171 197.71 105.171 196.6ZM107.886 196.6C107.886 197.25 107.986 197.83 108.186 198.34C108.396 198.84 108.706 199.23 109.116 199.51C109.536 199.79 110.056 199.93 110.676 199.93C111.296 199.93 111.811 199.79 112.221 199.51C112.631 199.23 112.936 198.84 113.136 198.34C113.346 197.83 113.451 197.25 113.451 196.6C113.451 195.95 113.346 195.375 113.136 194.875C112.936 194.365 112.631 193.97 112.221 193.69C111.811 193.41 111.296 193.27 110.676 193.27C110.056 193.27 109.536 193.41 109.116 193.69C108.706 193.97 108.396 194.365 108.186 194.875C107.986 195.375 107.886 195.95 107.886 196.6ZM117.956 191.2H120.626V202H117.956V191.2ZM122.908 202V191.2H125.038L130.393 196.615V200.11L124.813 194.47L125.578 194.155V202H122.908ZM129.508 202V191.2H132.163V202H129.508ZM133.941 196.645C133.941 195.535 134.176 194.56 134.646 193.72C135.126 192.87 135.826 192.21 136.746 191.74C137.666 191.26 138.796 191.02 140.136 191.02C140.686 191.02 141.181 191.06 141.621 191.14C142.061 191.22 142.396 191.31 142.626 191.41V193.705H142.461C142.241 193.585 141.931 193.485 141.531 193.405C141.131 193.315 140.701 193.27 140.241 193.27C139.041 193.27 138.141 193.56 137.541 194.14C136.951 194.72 136.656 195.57 136.656 196.69C136.656 197.38 136.781 197.975 137.031 198.475C137.281 198.965 137.636 199.34 138.096 199.6C138.556 199.86 139.101 199.99 139.731 199.99C140.031 199.99 140.286 199.96 140.496 199.9C140.706 199.84 140.891 199.735 141.051 199.585L140.556 200.98V196.48H143.001V201.58C142.611 201.76 142.131 201.905 141.561 202.015C141.001 202.125 140.381 202.18 139.701 202.18C138.421 202.18 137.356 201.95 136.506 201.49C135.656 201.03 135.016 200.385 134.586 199.555C134.156 198.715 133.941 197.745 133.941 196.645Z" fill="#0A0F7E"/>
<path d="M66 186H147V189H66V186Z" fill="#FFD668"/>
<path d="M147 186H150V189H147V186Z" fill="#FFD668"/>
<path d="M69 183H147V186H69V183Z" fill="#FFD668"/>
<path d="M63 189H150V209H63V189Z" fill="#FFD668"/>
<path d="M150 189H153V209H150V189Z" fill="#FFD668"/>
<rect x="45" y="214" width="336" height="128" fill="#FFFBD5"/>
<path d="M51 347H387V350H51V347Z" fill="#FFD668"/>
<path d="M387 347H390V350H387V347Z" fill="#FFD668"/>
<path d="M387 223H390V347H387V223Z" fill="#FFD668"/>
<path d="M384 220H387V347H384V220Z" fill="#FFD668"/>
<path d="M381 337H384V347H381V337Z" fill="#FFD668"/>
<path d="M378 337H381V347H378V337Z" fill="#FFD668"/>
<path d="M376 337H379V347H376V337Z" fill="#FFD668"/>
<path d="M390 226H393V347H390V226Z" fill="#FFD668"/>
<path d="M54 350H387V353H54V350Z" fill="#FFD668"/>
<path d="M45 214H50V219H45V214Z" fill="#FF81D2"/>
<path d="M45 337H50V342H45V337Z" fill="#FF81D2"/>
<path d="M40 219H45V337H40V219Z" fill="#FF81D2"/>
<path d="M381 219H386V337H381V219Z" fill="#FF81D2"/>
<path d="M376 214H381V219H376V214Z" fill="#FF81D2"/>
<path d="M376 332H381V342H376V332Z" fill="#FF81D2"/>
<path d="M50 209H376V214H50V209Z" fill="#FF81D2"/>
<path d="M50 342H376V347H50V342Z" fill="#FF81D2"/>
<rect x="52" y="218" width="320" height="15.6614" rx="3" fill="url(#paint0_linear_2735_416)"/>
<rect x="13.0234" y="234.167" width="4.5032" height="3.00213" transform="rotate(90 13.0234 234.167)" fill="#2924D6"/>
<rect x="13.0234" y="234.167" width="4.5032" height="3.00213" transform="rotate(90 13.0234 234.167)" fill="#2924D6"/>
<rect width="4.5032" height="3.00213" transform="matrix(4.37114e-08 1 1 -4.37114e-08 416.324 234.167)" fill="#2924D6"/>
<rect width="4.5032" height="3.00213" transform="matrix(4.37114e-08 1 1 -4.37114e-08 416.324 234.167)" fill="#2924D6"/>
<rect x="-10.9932" y="238.669" width="21.0149" height="6.00426" fill="#2924D6"/>
<rect x="-10.9932" y="238.669" width="21.0149" height="6.00426" fill="#2924D6"/>
<rect width="21.0149" height="6.00426" transform="matrix(-1 0 0 1 440.342 238.669)" fill="#2924D6"/>
<rect width="21.0149" height="6.00426" transform="matrix(-1 0 0 1 440.342 238.669)" fill="#2924D6"/>
<rect x="-9.49219" y="318.226" width="18.0128" height="6.00426" fill="#2924D6"/>
<rect x="-9.49219" y="318.226" width="18.0128" height="6.00426" fill="#2924D6"/>
<rect x="420.827" y="318.226" width="18.0128" height="6.00426" fill="#2924D6"/>
<rect x="13.0234" y="324.23" width="4.5032" height="4.5032" transform="rotate(90 13.0234 324.23)" fill="#2924D6"/>
<rect x="13.0234" y="324.23" width="4.5032" height="4.5032" transform="rotate(90 13.0234 324.23)" fill="#2924D6"/>
<rect x="420.827" y="324.23" width="4.5032" height="4.5032" transform="rotate(90 420.827 324.23)" fill="#2924D6"/>
<rect x="420.827" y="324.23" width="4.5032" height="4.5032" transform="rotate(90 420.827 324.23)" fill="#2924D6"/>
<rect x="19.0283" y="328.733" width="130.593" height="6.00426" transform="rotate(90 19.0283 328.733)" fill="#2924D6"/>
<rect x="19.0283" y="328.733" width="130.593" height="6.00426" transform="rotate(90 19.0283 328.733)" fill="#2924D6"/>
<rect x="416.324" y="328.733" width="130.593" height="6.00426" transform="rotate(90 416.324 328.733)" fill="#2924D6"/>
<rect x="416.324" y="328.733" width="130.593" height="6.00426" transform="rotate(90 416.324 328.733)" fill="#2924D6"/>
<rect width="9.0064" height="9.0064" transform="matrix(-1 0 0 1 61.0068 389)" fill="#07D6E8"/>
<rect width="9.0064" height="9.0064" transform="matrix(-1 0 0 1 252.007 389)" fill="#07D6E8"/>
<rect width="9.0064" height="9.0064" transform="matrix(-1 0 0 1 101.007 389.473)" fill="#07D6E8"/>
<rect width="9.0064" height="9.0064" transform="matrix(-1 0 0 1 140.034 389.473)" fill="#07D6E8"/>
<rect width="9.0064" height="9.0064" transform="matrix(-1 0 0 1 176.06 389.473)" fill="#07D6E8"/>
<rect width="9.0064" height="9.0064" transform="matrix(-1 0 0 1 213.587 389.473)" fill="#07D6E8"/>
<rect width="9.0064" height="9.0064" transform="matrix(-1 0 0 1 292.007 389.473)" fill="#07D6E8"/>
<rect width="9.0064" height="9.0064" transform="matrix(-1 0 0 1 331.034 389.473)" fill="#07D6E8"/>
<rect width="9.0064" height="9.0064" transform="matrix(-1 0 0 1 367.06 389.473)" fill="#07D6E8"/>
<rect x="93.0879" y="430.806" width="243.173" height="6.00425" fill="#2924D6"/>
<rect x="93.0879" y="430.806" width="243.173" height="6.00425" fill="#2924D6"/>
<rect x="88.584" y="436.81" width="4.5032" height="4.5032" fill="#2924D6"/>
<rect x="88.584" y="436.81" width="4.5032" height="4.5032" fill="#2924D6"/>
<rect x="336.26" y="436.81" width="4.5032" height="4.5032" fill="#2924D6"/>
<rect x="336.26" y="436.81" width="4.5032" height="4.5032" fill="#2924D6"/>
<rect x="82.5801" y="459.326" width="18.0128" height="6.00426" transform="rotate(-90 82.5801 459.326)" fill="#2924D6"/>
<rect x="82.5801" y="459.326" width="18.0128" height="6.00426" transform="rotate(-90 82.5801 459.326)" fill="#2924D6"/>
<rect x="340.764" y="459.326" width="18.0128" height="6.00426" transform="rotate(-90 340.764 459.326)" fill="#2924D6"/>
<rect x="340.764" y="459.326" width="18.0128" height="6.00426" transform="rotate(-90 340.764 459.326)" fill="#2924D6"/>
<rect x="13.0195" y="459" width="4.5032" height="4.5032" transform="rotate(90 13.0195 459)" fill="#2924D6"/>
<rect x="13.0195" y="459" width="4.5032" height="4.5032" transform="rotate(90 13.0195 459)" fill="#2924D6"/>
<rect x="88.584" y="459.326" width="4.5032" height="4.5032" fill="#2924D6"/>
<rect x="88.584" y="459.326" width="4.5032" height="4.5032" fill="#2924D6"/>
<rect x="336.26" y="459.326" width="4.5032" height="4.5032" fill="#2924D6"/>
<rect x="336.26" y="459.326" width="4.5032" height="4.5032" fill="#2924D6"/>
<rect x="420.827" y="459.326" width="4.5032" height="4.5032" transform="rotate(90 420.827 459.326)" fill="#2924D6"/>
<rect x="420.827" y="459.326" width="4.5032" height="4.5032" transform="rotate(90 420.827 459.326)" fill="#2924D6"/>
<rect x="-9.49707" y="463.503" width="18.0128" height="6.00426" fill="#2924D6"/>
<rect x="-9.49707" y="463.503" width="18.0128" height="6.00426" fill="#2924D6"/>
<rect x="93.0879" y="463.83" width="99.0704" height="6.00426" fill="#2924D6"/>
<rect x="93.0879" y="463.83" width="99.0704" height="6.00426" fill="#2924D6"/>
<rect x="237.189" y="463.83" width="99.0704" height="6.00426" fill="#2924D6"/>
<rect x="237.189" y="463.83" width="99.0704" height="6.00426" fill="#2924D6"/>
<rect x="420.827" y="463.83" width="18.0128" height="6.00426" fill="#2924D6"/>
<rect x="420.827" y="463.83" width="18.0128" height="6.00426" fill="#2924D6"/>
<rect x="192.158" y="469.833" width="4.5032" height="4.5032" fill="#2924D6"/>
<rect x="192.158" y="469.833" width="4.5032" height="4.5032" fill="#2924D6"/>
<rect x="232.687" y="469.833" width="4.5032" height="4.5032" fill="#2924D6"/>
<rect x="232.687" y="469.833" width="4.5032" height="4.5032" fill="#2924D6"/>
<rect x="233.004" y="474" width="99.0704" height="6.00426" transform="rotate(90 233.004 474)" fill="#2924D6"/>
<rect x="202.665" y="474.337" width="99.0704" height="6.00426" transform="rotate(90 202.665 474.337)" fill="#2924D6"/>
<rect x="202.665" y="474.337" width="99.0704" height="6.00426" transform="rotate(90 202.665 474.337)" fill="#2924D6"/>
<rect width="9.0064" height="9.0064" transform="matrix(-1 0 0 1 18.0068 493.527)" fill="#07D6E8"/>
<rect width="9.0064" height="9.0064" transform="matrix(-1 0 0 1 18.0068 493.527)" fill="#07D6E8"/>
<rect width="9.0064" height="9.0064" transform="matrix(-1 0 0 1 268.007 493.527)" fill="#07D6E8"/>
<rect width="9.0064" height="9.0064" transform="matrix(-1 0 0 1 268.007 493.527)" fill="#07D6E8"/>
<rect width="9.0064" height="9.0064" transform="matrix(-1 0 0 1 58.0068 494)" fill="#07D6E8"/>
<rect width="9.0064" height="9.0064" transform="matrix(-1 0 0 1 58.0068 494)" fill="#07D6E8"/>
<rect width="9.0064" height="9.0064" transform="matrix(-1 0 0 1 97.0342 494)" fill="#07D6E8"/>
<rect width="9.0064" height="9.0064" transform="matrix(-1 0 0 1 97.0342 494)" fill="#07D6E8"/>
<rect width="9.0064" height="9.0064" transform="matrix(-1 0 0 1 133.06 494)" fill="#07D6E8"/>
<rect width="9.0064" height="9.0064" transform="matrix(-1 0 0 1 133.06 494)" fill="#07D6E8"/>
<rect width="9.0064" height="9.0064" transform="matrix(-1 0 0 1 170.587 494)" fill="#07D6E8"/>
<rect width="9.0064" height="9.0064" transform="matrix(-1 0 0 1 170.587 494)" fill="#07D6E8"/>
<rect width="9.0064" height="9.0064" transform="matrix(-1 0 0 1 308.007 494)" fill="#07D6E8"/>
<rect width="9.0064" height="9.0064" transform="matrix(-1 0 0 1 308.007 494)" fill="#07D6E8"/>
<rect width="9.0064" height="9.0064" transform="matrix(-1 0 0 1 347.034 494)" fill="#07D6E8"/>
<rect width="9.0064" height="9.0064" transform="matrix(-1 0 0 1 347.034 494)" fill="#07D6E8"/>
<rect width="9.0064" height="9.0064" transform="matrix(-1 0 0 1 383.06 494)" fill="#07D6E8"/>
<rect width="9.0064" height="9.0064" transform="matrix(-1 0 0 1 383.06 494)" fill="#07D6E8"/>
<rect width="9.0064" height="9.0064" transform="matrix(-1 0 0 1 420.587 494)" fill="#07D6E8"/>
<rect width="9.0064" height="9.0064" transform="matrix(-1 0 0 1 420.587 494)" fill="#07D6E8"/>
<rect width="187.633" height="6.00426" transform="matrix(-1 0 0 1 507.648 541.509)" fill="#2924D6"/>
<rect width="169.62" height="6.00426" transform="matrix(-1 0 0 1 489.636 658.593)" fill="#2924D6"/>
<rect width="172.623" height="6.00426" transform="matrix(-1 0 0 1 483.632 673.604)" fill="#2924D6"/>
<rect width="60.0426" height="6.00426" transform="matrix(-1 0 0 1 483.632 865.74)" fill="#2924D6"/>
<rect width="60.0426" height="6.00426" transform="matrix(-1 0 0 1 483.632 898.763)" fill="#2924D6"/>
<rect width="196.64" height="6.00426" transform="matrix(-1 0 0 1 507.648 528)" fill="#2924D6"/>
<rect width="130.593" height="6.00426" transform="matrix(4.37114e-08 1 1 -4.37114e-08 299 538.507)" fill="#2924D6"/>
<rect width="18.0128" height="6.00426" transform="matrix(4.37114e-08 1 1 -4.37114e-08 411.58 876.247)" fill="#2924D6"/>
<rect width="111.079" height="6.00426" transform="matrix(4.37114e-08 1 1 -4.37114e-08 314.011 547.514)" fill="#2924D6"/>
<rect width="4.5032" height="6.00426" transform="matrix(4.37114e-08 1 1 -4.37114e-08 305.005 534.004)" fill="#2924D6"/>
<rect width="4.5032" height="6.00426" transform="matrix(4.37114e-08 1 1 -4.37114e-08 305.005 669.1)" fill="#2924D6"/>
<rect width="187.633" height="6.00426" transform="matrix(-1 0 0 1 507.648 541.509)" fill="#2924D6"/>
<rect width="169.62" height="6.00426" transform="matrix(-1 0 0 1 489.636 658.593)" fill="#2924D6"/>
<rect width="6.00426" height="4.5032" transform="matrix(-1 0 0 1 423.589 871.744)" fill="#2924D6"/>
<rect width="6.00426" height="4.5032" transform="matrix(-1 0 0 1 423.589 894.26)" fill="#2924D6"/>
<rect width="172.623" height="6.00426" transform="matrix(-1 0 0 1 483.632 673.604)" fill="#2924D6"/>
<rect width="60.0426" height="6.00426" transform="matrix(-1 0 0 1 483.632 865.74)" fill="#2924D6"/>
<rect width="60.0426" height="6.00426" transform="matrix(-1 0 0 1 483.632 898.763)" fill="#2924D6"/>
<rect width="196.64" height="6.00426" transform="matrix(-1 0 0 1 507.648 528)" fill="#2924D6"/>
<rect width="9.0064" height="9.0064" transform="matrix(-1 0 0 1 171.007 529.552)" fill="#07D6E8"/>
<rect width="9.0064" height="9.0064" transform="matrix(-1 0 0 1 268.007 529.552)" fill="#07D6E8"/>
<rect width="9.0064" height="9.0064" transform="matrix(-1 0 0 1 268.007 529.552)" fill="#07D6E8"/>
<rect x="-78" y="533" width="196.64" height="6.00426" fill="#2924D6"/>
<rect x="-78" y="533" width="196.64" height="6.00426" fill="#2924D6"/>
<rect x="124.644" y="539.004" width="4.5032" height="6.00426" transform="rotate(90 124.644 539.004)" fill="#2924D6"/>
<rect x="124.644" y="539.004" width="4.5032" height="6.00426" transform="rotate(90 124.644 539.004)" fill="#2924D6"/>
<rect x="130.648" y="543.507" width="130.593" height="6.00426" transform="rotate(90 130.648 543.507)" fill="#2924D6"/>
<rect x="130.648" y="543.507" width="130.593" height="6.00426" transform="rotate(90 130.648 543.507)" fill="#2924D6"/>
<rect x="-78" y="546.509" width="187.633" height="6.00426" fill="#2924D6"/>
<rect x="-78" y="546.509" width="187.633" height="6.00426" fill="#2924D6"/>
<rect x="115.638" y="552.514" width="111.079" height="6.00426" transform="rotate(90 115.638 552.514)" fill="#2924D6"/>
<rect x="115.638" y="552.514" width="111.079" height="6.00426" transform="rotate(90 115.638 552.514)" fill="#2924D6"/>
<rect width="9.0064" height="9.0064" transform="matrix(-1 0 0 1 171.007 568.58)" fill="#07D6E8"/>
<rect width="9.0064" height="9.0064" transform="matrix(-1 0 0 1 268.007 568.58)" fill="#07D6E8"/>
<rect width="9.0064" height="9.0064" transform="matrix(-1 0 0 1 268.007 568.58)" fill="#07D6E8"/>
<rect x="202.665" y="573.407" width="4.5032" height="4.5032" fill="#2924D6"/>
<rect x="202.665" y="573.407" width="4.5032" height="4.5032" fill="#2924D6"/>
<rect x="222.18" y="573.407" width="4.5032" height="4.5032" fill="#2924D6"/>
<rect x="222.18" y="573.407" width="4.5032" height="4.5032" fill="#2924D6"/>
<rect x="207.169" y="577.911" width="15.0107" height="6.00426" fill="#2924D6"/>
<rect x="207.169" y="577.911" width="15.0107" height="6.00426" fill="#2924D6"/>
<rect width="9.0064" height="9.0064" transform="matrix(-1 0 0 1 171.007 604.606)" fill="#07D6E8"/>
<rect width="9.0064" height="9.0064" transform="matrix(-1 0 0 1 268.007 604.606)" fill="#07D6E8"/>
<rect width="9.0064" height="9.0064" transform="matrix(-1 0 0 1 268.007 604.606)" fill="#07D6E8"/>
<rect width="9.0064" height="9.0064" transform="matrix(-1 0 0 1 171.007 643.633)" fill="#07D6E8"/>
<rect width="9.0064" height="9.0064" transform="matrix(-1 0 0 1 268.007 643.633)" fill="#07D6E8"/>
<rect width="9.0064" height="9.0064" transform="matrix(-1 0 0 1 268.007 643.633)" fill="#07D6E8"/>
<rect x="-59.9873" y="663.593" width="169.62" height="6.00426" fill="#2924D6"/>
<rect x="124.644" y="674.1" width="4.5032" height="6.00426" transform="rotate(90 124.644 674.1)" fill="#2924D6"/>
<rect x="124.644" y="674.1" width="4.5032" height="6.00426" transform="rotate(90 124.644 674.1)" fill="#2924D6"/>
<rect x="-53.9834" y="678.604" width="172.623" height="6.00426" fill="#2924D6"/>
<rect width="9.0064" height="9.0064" transform="matrix(-1 0 0 1 171.007 681.16)" fill="#07D6E8"/>
<rect width="9.0064" height="9.0064" transform="matrix(-1 0 0 1 268.007 681.16)" fill="#07D6E8"/>
<rect width="9.0064" height="9.0064" transform="matrix(-1 0 0 1 268.007 681.16)" fill="#07D6E8"/>
<rect width="9.0064" height="9.0064" transform="matrix(-1 0 0 1 21.0068 719)" fill="#07D6E8"/>
<rect width="9.0064" height="9.0064" transform="matrix(-1 0 0 1 60.0342 719)" fill="#07D6E8"/>
<rect width="9.0064" height="9.0064" transform="matrix(-1 0 0 1 96.0596 719)" fill="#07D6E8"/>
<rect width="9.0064" height="9.0064" transform="matrix(-1 0 0 1 133.587 719)" fill="#07D6E8"/>
<rect width="9.0064" height="9.0064" transform="matrix(-1 0 0 1 171.061 719)" fill="#07D6E8"/>
<rect width="9.0064" height="9.0064" transform="matrix(-1 0 0 1 268.061 719)" fill="#07D6E8"/>
<rect width="9.0064" height="9.0064" transform="matrix(-1 0 0 1 268.061 719)" fill="#07D6E8"/>
<rect width="9.0064" height="9.0064" transform="matrix(-1 0 0 1 306.007 719)" fill="#07D6E8"/>
<rect width="9.0064" height="9.0064" transform="matrix(-1 0 0 1 345.034 719)" fill="#07D6E8"/>
<rect width="9.0064" height="9.0064" transform="matrix(-1 0 0 1 381.06 719)" fill="#07D6E8"/>
<rect width="9.0064" height="9.0064" transform="matrix(-1 0 0 1 418.587 719)" fill="#07D6E8"/>
<rect width="18.0128" height="6.00426" transform="matrix(4.37114e-08 1 1 -4.37114e-08 412.079 768.508)" fill="#2924D6"/>
<rect width="97.5693" height="6.00426" transform="matrix(4.37114e-08 1 1 -4.37114e-08 335.525 801.531)" fill="#2924D6"/>
<rect width="130.593" height="6.00426" transform="matrix(4.37114e-08 1 1 -4.37114e-08 301 768.508)" fill="#2924D6"/>
<rect width="6.00426" height="4.5032" transform="matrix(-1 0 0 1 412.079 764.004)" fill="#2924D6"/>
<rect width="6.00426" height="4.5032" transform="matrix(-1 0 0 1 412.079 786.521)" fill="#2924D6"/>
<rect width="4.5032" height="4.5032" transform="matrix(-1 0 0 1 346.032 797.028)" fill="#2924D6"/>
<rect width="6.00426" height="4.5032" transform="matrix(-1 0 0 1 313.009 764.004)" fill="#2924D6"/>
<rect width="6.00426" height="4.5032" transform="matrix(-1 0 0 1 335.525 899.101)" fill="#2924D6"/>
<rect width="6.00426" height="4.5032" transform="matrix(-1 0 0 1 313.009 899.101)" fill="#2924D6"/>
<rect width="93.0661" height="6.00426" transform="matrix(-1 0 0 1 406.075 758)" fill="#2924D6"/>
<rect width="60.0426" height="6.00426" transform="matrix(-1 0 0 1 406.075 791.023)" fill="#2924D6"/>
<rect width="16.5117" height="6.00426" transform="matrix(-1 0 0 1 329.521 903.604)" fill="#2924D6"/>
<rect x="25.5732" y="758.16" width="93.0661" height="6.00426" fill="#2924D6"/>
<rect x="25.5732" y="758.16" width="93.0661" height="6.00426" fill="#2924D6"/>
<rect x="25.5732" y="758.16" width="93.0661" height="6.00426" fill="#2924D6"/>
<rect x="25.5732" y="758.16" width="93.0661" height="6.00426" fill="#2924D6"/>
<rect x="19.5693" y="764.164" width="6.00426" height="4.5032" fill="#2924D6"/>
<rect x="118.64" y="764.164" width="6.00426" height="4.5032" fill="#2924D6"/>
<rect x="118.64" y="764.164" width="6.00426" height="4.5032" fill="#2924D6"/>
<rect x="118.64" y="764.164" width="6.00426" height="4.5032" fill="#2924D6"/>
<rect x="118.64" y="764.164" width="6.00426" height="4.5032" fill="#2924D6"/>
<rect x="19.5693" y="768.667" width="18.0128" height="6.00426" transform="rotate(90 19.5693 768.667)" fill="#2924D6"/>
<rect x="130.648" y="768.667" width="130.593" height="6.00426" transform="rotate(90 130.648 768.667)" fill="#2924D6"/>
<rect x="130.648" y="768.667" width="130.593" height="6.00426" transform="rotate(90 130.648 768.667)" fill="#2924D6"/>
<rect x="130.648" y="768.667" width="130.593" height="6.00426" transform="rotate(90 130.648 768.667)" fill="#2924D6"/>
<rect x="130.648" y="768.667" width="130.593" height="6.00426" transform="rotate(90 130.648 768.667)" fill="#2924D6"/>
<rect x="19.5693" y="786.68" width="6.00426" height="4.5032" fill="#2924D6"/>
<rect x="25.5732" y="791.183" width="60.0426" height="6.00426" fill="#2924D6"/>
<rect x="25.5732" y="791.183" width="60.0426" height="6.00426" fill="#2924D6"/>
<rect x="25.5732" y="791.183" width="60.0426" height="6.00426" fill="#2924D6"/>
<rect x="25.5732" y="791.183" width="60.0426" height="6.00426" fill="#2924D6"/>
<rect x="85.6162" y="797.188" width="4.5032" height="4.5032" fill="#2924D6"/>
<rect x="85.6162" y="797.188" width="4.5032" height="4.5032" fill="#2924D6"/>
<rect x="85.6162" y="797.188" width="4.5032" height="4.5032" fill="#2924D6"/>
<rect x="85.6162" y="797.188" width="4.5032" height="4.5032" fill="#2924D6"/>
<rect x="96.123" y="801.691" width="97.5693" height="6.00426" transform="rotate(90 96.123 801.691)" fill="#2924D6"/>
<rect x="96.123" y="801.691" width="97.5693" height="6.00426" transform="rotate(90 96.123 801.691)" fill="#2924D6"/>
<rect x="96.123" y="801.691" width="97.5693" height="6.00426" transform="rotate(90 96.123 801.691)" fill="#2924D6"/>
<rect x="96.123" y="801.691" width="97.5693" height="6.00426" transform="rotate(90 96.123 801.691)" fill="#2924D6"/>
<rect x="204.507" y="809" width="18.0128" height="6.00426" fill="#2924D6"/>
<rect x="204.507" y="809" width="18.0128" height="6.00426" fill="#2924D6"/>
<rect x="204.507" y="815.004" width="4.5032" height="4.5032" transform="rotate(90 204.507 815.004)" fill="#2924D6"/>
<rect x="204.507" y="815.004" width="4.5032" height="4.5032" transform="rotate(90 204.507 815.004)" fill="#2924D6"/>
<rect x="227.023" y="815.004" width="4.5032" height="4.5032" transform="rotate(90 227.023 815.004)" fill="#2924D6"/>
<rect x="227.023" y="815.004" width="4.5032" height="4.5032" transform="rotate(90 227.023 815.004)" fill="#2924D6"/>
<rect x="200.004" y="819.507" width="130.593" height="6.00426" transform="rotate(90 200.004 819.507)" fill="#2924D6"/>
<rect x="200.004" y="819.507" width="130.593" height="6.00426" transform="rotate(90 200.004 819.507)" fill="#2924D6"/>
<rect x="233.027" y="819.507" width="130.593" height="6.00426" transform="rotate(90 233.027 819.507)" fill="#2924D6"/>
<rect x="233.027" y="819.507" width="130.593" height="6.00426" transform="rotate(90 233.027 819.507)" fill="#2924D6"/>
<rect x="-53.9834" y="870.74" width="60.0426" height="6.00426" fill="#2924D6"/>
<rect x="-53.9834" y="870.74" width="60.0426" height="6.00426" fill="#2924D6"/>
<rect x="6.05957" y="876.744" width="6.00426" height="4.5032" fill="#2924D6"/>
<rect x="18.0684" y="881.247" width="18.0128" height="6.00426" transform="rotate(90 18.0684 881.247)" fill="#2924D6"/>
<rect x="6.05957" y="899.26" width="6.00426" height="4.5032" fill="#2924D6"/>
<rect x="96.123" y="899.26" width="6.00426" height="4.5032" fill="#2924D6"/>
<rect x="96.123" y="899.26" width="6.00426" height="4.5032" fill="#2924D6"/>
<rect x="96.123" y="899.26" width="6.00426" height="4.5032" fill="#2924D6"/>
<rect x="96.123" y="899.26" width="6.00426" height="4.5032" fill="#2924D6"/>
<rect x="118.64" y="899.26" width="6.00426" height="4.5032" fill="#2924D6"/>
<rect x="118.64" y="899.26" width="6.00426" height="4.5032" fill="#2924D6"/>
<rect x="118.64" y="899.26" width="6.00426" height="4.5032" fill="#2924D6"/>
<rect x="118.64" y="899.26" width="6.00426" height="4.5032" fill="#2924D6"/>
<rect x="-53.9834" y="903.763" width="60.0426" height="6.00426" fill="#2924D6"/>
<rect x="-53.9834" y="903.763" width="60.0426" height="6.00426" fill="#2924D6"/>
<rect x="102.128" y="903.763" width="16.5117" height="6.00426" fill="#2924D6"/>
<rect x="102.128" y="903.763" width="16.5117" height="6.00426" fill="#2924D6"/>
<rect x="102.128" y="903.763" width="16.5117" height="6.00426" fill="#2924D6"/>
<rect x="102.128" y="903.763" width="16.5117" height="6.00426" fill="#2924D6"/>
<rect x="12" y="825" width="9.0064" height="9.0064" fill="#07D6E8"/>
<rect x="49.5273" y="825" width="9.0064" height="9.0064" fill="#07D6E8"/>
<rect width="9.0064" height="9.0064" transform="matrix(-1 0 0 1 381.06 829.71)" fill="#07D6E8"/>
<rect width="9.0064" height="9.0064" transform="matrix(-1 0 0 1 418.587 829.71)" fill="#07D6E8"/>
<rect x="49.5273" y="862.527" width="9.0064" height="9.0064" fill="#07D6E8"/>
<rect width="9.0064" height="9.0064" transform="matrix(-1 0 0 1 381.06 867.237)" fill="#07D6E8"/>
<rect x="49.5273" y="900.053" width="9.0064" height="9.0064" fill="#07D6E8"/>
<rect width="9.0064" height="9.0064" transform="matrix(-1 0 0 1 381.06 904.763)" fill="#07D6E8"/>
<rect width="430" height="932" fill="#0E112E"/>
<rect x="19.0283" width="90.064" height="6.00426" transform="rotate(90 19.0283 0)" fill="#2924D6"/>
<rect x="201.164" width="121.586" height="6.00426" transform="rotate(90 201.164 0)" fill="#2924D6"/>
<rect x="234.188" width="121.586" height="6.00426" transform="rotate(90 234.188 0)" fill="#2924D6"/>
<rect width="90.064" height="6.00426" transform="matrix(4.37114e-08 1 1 -4.37114e-08 410.32 0)" fill="#2924D6"/>
<rect x="19.0283" y="73.5522" width="16.5117" height="6.00426" transform="rotate(90 19.0283 73.5522)" fill="#2924D6"/>
<rect x="201.164" y="73.5522" width="48.0341" height="6.00426" transform="rotate(90 201.164 73.5522)" fill="#2924D6"/>
<rect x="234.188" y="73.5522" width="48.0341" height="6.00426" transform="rotate(90 234.188 73.5522)" fill="#2924D6"/>
<rect width="16.5117" height="6.00426" transform="matrix(4.37114e-08 1 1 -4.37114e-08 410.32 73.5522)" fill="#2924D6"/>
<rect x="22.0303" y="90.064" width="4.5032" height="3.00213" transform="rotate(90 22.0303 90.064)" fill="#2924D6"/>
<rect x="22.0303" y="90.064" width="4.5032" height="3.00213" transform="rotate(90 22.0303 90.064)" fill="#2924D6"/>
<rect width="4.5032" height="3.00213" transform="matrix(4.37114e-08 1 1 -4.37114e-08 407.317 90.064)" fill="#2924D6"/>
<rect width="4.5032" height="3.00213" transform="matrix(4.37114e-08 1 1 -4.37114e-08 407.317 90.064)" fill="#2924D6"/>
<rect x="22.0303" y="94.5674" width="99.0704" height="6.00426" fill="#2924D6"/>
<rect x="22.0303" y="94.5674" width="99.0704" height="6.00426" fill="#2924D6"/>
<rect width="99.0704" height="6.00426" transform="matrix(-1 0 0 1 407.317 94.5674)" fill="#2924D6"/>
<rect width="99.0704" height="6.00426" transform="matrix(-1 0 0 1 407.317 94.5674)" fill="#2924D6"/>
<rect x="127.104" y="100.571" width="3.00213" height="6.00426" transform="rotate(90 127.104 100.571)" fill="#2924D6"/>
<rect x="127.104" y="100.571" width="3.00213" height="6.00426" transform="rotate(90 127.104 100.571)" fill="#2924D6"/>
<rect width="3.00213" height="6.00426" transform="matrix(4.37114e-08 1 1 -4.37114e-08 302.243 100.571)" fill="#2924D6"/>
<rect width="3.00213" height="6.00426" transform="matrix(4.37114e-08 1 1 -4.37114e-08 302.243 100.571)" fill="#2924D6"/>
<rect x="133.109" y="103.574" width="18.0128" height="6.00426" transform="rotate(90 133.109 103.574)" fill="#2924D6"/>
<rect x="133.109" y="103.574" width="18.0128" height="6.00426" transform="rotate(90 133.109 103.574)" fill="#2924D6"/>
<rect width="18.0128" height="6.00426" transform="matrix(4.37114e-08 1 1 -4.37114e-08 296.239 103.574)" fill="#2924D6"/>
<rect width="18.0128" height="6.00426" transform="matrix(4.37114e-08 1 1 -4.37114e-08 296.239 103.574)" fill="#2924D6"/>
<rect x="127.104" y="121.586" width="3.00213" height="6.00426" transform="rotate(90 127.104 121.586)" fill="#2924D6"/>
<rect x="127.104" y="121.586" width="3.00213" height="6.00426" transform="rotate(90 127.104 121.586)" fill="#2924D6"/>
<rect x="205.668" y="121.586" width="4.5032" height="4.5032" transform="rotate(90 205.668 121.586)" fill="#2924D6"/>
<rect x="205.668" y="121.586" width="4.5032" height="4.5032" transform="rotate(90 205.668 121.586)" fill="#2924D6"/>
<rect x="228.184" y="121.586" width="4.5032" height="4.5032" transform="rotate(90 228.184 121.586)" fill="#2924D6"/>
<rect x="228.184" y="121.586" width="4.5032" height="4.5032" transform="rotate(90 228.184 121.586)" fill="#2924D6"/>
<rect width="3.00213" height="6.00426" transform="matrix(4.37114e-08 1 1 -4.37114e-08 302.243 121.586)" fill="#2924D6"/>
<rect width="3.00213" height="6.00426" transform="matrix(4.37114e-08 1 1 -4.37114e-08 302.243 121.586)" fill="#2924D6"/>
<rect x="22.0303" y="124.588" width="99.0704" height="6.00426" fill="#2924D6"/>
<rect x="22.0303" y="124.588" width="99.0704" height="6.00426" fill="#2924D6"/>
<rect width="99.0704" height="6.00426" transform="matrix(-1 0 0 1 407.317 124.588)" fill="#2924D6"/>
<rect width="99.0704" height="6.00426" transform="matrix(-1 0 0 1 407.317 124.588)" fill="#2924D6"/>
<rect x="205.668" y="126.089" width="18.0128" height="6.00426" fill="#2924D6"/>
<rect x="205.668" y="126.089" width="18.0128" height="6.00426" fill="#2924D6"/>
<rect x="22.0303" y="130.593" width="4.5032" height="3.00213" transform="rotate(90 22.0303 130.593)" fill="#2924D6"/>
<rect x="22.0303" y="130.593" width="4.5032" height="3.00213" transform="rotate(90 22.0303 130.593)" fill="#2924D6"/>
<rect width="4.5032" height="3.00213" transform="matrix(4.37114e-08 1 1 -4.37114e-08 407.317 130.593)" fill="#2924D6"/>
<rect width="4.5032" height="3.00213" transform="matrix(4.37114e-08 1 1 -4.37114e-08 407.317 130.593)" fill="#2924D6"/>
<rect x="19.0283" y="135.096" width="99.0704" height="6.00426" transform="rotate(90 19.0283 135.096)" fill="#2924D6"/>
<rect x="19.0283" y="135.096" width="99.0704" height="6.00426" transform="rotate(90 19.0283 135.096)" fill="#2924D6"/>
<rect width="99.0704" height="6.00426" transform="matrix(4.37114e-08 1 1 -4.37114e-08 410.32 135.096)" fill="#2924D6"/>
<rect width="99.0704" height="6.00426" transform="matrix(4.37114e-08 1 1 -4.37114e-08 410.32 135.096)" fill="#2924D6"/>
<rect width="9.0064" height="9.0064" transform="matrix(-1 0 0 1 65.0068 153)" fill="#07D6E8"/>
<rect width="9.0064" height="9.0064" transform="matrix(-1 0 0 1 256.007 153)" fill="#07D6E8"/>
<rect width="9.0064" height="9.0064" transform="matrix(-1 0 0 1 105.007 153.473)" fill="#07D6E8"/>
<rect width="9.0064" height="9.0064" transform="matrix(-1 0 0 1 144.034 153.473)" fill="#07D6E8"/>
<rect width="9.0064" height="9.0064" transform="matrix(-1 0 0 1 180.06 153.473)" fill="#07D6E8"/>
<rect width="9.0064" height="9.0064" transform="matrix(-1 0 0 1 217.587 153.473)" fill="#07D6E8"/>
<rect width="9.0064" height="9.0064" transform="matrix(-1 0 0 1 296.007 153.473)" fill="#07D6E8"/>
<rect width="9.0064" height="9.0064" transform="matrix(-1 0 0 1 335.034 153.473)" fill="#07D6E8"/>
<rect width="9.0064" height="9.0064" transform="matrix(-1 0 0 1 371.06 153.473)" fill="#07D6E8"/>
<rect x="13.0234" y="234.167" width="4.5032" height="3.00213" transform="rotate(90 13.0234 234.167)" fill="#2924D6"/>
<rect x="13.0234" y="234.167" width="4.5032" height="3.00213" transform="rotate(90 13.0234 234.167)" fill="#2924D6"/>
<rect width="4.5032" height="3.00213" transform="matrix(4.37114e-08 1 1 -4.37114e-08 416.324 234.167)" fill="#2924D6"/>
<rect width="4.5032" height="3.00213" transform="matrix(4.37114e-08 1 1 -4.37114e-08 416.324 234.167)" fill="#2924D6"/>
<rect x="-10.9932" y="238.669" width="21.0149" height="6.00426" fill="#2924D6"/>
<rect x="-10.9932" y="238.669" width="21.0149" height="6.00426" fill="#2924D6"/>
<rect width="21.0149" height="6.00426" transform="matrix(-1 0 0 1 440.342 238.669)" fill="#2924D6"/>
<rect width="21.0149" height="6.00426" transform="matrix(-1 0 0 1 440.342 238.669)" fill="#2924D6"/>
<rect x="-9.49219" y="318.226" width="18.0128" height="6.00426" fill="#2924D6"/>
<rect x="-9.49219" y="318.226" width="18.0128" height="6.00426" fill="#2924D6"/>
<rect x="420.827" y="318.226" width="18.0128" height="6.00426" fill="#2924D6"/>
<rect x="13.0234" y="324.23" width="4.5032" height="4.5032" transform="rotate(90 13.0234 324.23)" fill="#2924D6"/>
<rect x="13.0234" y="324.23" width="4.5032" height="4.5032" transform="rotate(90 13.0234 324.23)" fill="#2924D6"/>
<rect x="420.827" y="324.23" width="4.5032" height="4.5032" transform="rotate(90 420.827 324.23)" fill="#2924D6"/>
<rect x="420.827" y="324.23" width="4.5032" height="4.5032" transform="rotate(90 420.827 324.23)" fill="#2924D6"/>
<rect x="19.0283" y="328.733" width="130.593" height="6.00426" transform="rotate(90 19.0283 328.733)" fill="#2924D6"/>
<rect x="19.0283" y="328.733" width="130.593" height="6.00426" transform="rotate(90 19.0283 328.733)" fill="#2924D6"/>
<rect x="416.324" y="328.733" width="130.593" height="6.00426" transform="rotate(90 416.324 328.733)" fill="#2924D6"/>
<rect x="416.324" y="328.733" width="130.593" height="6.00426" transform="rotate(90 416.324 328.733)" fill="#2924D6"/>
<rect width="9.0064" height="9.0064" transform="matrix(-1 0 0 1 61.0068 389)" fill="#07D6E8"/>
<rect width="9.0064" height="9.0064" transform="matrix(-1 0 0 1 252.007 389)" fill="#07D6E8"/>
<rect width="9.0064" height="9.0064" transform="matrix(-1 0 0 1 101.007 389.473)" fill="#07D6E8"/>
<rect width="9.0064" height="9.0064" transform="matrix(-1 0 0 1 140.034 389.473)" fill="#07D6E8"/>
<rect width="9.0064" height="9.0064" transform="matrix(-1 0 0 1 176.06 389.473)" fill="#07D6E8"/>
<rect width="9.0064" height="9.0064" transform="matrix(-1 0 0 1 213.587 389.473)" fill="#07D6E8"/>
<rect width="9.0064" height="9.0064" transform="matrix(-1 0 0 1 292.007 389.473)" fill="#07D6E8"/>
<rect width="9.0064" height="9.0064" transform="matrix(-1 0 0 1 331.034 389.473)" fill="#07D6E8"/>
<rect width="9.0064" height="9.0064" transform="matrix(-1 0 0 1 367.06 389.473)" fill="#07D6E8"/>
<rect x="93.0879" y="430.806" width="243.173" height="6.00425" fill="#2924D6"/>
<rect x="93.0879" y="430.806" width="243.173" height="6.00425" fill="#2924D6"/>
<rect x="88.584" y="436.81" width="4.5032" height="4.5032" fill="#2924D6"/>
<rect x="88.584" y="436.81" width="4.5032" height="4.5032" fill="#2924D6"/>
<rect x="336.26" y="436.81" width="4.5032" height="4.5032" fill="#2924D6"/>
<rect x="336.26" y="436.81" width="4.5032" height="4.5032" fill="#2924D6"/>
<rect x="82.5801" y="459.326" width="18.0128" height="6.00426" transform="rotate(-90 82.5801 459.326)" fill="#2924D6"/>
<rect x="82.5801" y="459.326" width="18.0128" height="6.00426" transform="rotate(-90 82.5801 459.326)" fill="#2924D6"/>
<rect x="340.764" y="459.326" width="18.0128" height="6.00426" transform="rotate(-90 340.764 459.326)" fill="#2924D6"/>
<rect x="340.764" y="459.326" width="18.0128" height="6.00426" transform="rotate(-90 340.764 459.326)" fill="#2924D6"/>
<rect x="13.0195" y="459" width="4.5032" height="4.5032" transform="rotate(90 13.0195 459)" fill="#2924D6"/>
<rect x="13.0195" y="459" width="4.5032" height="4.5032" transform="rotate(90 13.0195 459)" fill="#2924D6"/>
<rect x="88.584" y="459.326" width="4.5032" height="4.5032" fill="#2924D6"/>
<rect x="88.584" y="459.326" width="4.5032" height="4.5032" fill="#2924D6"/>
<rect x="336.26" y="459.326" width="4.5032" height="4.5032" fill="#2924D6"/>
<rect x="336.26" y="459.326" width="4.5032" height="4.5032" fill="#2924D6"/>
<rect x="420.827" y="459.326" width="4.5032" height="4.5032" transform="rotate(90 420.827 459.326)" fill="#2924D6"/>
<rect x="420.827" y="459.326" width="4.5032" height="4.5032" transform="rotate(90 420.827 459.326)" fill="#2924D6"/>
<rect x="-9.49707" y="463.503" width="18.0128" height="6.00426" fill="#2924D6"/>
<rect x="-9.49707" y="463.503" width="18.0128" height="6.00426" fill="#2924D6"/>
<rect x="93.0879" y="463.83" width="99.0704" height="6.00426" fill="#2924D6"/>
<rect x="93.0879" y="463.83" width="99.0704" height="6.00426" fill="#2924D6"/>
<rect x="237.189" y="463.83" width="99.0704" height="6.00426" fill="#2924D6"/>
<rect x="237.189" y="463.83" width="99.0704" height="6.00426" fill="#2924D6"/>
<rect x="420.827" y="463.83" width="18.0128" height="6.00426" fill="#2924D6"/>
<rect x="420.827" y="463.83" width="18.0128" height="6.00426" fill="#2924D6"/>
<rect x="192.158" y="469.833" width="4.5032" height="4.5032" fill="#2924D6"/>
<rect x="192.158" y="469.833" width="4.5032" height="4.5032" fill="#2924D6"/>
<rect x="232.687" y="469.833" width="4.5032" height="4.5032" fill="#2924D6"/>
<rect x="232.687" y="469.833" width="4.5032" height="4.5032" fill="#2924D6"/>
<rect x="233.004" y="474" width="99.0704" height="6.00426" transform="rotate(90 233.004 474)" fill="#2924D6"/>
<rect x="202.665" y="474.337" width="99.0704" height="6.00426" transform="rotate(90 202.665 474.337)" fill="#2924D6"/>
<rect x="202.665" y="474.337" width="99.0704" height="6.00426" transform="rotate(90 202.665 474.337)" fill="#2924D6"/>
<rect width="9.0064" height="9.0064" transform="matrix(-1 0 0 1 18.0068 493.527)" fill="#07D6E8"/>
<rect width="9.0064" height="9.0064" transform="matrix(-1 0 0 1 18.0068 493.527)" fill="#07D6E8"/>
<rect width="9.0064" height="9.0064" transform="matrix(-1 0 0 1 268.007 493.527)" fill="#07D6E8"/>
<rect width="9.0064" height="9.0064" transform="matrix(-1 0 0 1 268.007 493.527)" fill="#07D6E8"/>
<rect width="9.0064" height="9.0064" transform="matrix(-1 0 0 1 58.0068 494)" fill="#07D6E8"/>
<rect width="9.0064" height="9.0064" transform="matrix(-1 0 0 1 58.0068 494)" fill="#07D6E8"/>
<rect width="9.0064" height="9.0064" transform="matrix(-1 0 0 1 97.0342 494)" fill="#07D6E8"/>
<rect width="9.0064" height="9.0064" transform="matrix(-1 0 0 1 97.0342 494)" fill="#07D6E8"/>
<rect width="9.0064" height="9.0064" transform="matrix(-1 0 0 1 133.06 494)" fill="#07D6E8"/>
<rect width="9.0064" height="9.0064" transform="matrix(-1 0 0 1 133.06 494)" fill="#07D6E8"/>
<rect width="9.0064" height="9.0064" transform="matrix(-1 0 0 1 170.587 494)" fill="#07D6E8"/>
<rect width="9.0064" height="9.0064" transform="matrix(-1 0 0 1 170.587 494)" fill="#07D6E8"/>
<rect width="9.0064" height="9.0064" transform="matrix(-1 0 0 1 308.007 494)" fill="#07D6E8"/>
<rect width="9.0064" height="9.0064" transform="matrix(-1 0 0 1 308.007 494)" fill="#07D6E8"/>
<rect width="9.0064" height="9.0064" transform="matrix(-1 0 0 1 347.034 494)" fill="#07D6E8"/>
<rect width="9.0064" height="9.0064" transform="matrix(-1 0 0 1 347.034 494)" fill="#07D6E8"/>
<rect width="9.0064" height="9.0064" transform="matrix(-1 0 0 1 383.06 494)" fill="#07D6E8"/>
<rect width="9.0064" height="9.0064" transform="matrix(-1 0 0 1 383.06 494)" fill="#07D6E8"/>
<rect width="9.0064" height="9.0064" transform="matrix(-1 0 0 1 420.587 494)" fill="#07D6E8"/>
<rect width="9.0064" height="9.0064" transform="matrix(-1 0 0 1 420.587 494)" fill="#07D6E8"/>
<rect width="187.633" height="6.00426" transform="matrix(-1 0 0 1 507.648 541.509)" fill="#2924D6"/>
<rect width="169.62" height="6.00426" transform="matrix(-1 0 0 1 489.636 658.593)" fill="#2924D6"/>
<rect width="172.623" height="6.00426" transform="matrix(-1 0 0 1 483.632 673.604)" fill="#2924D6"/>
<rect width="60.0426" height="6.00426" transform="matrix(-1 0 0 1 483.632 865.74)" fill="#2924D6"/>
<rect width="60.0426" height="6.00426" transform="matrix(-1 0 0 1 483.632 898.763)" fill="#2924D6"/>
<rect width="196.64" height="6.00426" transform="matrix(-1 0 0 1 507.648 528)" fill="#2924D6"/>
<rect width="130.593" height="6.00426" transform="matrix(4.37114e-08 1 1 -4.37114e-08 299 538.507)" fill="#2924D6"/>
<rect width="18.0128" height="6.00426" transform="matrix(4.37114e-08 1 1 -4.37114e-08 411.58 876.247)" fill="#2924D6"/>
<rect width="111.079" height="6.00426" transform="matrix(4.37114e-08 1 1 -4.37114e-08 314.011 547.514)" fill="#2924D6"/>
<rect width="4.5032" height="6.00426" transform="matrix(4.37114e-08 1 1 -4.37114e-08 305.005 534.004)" fill="#2924D6"/>
<rect width="4.5032" height="6.00426" transform="matrix(4.37114e-08 1 1 -4.37114e-08 305.005 669.1)" fill="#2924D6"/>
<rect width="187.633" height="6.00426" transform="matrix(-1 0 0 1 507.648 541.509)" fill="#2924D6"/>
<rect width="169.62" height="6.00426" transform="matrix(-1 0 0 1 489.636 658.593)" fill="#2924D6"/>
<rect width="6.00426" height="4.5032" transform="matrix(-1 0 0 1 423.589 871.744)" fill="#2924D6"/>
<rect width="6.00426" height="4.5032" transform="matrix(-1 0 0 1 423.589 894.26)" fill="#2924D6"/>
<rect width="172.623" height="6.00426" transform="matrix(-1 0 0 1 483.632 673.604)" fill="#2924D6"/>
<rect width="60.0426" height="6.00426" transform="matrix(-1 0 0 1 483.632 865.74)" fill="#2924D6"/>
<rect width="60.0426" height="6.00426" transform="matrix(-1 0 0 1 483.632 898.763)" fill="#2924D6"/>
<rect width="196.64" height="6.00426" transform="matrix(-1 0 0 1 507.648 528)" fill="#2924D6"/>
<rect width="9.0064" height="9.0064" transform="matrix(-1 0 0 1 171.007 529.552)" fill="#07D6E8"/>
<rect width="9.0064" height="9.0064" transform="matrix(-1 0 0 1 268.007 529.552)" fill="#07D6E8"/>
<rect width="9.0064" height="9.0064" transform="matrix(-1 0 0 1 268.007 529.552)" fill="#07D6E8"/>
<rect x="-78" y="533" width="196.64" height="6.00426" fill="#2924D6"/>
<rect x="-78" y="533" width="196.64" height="6.00426" fill="#2924D6"/>
<rect x="124.644" y="539.004" width="4.5032" height="6.00426" transform="rotate(90 124.644 539.004)" fill="#2924D6"/>
<rect x="124.644" y="539.004" width="4.5032" height="6.00426" transform="rotate(90 124.644 539.004)" fill="#2924D6"/>
<rect x="130.648" y="543.507" width="130.593" height="6.00426" transform="rotate(90 130.648 543.507)" fill="#2924D6"/>
<rect x="130.648" y="543.507" width="130.593" height="6.00426" transform="rotate(90 130.648 543.507)" fill="#2924D6"/>
<rect x="-78" y="546.509" width="187.633" height="6.00426" fill="#2924D6"/>
<rect x="-78" y="546.509" width="187.633" height="6.00426" fill="#2924D6"/>
<rect x="115.638" y="552.514" width="111.079" height="6.00426" transform="rotate(90 115.638 552.514)" fill="#2924D6"/>
<rect x="115.638" y="552.514" width="111.079" height="6.00426" transform="rotate(90 115.638 552.514)" fill="#2924D6"/>
<rect width="9.0064" height="9.0064" transform="matrix(-1 0 0 1 171.007 568.58)" fill="#07D6E8"/>
<rect width="9.0064" height="9.0064" transform="matrix(-1 0 0 1 268.007 568.58)" fill="#07D6E8"/>
<rect width="9.0064" height="9.0064" transform="matrix(-1 0 0 1 268.007 568.58)" fill="#07D6E8"/>
<rect x="202.665" y="573.407" width="4.5032" height="4.5032" fill="#2924D6"/>
<rect x="202.665" y="573.407" width="4.5032" height="4.5032" fill="#2924D6"/>
<rect x="222.18" y="573.407" width="4.5032" height="4.5032" fill="#2924D6"/>
<rect x="222.18" y="573.407" width="4.5032" height="4.5032" fill="#2924D6"/>
<rect x="207.169" y="577.911" width="15.0107" height="6.00426" fill="#2924D6"/>
<rect x="207.169" y="577.911" width="15.0107" height="6.00426" fill="#2924D6"/>
<rect width="9.0064" height="9.0064" transform="matrix(-1 0 0 1 171.007 604.606)" fill="#07D6E8"/>
<rect width="9.0064" height="9.0064" transform="matrix(-1 0 0 1 268.007 604.606)" fill="#07D6E8"/>
<rect width="9.0064" height="9.0064" transform="matrix(-1 0 0 1 268.007 604.606)" fill="#07D6E8"/>
<rect width="9.0064" height="9.0064" transform="matrix(-1 0 0 1 171.007 643.633)" fill="#07D6E8"/>
<rect width="9.0064" height="9.0064" transform="matrix(-1 0 0 1 268.007 643.633)" fill="#07D6E8"/>
<rect width="9.0064" height="9.0064" transform="matrix(-1 0 0 1 268.007 643.633)" fill="#07D6E8"/>
<rect x="-59.9873" y="663.593" width="169.62" height="6.00426" fill="#2924D6"/>
<rect x="124.644" y="674.1" width="4.5032" height="6.00426" transform="rotate(90 124.644 674.1)" fill="#2924D6"/>
<rect x="124.644" y="674.1" width="4.5032" height="6.00426" transform="rotate(90 124.644 674.1)" fill="#2924D6"/>
<rect x="-53.9834" y="678.604" width="172.623" height="6.00426" fill="#2924D6"/>
<rect width="9.0064" height="9.0064" transform="matrix(-1 0 0 1 171.007 681.16)" fill="#07D6E8"/>
<rect width="9.0064" height="9.0064" transform="matrix(-1 0 0 1 268.007 681.16)" fill="#07D6E8"/>
<rect width="9.0064" height="9.0064" transform="matrix(-1 0 0 1 268.007 681.16)" fill="#07D6E8"/>
<rect width="9.0064" height="9.0064" transform="matrix(-1 0 0 1 21.0068 719)" fill="#07D6E8"/>
<rect width="9.0064" height="9.0064" transform="matrix(-1 0 0 1 60.0342 719)" fill="#07D6E8"/>
<rect width="9.0064" height="9.0064" transform="matrix(-1 0 0 1 96.0596 719)" fill="#07D6E8"/>
<rect width="9.0064" height="9.0064" transform="matrix(-1 0 0 1 133.587 719)" fill="#07D6E8"/>
<rect width="9.0064" height="9.0064" transform="matrix(-1 0 0 1 171.061 719)" fill="#07D6E8"/>
<rect width="9.0064" height="9.0064" transform="matrix(-1 0 0 1 268.061 719)" fill="#07D6E8"/>
<rect width="9.0064" height="9.0064" transform="matrix(-1 0 0 1 268.061 719)" fill="#07D6E8"/>
<rect width="9.0064" height="9.0064" transform="matrix(-1 0 0 1 306.007 719)" fill="#07D6E8"/>
<rect width="9.0064" height="9.0064" transform="matrix(-1 0 0 1 345.034 719)" fill="#07D6E8"/>
<rect width="9.0064" height="9.0064" transform="matrix(-1 0 0 1 381.06 719)" fill="#07D6E8"/>
<rect width="9.0064" height="9.0064" transform="matrix(-1 0 0 1 418.587 719)" fill="#07D6E8"/>
<rect width="18.0128" height="6.00426" transform="matrix(4.37114e-08 1 1 -4.37114e-08 412.079 768.508)" fill="#2924D6"/>
<rect width="97.5693" height="6.00426" transform="matrix(4.37114e-08 1 1 -4.37114e-08 335.525 801.531)" fill="#2924D6"/>
<rect width="130.593" height="6.00426" transform="matrix(4.37114e-08 1 1 -4.37114e-08 301 768.508)" fill="#2924D6"/>
<rect width="6.00426" height="4.5032" transform="matrix(-1 0 0 1 412.079 764.004)" fill="#2924D6"/>
<rect width="6.00426" height="4.5032" transform="matrix(-1 0 0 1 412.079 786.521)" fill="#2924D6"/>
<rect width="4.5032" height="4.5032" transform="matrix(-1 0 0 1 346.032 797.028)" fill="#2924D6"/>
<rect width="6.00426" height="4.5032" transform="matrix(-1 0 0 1 313.009 764.004)" fill="#2924D6"/>
<rect width="6.00426" height="4.5032" transform="matrix(-1 0 0 1 335.525 899.101)" fill="#2924D6"/>
<rect width="6.00426" height="4.5032" transform="matrix(-1 0 0 1 313.009 899.101)" fill="#2924D6"/>
<rect width="93.0661" height="6.00426" transform="matrix(-1 0 0 1 406.075 758)" fill="#2924D6"/>
<rect width="60.0426" height="6.00426" transform="matrix(-1 0 0 1 406.075 791.023)" fill="#2924D6"/>
<rect width="16.5117" height="6.00426" transform="matrix(-1 0 0 1 329.521 903.604)" fill="#2924D6"/>
<rect x="25.5732" y="758.16" width="93.0661" height="6.00426" fill="#2924D6"/>
<rect x="25.5732" y="758.16" width="93.0661" height="6.00426" fill="#2924D6"/>
<rect x="25.5732" y="758.16" width="93.0661" height="6.00426" fill="#2924D6"/>
<rect x="25.5732" y="758.16" width="93.0661" height="6.00426" fill="#2924D6"/>
<rect x="19.5693" y="764.164" width="6.00426" height="4.5032" fill="#2924D6"/>
<rect x="118.64" y="764.164" width="6.00426" height="4.5032" fill="#2924D6"/>
<rect x="118.64" y="764.164" width="6.00426" height="4.5032" fill="#2924D6"/>
<rect x="118.64" y="764.164" width="6.00426" height="4.5032" fill="#2924D6"/>
<rect x="118.64" y="764.164" width="6.00426" height="4.5032" fill="#2924D6"/>
<rect x="19.5693" y="768.667" width="18.0128" height="6.00426" transform="rotate(90 19.5693 768.667)" fill="#2924D6"/>
<rect x="130.648" y="768.667" width="130.593" height="6.00426" transform="rotate(90 130.648 768.667)" fill="#2924D6"/>
<rect x="130.648" y="768.667" width="130.593" height="6.00426" transform="rotate(90 130.648 768.667)" fill="#2924D6"/>
<rect x="130.648" y="768.667" width="130.593" height="6.00426" transform="rotate(90 130.648 768.667)" fill="#2924D6"/>
<rect x="130.648" y="768.667" width="130.593" height="6.00426" transform="rotate(90 130.648 768.667)" fill="#2924D6"/>
<rect x="19.5693" y="786.68" width="6.00426" height="4.5032" fill="#2924D6"/>
<rect x="25.5732" y="791.183" width="60.0426" height="6.00426" fill="#2924D6"/>
<rect x="25.5732" y="791.183" width="60.0426" height="6.00426" fill="#2924D6"/>
<rect x="25.5732" y="791.183" width="60.0426" height="6.00426" fill="#2924D6"/>
<rect x="25.5732" y="791.183" width="60.0426" height="6.00426" fill="#2924D6"/>
<rect x="85.6162" y="797.188" width="4.5032" height="4.5032" fill="#2924D6"/>
<rect x="85.6162" y="797.188" width="4.5032" height="4.5032" fill="#2924D6"/>
<rect x="85.6162" y="797.188" width="4.5032" height="4.5032" fill="#2924D6"/>
<rect x="85.6162" y="797.188" width="4.5032" height="4.5032" fill="#2924D6"/>
<rect x="96.123" y="801.691" width="97.5693" height="6.00426" transform="rotate(90 96.123 801.691)" fill="#2924D6"/>
<rect x="96.123" y="801.691" width="97.5693" height="6.00426" transform="rotate(90 96.123 801.691)" fill="#2924D6"/>
<rect x="96.123" y="801.691" width="97.5693" height="6.00426" transform="rotate(90 96.123 801.691)" fill="#2924D6"/>
<rect x="96.123" y="801.691" width="97.5693" height="6.00426" transform="rotate(90 96.123 801.691)" fill="#2924D6"/>
<rect x="204.507" y="809" width="18.0128" height="6.00426" fill="#2924D6"/>
<rect x="204.507" y="809" width="18.0128" height="6.00426" fill="#2924D6"/>
<rect x="204.507" y="815.004" width="4.5032" height="4.5032" transform="rotate(90 204.507 815.004)" fill="#2924D6"/>
<rect x="204.507" y="815.004" width="4.5032" height="4.5032" transform="rotate(90 204.507 815.004)" fill="#2924D6"/>
<rect x="227.023" y="815.004" width="4.5032" height="4.5032" transform="rotate(90 227.023 815.004)" fill="#2924D6"/>
<rect x="227.023" y="815.004" width="4.5032" height="4.5032" transform="rotate(90 227.023 815.004)" fill="#2924D6"/>
<rect x="200.004" y="819.507" width="130.593" height="6.00426" transform="rotate(90 200.004 819.507)" fill="#2924D6"/>
<rect x="200.004" y="819.507" width="130.593" height="6.00426" transform="rotate(90 200.004 819.507)" fill="#2924D6"/>
<rect x="233.027" y="819.507" width="130.593" height="6.00426" transform="rotate(90 233.027 819.507)" fill="#2924D6"/>
<rect x="233.027" y="819.507" width="130.593" height="6.00426" transform="rotate(90 233.027 819.507)" fill="#2924D6"/>
<rect x="-53.9834" y="870.74" width="60.0426" height="6.00426" fill="#2924D6"/>
<rect x="-53.9834" y="870.74" width="60.0426" height="6.00426" fill="#2924D6"/>
<rect x="6.05957" y="876.744" width="6.00426" height="4.5032" fill="#2924D6"/>
<rect x="18.0684" y="881.247" width="18.0128" height="6.00426" transform="rotate(90 18.0684 881.247)" fill="#2924D6"/>
<rect x="6.05957" y="899.26" width="6.00426" height="4.5032" fill="#2924D6"/>
<rect x="96.123" y="899.26" width="6.00426" height="4.5032" fill="#2924D6"/>
<rect x="96.123" y="899.26" width="6.00426" height="4.5032" fill="#2924D6"/>
<rect x="96.123" y="899.26" width="6.00426" height="4.5032" fill="#2924D6"/>
<rect x="96.123" y="899.26" width="6.00426" height="4.5032" fill="#2924D6"/>
<rect x="118.64" y="899.26" width="6.00426" height="4.5032" fill="#2924D6"/>
<rect x="118.64" y="899.26" width="6.00426" height="4.5032" fill="#2924D6"/>
<rect x="118.64" y="899.26" width="6.00426" height="4.5032" fill="#2924D6"/>
<rect x="118.64" y="899.26" width="6.00426" height="4.5032" fill="#2924D6"/>
<rect x="-53.9834" y="903.763" width="60.0426" height="6.00426" fill="#2924D6"/>
<rect x="-53.9834" y="903.763" width="60.0426" height="6.00426" fill="#2924D6"/>
<rect x="102.128" y="903.763" width="16.5117" height="6.00426" fill="#2924D6"/>
<rect x="102.128" y="903.763" width="16.5117" height="6.00426" fill="#2924D6"/>
<rect x="102.128" y="903.763" width="16.5117" height="6.00426" fill="#2924D6"/>
<rect x="102.128" y="903.763" width="16.5117" height="6.00426" fill="#2924D6"/>
<rect x="12" y="825" width="9.0064" height="9.0064" fill="#07D6E8"/>
<rect x="49.5273" y="825" width="9.0064" height="9.0064" fill="#07D6E8"/>
<rect width="9.0064" height="9.0064" transform="matrix(-1 0 0 1 381.06 829.71)" fill="#07D6E8"/>
<rect width="9.0064" height="9.0064" transform="matrix(-1 0 0 1 418.587 829.71)" fill="#07D6E8"/>
<rect x="49.5273" y="862.527" width="9.0064" height="9.0064" fill="#07D6E8"/>
<rect width="9.0064" height="9.0064" transform="matrix(-1 0 0 1 381.06 867.237)" fill="#07D6E8"/>
<rect x="49.5273" y="900.053" width="9.0064" height="9.0064" fill="#07D6E8"/>
<rect width="9.0064" height="9.0064" transform="matrix(-1 0 0 1 381.06 904.763)" fill="#07D6E8"/>
</g>
<defs>
<linearGradient id="paint0_linear_2735_416" x1="52" y1="225.831" x2="372" y2="225.831" gradientUnits="userSpaceOnUse">
<stop stop-color="#FE77DD"/>
<stop offset="1" stop-color="#FFD963"/>
</linearGradient>
<clipPath id="clip0_2735_416">
<rect width="430" height="932" fill="white"/>
</clipPath>
</defs>
</svg>
