<svg width="45" height="45" viewBox="0 0 45 45" fill="none" xmlns="http://www.w3.org/2000/svg">
<rect x="4.56543" y="9.13037" width="35.8696" height="26.7391" fill="#FFBC7B"/>
<rect x="13.6958" y="4.56519" width="17.6087" height="39.7826" fill="#FFBC7B"/>
<rect x="13.6958" width="17.6087" height="4.56522" fill="#DF7668"/>
<rect x="18.2607" y="13.6956" width="8.47826" height="4.56522" fill="#DF7668"/>
<rect x="18.2607" y="27.3914" width="8.47826" height="4.56522" fill="#DF7668"/>
<rect x="26.7393" y="18.261" width="4.56522" height="9.13043" fill="#DF7668"/>
<rect x="13.6958" y="18.261" width="4.56522" height="9.13043" fill="#DF7668"/>
<rect x="13.6958" y="40.4348" width="17.6087" height="4.56522" fill="#DF7668"/>
<rect x="31.3042" y="35.8696" width="4.56522" height="4.56522" fill="#DF7668"/>
<rect x="35.8696" y="31.3044" width="4.56522" height="4.56522" fill="#DF7668"/>
<rect x="9.13037" y="35.8696" width="4.56522" height="4.56522" fill="#DF7668"/>
<rect x="4.56543" y="31.3044" width="4.56522" height="4.56522" fill="#DF7668"/>
<rect x="4.56543" y="9.13037" width="4.56522" height="4.56522" fill="#DF7668"/>
<rect x="9.13037" y="4.56519" width="4.56522" height="4.56522" fill="#DF7668"/>
<rect x="31.3042" y="4.56519" width="4.56522" height="4.56522" fill="#DF7668"/>
<rect x="35.8696" y="9.13037" width="4.56522" height="4.56522" fill="#DF7668"/>
<rect y="13.6956" width="4.56522" height="17.6087" fill="#DF7668"/>
<rect x="40.4346" y="13.6956" width="4.56522" height="17.6087" fill="#DF7668"/>
<rect x="18.2607" y="18.261" width="4.56522" height="4.56522" fill="white"/>
<rect x="4.56543" y="13.6956" width="4.56522" height="17.6087" fill="#FFD598"/>
<rect x="9.13037" y="9.13037" width="4.56522" height="4.56522" fill="#FFD598"/>
<rect x="13.6958" y="4.56519" width="17.6087" height="4.56522" fill="#FFD598"/>
</svg>
