<svg width="353" height="175" viewBox="0 0 353 175" fill="none" xmlns="http://www.w3.org/2000/svg">
<rect x="5" y="36" width="336" height="128" fill="#FFFBD5"/>
<path d="M11 169H347V172H11V169Z" fill="#FFD668"/>
<path d="M347 169H350V172H347V169Z" fill="#FFD668"/>
<path d="M347 45H350V169H347V45Z" fill="#FFD668"/>
<path d="M344 42H347V169H344V42Z" fill="#FFD668"/>
<path d="M341 159H344V169H341V159Z" fill="#FFD668"/>
<path d="M338 159H341V169H338V159Z" fill="#FFD668"/>
<path d="M336 159H339V169H336V159Z" fill="#FFD668"/>
<path d="M350 48H353V169H350V48Z" fill="#FFD668"/>
<path d="M14 172H347V175H14V172Z" fill="#FFD668"/>
<path d="M5 36H10V41H5V36Z" fill="#FF81D2"/>
<path d="M5 159H10V164H5V159Z" fill="#FF81D2"/>
<path d="M0 41H5V159H0V41Z" fill="#FF81D2"/>
<path d="M341 41H346V159H341V41Z" fill="#FF81D2"/>
<path d="M336 36H341V41H336V36Z" fill="#FF81D2"/>
<path d="M336 154H341V164H336V154Z" fill="#FF81D2"/>
<path d="M10 31H336V36H10V31Z" fill="#FF81D2"/>
<path d="M10 164H336V169H10V164Z" fill="#FF81D2"/>
<rect x="12" y="40" width="320" height="15.6614" rx="3" fill="url(#paint0_linear_2735_415)"/>
<path d="M36 8H117V11H36V8Z" fill="#FFD668"/>
<path d="M117 8H120V11H117V8Z" fill="#FFD668"/>
<path d="M39 5H117V8H39V5Z" fill="#FFD668"/>
<path d="M33 11H120V31H33V11Z" fill="#FFD668"/>
<path d="M120 11H123V31H120V11Z" fill="#FFD668"/>
<path d="M40.63 18.6C40.63 17.5 40.845 16.53 41.275 15.69C41.705 14.85 42.33 14.195 43.15 13.725C43.97 13.255 44.965 13.02 46.135 13.02C47.295 13.02 48.285 13.255 49.105 13.725C49.935 14.195 50.565 14.85 50.995 15.69C51.425 16.53 51.64 17.5 51.64 18.6C51.64 19.7 51.425 20.67 50.995 21.51C50.565 22.35 49.935 23.005 49.105 23.475C48.285 23.945 47.295 24.18 46.135 24.18C44.965 24.18 43.97 23.95 43.15 23.49C42.33 23.02 41.705 22.365 41.275 21.525C40.845 20.685 40.63 19.71 40.63 18.6ZM43.345 18.6C43.345 19.25 43.445 19.83 43.645 20.34C43.855 20.84 44.165 21.23 44.575 21.51C44.995 21.79 45.515 21.93 46.135 21.93C46.755 21.93 47.27 21.79 47.68 21.51C48.09 21.23 48.395 20.84 48.595 20.34C48.805 19.83 48.91 19.25 48.91 18.6C48.91 17.95 48.805 17.375 48.595 16.875C48.395 16.365 48.09 15.97 47.68 15.69C47.27 15.41 46.755 15.27 46.135 15.27C45.515 15.27 44.995 15.41 44.575 15.69C44.165 15.97 43.855 16.365 43.645 16.875C43.445 17.375 43.345 17.95 43.345 18.6ZM53.4154 24V13.2H55.5454L60.9004 18.615V22.11L55.3204 16.47L56.0854 16.155V24H53.4154ZM60.0154 24V13.2H62.6704V24H60.0154ZM64.4484 18.645C64.4484 17.535 64.6834 16.56 65.1534 15.72C65.6334 14.87 66.3334 14.21 67.2534 13.74C68.1734 13.26 69.3034 13.02 70.6434 13.02C71.1934 13.02 71.6884 13.06 72.1284 13.14C72.5684 13.22 72.9034 13.31 73.1334 13.41V15.705H72.9684C72.7484 15.585 72.4384 15.485 72.0384 15.405C71.6384 15.315 71.2084 15.27 70.7484 15.27C69.5484 15.27 68.6484 15.56 68.0484 16.14C67.4584 16.72 67.1634 17.57 67.1634 18.69C67.1634 19.38 67.2884 19.975 67.5384 20.475C67.7884 20.965 68.1434 21.34 68.6034 21.6C69.0634 21.86 69.6084 21.99 70.2384 21.99C70.5384 21.99 70.7934 21.96 71.0034 21.9C71.2134 21.84 71.3984 21.735 71.5584 21.585L71.0634 22.98V18.48H73.5084V23.58C73.1184 23.76 72.6384 23.905 72.0684 24.015C71.5084 24.125 70.8884 24.18 70.2084 24.18C68.9284 24.18 67.8634 23.95 67.0134 23.49C66.1634 23.03 65.5234 22.385 65.0934 21.555C64.6634 20.715 64.4484 19.745 64.4484 18.645ZM75.171 18.6C75.171 17.5 75.386 16.53 75.816 15.69C76.246 14.85 76.871 14.195 77.691 13.725C78.511 13.255 79.506 13.02 80.676 13.02C81.836 13.02 82.826 13.255 83.646 13.725C84.476 14.195 85.106 14.85 85.536 15.69C85.966 16.53 86.181 17.5 86.181 18.6C86.181 19.7 85.966 20.67 85.536 21.51C85.106 22.35 84.476 23.005 83.646 23.475C82.826 23.945 81.836 24.18 80.676 24.18C79.506 24.18 78.511 23.95 77.691 23.49C76.871 23.02 76.246 22.365 75.816 21.525C75.386 20.685 75.171 19.71 75.171 18.6ZM77.886 18.6C77.886 19.25 77.986 19.83 78.186 20.34C78.396 20.84 78.706 21.23 79.116 21.51C79.536 21.79 80.056 21.93 80.676 21.93C81.296 21.93 81.811 21.79 82.221 21.51C82.631 21.23 82.936 20.84 83.136 20.34C83.346 19.83 83.451 19.25 83.451 18.6C83.451 17.95 83.346 17.375 83.136 16.875C82.936 16.365 82.631 15.97 82.221 15.69C81.811 15.41 81.296 15.27 80.676 15.27C80.056 15.27 79.536 15.41 79.116 15.69C78.706 15.97 78.396 16.365 78.186 16.875C77.986 17.375 77.886 17.95 77.886 18.6ZM87.9564 13.2H90.6264V24H87.9564V13.2ZM92.9076 24V13.2H95.0376L100.393 18.615V22.11L94.8126 16.47L95.5776 16.155V24H92.9076ZM99.5076 24V13.2H102.163V24H99.5076ZM103.941 18.645C103.941 17.535 104.176 16.56 104.646 15.72C105.126 14.87 105.826 14.21 106.746 13.74C107.666 13.26 108.796 13.02 110.136 13.02C110.686 13.02 111.181 13.06 111.621 13.14C112.061 13.22 112.396 13.31 112.626 13.41V15.705H112.461C112.241 15.585 111.931 15.485 111.531 15.405C111.131 15.315 110.701 15.27 110.241 15.27C109.041 15.27 108.141 15.56 107.541 16.14C106.951 16.72 106.656 17.57 106.656 18.69C106.656 19.38 106.781 19.975 107.031 20.475C107.281 20.965 107.636 21.34 108.096 21.6C108.556 21.86 109.101 21.99 109.731 21.99C110.031 21.99 110.286 21.96 110.496 21.9C110.706 21.84 110.891 21.735 111.051 21.585L110.556 22.98V18.48H113.001V23.58C112.611 23.76 112.131 23.905 111.561 24.015C111.001 24.125 110.381 24.18 109.701 24.18C108.421 24.18 107.356 23.95 106.506 23.49C105.656 23.03 105.016 22.385 104.586 21.555C104.156 20.715 103.941 19.745 103.941 18.645Z" fill="#0A0F7E"/>
<defs>
<linearGradient id="paint0_linear_2735_415" x1="12" y1="47.8307" x2="332" y2="47.8307" gradientUnits="userSpaceOnUse">
<stop stop-color="#FE77DD"/>
<stop offset="1" stop-color="#FFD963"/>
</linearGradient>
</defs>
</svg>
