<svg width="333" height="103" viewBox="0 0 333 103" fill="none" xmlns="http://www.w3.org/2000/svg">
<rect x="0.5" y="0.5" width="332" height="102" fill="#FE77DD" stroke="black"/>
<path d="M61 5H10V28" stroke="#FFFBD5" stroke-width="2"/>
<path d="M61 93H10V71" stroke="#FFFBD5" stroke-width="2"/>
<path d="M271 5H326V28" stroke="#FFFBD5" stroke-width="2"/>
<path d="M271 93H326V71" stroke="#FFFBD5" stroke-width="2"/>
<path d="M25 75L32 39H42.6L35.6 75H25ZM32.4 75L34.2 65.8H51.3L49.6 75H32.4ZM35.2 61.6L36.8 53H51L49.4 61.6H35.2ZM37.6 48.2L39.4 39H56.2L54.5 48.2H37.6ZM55.7152 73.8C55.9819 73.2 56.2319 72.4667 56.4652 71.6C56.7319 70.7333 56.9652 69.85 57.1652 68.95C57.3652 68.05 57.5319 67.2667 57.6652 66.6L62.8652 39H73.4652L68.8652 63.4C68.6652 64.5 68.3819 65.55 68.0152 66.55C67.6486 67.55 67.3152 68.3 67.0152 68.8L65.8152 65.6C66.6152 66.1 67.2319 66.4 67.6652 66.5C68.1319 66.5667 68.5152 66.6 68.8152 66.6C70.0819 66.6 71.0652 66.4333 71.7652 66.1C72.4986 65.7667 73.0819 65.2667 73.5152 64.6C73.9486 63.9 74.3486 63.0333 74.7152 62L82.9152 39H93.7152L85.3152 62.4C84.2819 65.2667 83.0652 67.5667 81.6652 69.3C80.2986 71.0333 78.7486 72.35 77.0152 73.25C75.2819 74.1167 73.3819 74.7 71.3152 75C69.2486 75.2667 67.0152 75.4 64.6152 75.4C63.1152 75.4 61.6319 75.3 60.1652 75.1C58.7319 74.9333 57.3819 74.7 56.1152 74.4L55.7152 73.8ZM91.4063 75L98.4063 39H109.006L102.006 75H91.4063ZM98.8063 75L100.606 65.8H117.706L116.006 75H98.8063ZM101.606 61.6L103.206 53H117.406L115.806 61.6H101.606ZM104.006 48.2L105.806 39H122.606L120.906 48.2H104.006ZM144.221 75L151.021 39H161.621L154.821 75H144.221ZM122.021 75L128.821 39H137.221L151.021 56.8L148.621 69.8L134.421 51.4L137.021 51.6L132.621 75H122.021ZM165.926 39H196.726L195.026 48.2H184.976L179.926 75H169.326L174.376 48.2H164.226L165.926 39ZM197.645 64.4H198.245C199.445 65.2 201.012 65.8667 202.945 66.4C204.912 66.9333 207.145 67.2 209.645 67.2C210.778 67.2 211.762 67.1333 212.595 67C213.428 66.8333 214.078 66.5833 214.545 66.25C215.012 65.8833 215.245 65.4 215.245 64.8C215.245 64.1 214.978 63.6167 214.445 63.35C213.912 63.0833 212.978 62.8333 211.645 62.6L209.445 62.2C207.178 61.7667 205.212 61.1167 203.545 60.25C201.912 59.35 200.645 58.2167 199.745 56.85C198.878 55.4833 198.445 53.8667 198.445 52C198.445 49.3333 199.095 46.9833 200.395 44.95C201.728 42.8833 203.795 41.2833 206.595 40.15C209.428 38.9833 213.112 38.4 217.645 38.4C218.912 38.4 220.245 38.4667 221.645 38.6C223.045 38.7333 224.345 38.9333 225.545 39.2C226.745 39.4333 227.678 39.7 228.345 40L226.645 48.8H226.045C225.045 48.3 223.712 47.85 222.045 47.45C220.378 47.0167 218.445 46.8 216.245 46.8C214.712 46.8 213.412 46.95 212.345 47.25C211.278 47.55 210.462 48 209.895 48.6C209.328 49.2 209.045 49.9333 209.045 50.8C209.045 51.7 209.362 52.3833 209.995 52.85C210.662 53.3167 211.812 53.7 213.445 54L215.645 54.4C217.412 54.7 219.062 55.2 220.595 55.9C222.162 56.5667 223.428 57.5333 224.395 58.8C225.362 60.0667 225.845 61.7333 225.845 63.8C225.845 66 225.378 67.8667 224.445 69.4C223.545 70.9 222.278 72.1 220.645 73C219.045 73.9 217.195 74.5667 215.095 75C213.028 75.4 210.812 75.6 208.445 75.6C206.145 75.6 203.878 75.3833 201.645 74.95C199.412 74.4833 197.512 73.9 195.945 73.2L197.645 64.4Z" fill="#FFFBD5"/>
</svg>
