<svg width="393" height="852" viewBox="0 0 393 852" fill="none" xmlns="http://www.w3.org/2000/svg">
<g clip-path="url(#clip0_1519_532)">
<rect width="393" height="852" fill="white"/>
<path d="M-4 -21H416V901.5H-4V-21Z" fill="#0F102E"/>
<path fill-rule="evenodd" clip-rule="evenodd" d="M298.009 379.814L346.311 380.124L346.991 329.483L287.284 329.211L298.009 379.814Z" fill="#C11D99"/>
<path fill-rule="evenodd" clip-rule="evenodd" d="M346.915 315.715L284.364 315.43L287.284 329.211L346.991 329.483L346.915 315.715Z" fill="#F8C7EC"/>
<path d="M233.115 380.055L298.009 379.814L287.284 329.211L235.914 328.977L233.115 380.055Z" fill="#C11D99"/>
<path d="M284.364 315.43L236.668 315.213L235.914 328.977L287.284 329.211L284.364 315.43Z" fill="#F8C7EC"/>
<path d="M235.914 328.977L236.668 315.213L-58.1894 313.871L-58.1894 327.638L235.914 328.977Z" fill="#F8C7EC"/>
<path d="M233.115 380.055L235.914 328.977L-58.1894 327.638L-58.1894 381.134L233.115 380.055Z" fill="#C11D99"/>
<path d="M236.668 315.213L284.364 315.43L346.915 315.715L298.009 289.624L-54.6894 289.624L-58.1894 313.871L236.668 315.213Z" fill="#D698C7"/>
<path d="M334.405 805.278L-331.93 807.702L-331.929 343.41L346.993 343.41L344.992 794.454C344.965 800.443 340.404 805.256 334.405 805.278Z" fill="#47C0BB"/>
<rect width="118.587" height="170.048" transform="matrix(0.999976 -0.00689169 0.0169338 0.999857 -27.9668 536.331)" fill="#15A19B"/>
<path fill-rule="evenodd" clip-rule="evenodd" d="M312.665 598.847C315.67 636.271 296.138 670.095 265.38 687.252L227.615 619.081L215.284 621.727L206.783 698.259C181.583 694.88 159.175 681.557 144.086 662.167L207.889 611.335L239.761 514.232C278.831 523.53 309.307 557.022 312.665 598.847Z" fill="#2B2B2B"/>
<path d="M206.783 698.259C213.073 699.102 219.537 699.326 226.105 698.87C240.403 697.878 253.701 693.766 265.38 687.252L227.615 619.081L215.284 621.727L206.783 698.259Z" fill="black"/>
<path fill-rule="evenodd" clip-rule="evenodd" d="M144.086 662.167C133.147 648.111 126.054 630.866 124.532 611.91C124.02 605.532 124.163 599.259 124.903 593.155L187.563 568.139L194.391 514.544C199.771 513.186 205.351 512.285 211.092 511.886C220.962 511.201 230.598 512.051 239.761 514.232L207.889 611.335L144.086 662.167Z" fill="#2B2B2B"/>
<path d="M187.563 568.139L194.391 514.544C157.11 523.957 129.498 555.303 124.903 593.155L187.563 568.139Z" fill="#828282"/>
<path d="M86.7585 597.47L73.621 597.56L-12.4818 598.154L-21.8449 598.218L-18.0917 601.822L54.2722 601.324L64.4019 601.254L82.963 601.126L86.7585 597.47Z" fill="#070937"/>
<path d="M-21.8449 598.218L-20.7391 663.508L-17.0475 663.483L-17.4326 640.743L-18.0917 601.822L-21.8449 598.218Z" fill="#23266E"/>
<path d="M88.276 662.757L86.7585 597.47L82.963 601.126L84.0073 662.787L88.276 662.757Z" fill="#23266E"/>
<path fill-rule="evenodd" clip-rule="evenodd" d="M84.0073 662.787L-17.0475 663.483L-17.4326 640.743C-15.063 627.876 2.68725 603.175 54.2722 601.324L64.4019 601.254L82.963 601.126L84.0073 662.787Z" fill="#0A0F7E"/>
<path d="M-18.0917 601.822L-17.4326 640.743C-15.063 627.876 2.68725 603.175 54.2722 601.324L-18.0917 601.822Z" fill="#0A0F7E"/>
<path fill-rule="evenodd" clip-rule="evenodd" d="M-22.8242 540.394L53.2314 539.869C45.3427 552.626 24.6015 557.993 15.217 559.082L-13.1402 559.277L-22.8242 540.394Z" fill="#97F1ED"/>
<path d="M72.9626 558.684L86.4799 539.64L53.2314 539.869C45.3427 552.626 24.6015 557.993 15.217 559.082L72.9626 558.684Z" fill="#6CCAD0"/>
<path fill-rule="evenodd" clip-rule="evenodd" d="M-21.8449 598.218L-22.6421 551.148C-21.3775 558.28 -17.9192 564.315 -12.9715 569.24L-12.4818 598.154L-21.8449 598.218Z" fill="#31616B"/>
<path fill-rule="evenodd" clip-rule="evenodd" d="M86.5317 550.396L86.7585 597.47L73.621 597.56L73.2218 573.993C80.7329 568.278 85.7589 560.423 86.5317 550.396Z" fill="#31616B"/>
<path fill-rule="evenodd" clip-rule="evenodd" d="M73.621 597.56L-12.4818 598.154L-12.9715 569.24C6.9413 589.063 50.9786 590.916 73.2218 573.993L73.621 597.56Z" fill="#5192A0"/>
<path d="M15.217 559.082L-13.1402 559.277L-12.9715 569.24C6.9413 589.063 50.9786 590.916 73.2218 573.993L72.9626 558.684L15.217 559.082Z" fill="#5192A0"/>
<path d="M-13.1402 559.277L-22.8242 540.394L-22.6421 551.148C-21.3775 558.28 -17.9192 564.315 -12.9715 569.24L-13.1402 559.277Z" fill="#31616B"/>
<path d="M86.4799 539.64L72.9626 558.684L73.2218 573.993C80.7329 568.278 85.7589 560.423 86.5317 550.396L86.4799 539.64Z" fill="#31616B"/>
<path fill-rule="evenodd" clip-rule="evenodd" d="M-17.0475 663.483L-20.7391 663.508L-20.1181 700.175C6.27655 698.594 64.9079 688.897 88.276 662.757L84.0073 662.787L-17.0475 663.483Z" fill="#97F1ED"/>
<path d="M89.186 699.421L88.276 662.757C64.9079 688.897 6.27655 698.594 -20.1181 700.175L89.186 699.421Z" fill="#6CCAD0"/>
<path d="M-86.0592 440.065C-79.7485 409.82 -91.8606 388.3 -100.9 378.633C-102.167 377.279 -100.868 374.48 -98.89 374.478L228.539 374.162C229.55 374.161 230.311 374.919 230.311 375.917L230.311 441.184C230.311 442.371 229.248 443.414 228.046 443.41L-84.3243 442.286C-85.5129 442.282 -86.3049 441.243 -86.0592 440.065Z" fill="#0F102E"/>
<path d="M-62.7299 390.464C-62.2958 387.867 -59.8091 385.754 -57.1759 385.744L215.774 384.762C218.102 384.753 219.81 386.409 219.81 388.673C219.81 391.528 217.142 394.134 214.206 394.145L-58.7475 395.15C-61.381 395.159 -63.1641 393.061 -62.7299 390.464Z" fill="#1E75A6"/>
<path d="M-62.4032 409.346C-61.9691 406.749 -59.4825 404.636 -56.8492 404.626L216.101 403.644C218.429 403.636 220.137 405.291 220.137 407.555C220.137 410.411 217.468 413.016 214.533 413.027L-58.4209 414.032C-61.0544 414.042 -62.8374 411.944 -62.4032 409.346Z" fill="#1E75A6"/>
<path d="M-62.4032 426.346C-61.9691 423.749 -59.4825 421.636 -56.8492 421.626L216.101 420.644C218.429 420.636 220.137 422.291 220.137 424.555C220.137 427.411 217.468 430.016 214.533 430.027L-58.4209 431.032C-61.0544 431.042 -62.8374 428.944 -62.4032 426.346Z" fill="#1E75A6"/>
<path d="M-128.19 514.287L-117.186 505.93L174.689 504.643L167.811 512.124L-128.19 514.287Z" fill="#20A19B"/>
<path fill-rule="evenodd" clip-rule="evenodd" d="M174.979 505.311C174.96 491.791 174.989 467.624 174.967 452.124L168.311 449.259L-76.0317 449.834L-78.766 452.964C-81.5172 482.536 -108.319 501.449 -121.07 507.208L-98.3017 498.82L168.311 499.624L174.979 505.311Z" fill="#2E92A0"/>
<path d="M-121.07 507.208L174.979 505.311L168.311 499.624L-98.3017 498.82L-121.07 507.208Z" fill="#26737D"/>
<path d="M-104.244 500.917C-77.1317 481.067 -74.7931 460.241 -76.6323 449.836L168.31 449.124L168.311 499.624L-104.244 500.917Z" fill="#60EFE9"/>
<path d="M57.7547 635.103C59.1785 635.093 60.3132 633.938 60.2893 632.524C60.2839 632.207 60.2206 631.903 60.1096 631.624C59.9305 631.172 59.6269 630.783 59.2418 630.496C57.5997 630.109 55.9181 631.109 55.2825 631.657C55.181 631.938 55.1281 632.242 55.1334 632.56C55.1452 633.253 55.433 633.88 55.891 634.337C56.3677 634.814 57.0287 635.108 57.7547 635.103Z" fill="#A1A4E3"/>
<path fill-rule="evenodd" clip-rule="evenodd" d="M62.3516 632.51C62.3947 635.056 60.3522 637.133 57.7894 637.151C55.2267 637.169 53.1142 635.12 53.0711 632.574C53.028 630.028 55.0706 627.951 57.6333 627.933C60.1961 627.915 62.3085 629.965 62.3516 632.51ZM60.2893 632.524C60.3132 633.938 59.1785 635.093 57.7547 635.103C57.0287 635.108 56.3677 634.814 55.891 634.337C55.433 633.88 55.1452 633.253 55.1334 632.56C55.1281 632.242 55.181 631.938 55.2825 631.657C55.6333 630.685 56.5637 629.989 57.668 629.981C58.2565 629.977 58.8023 630.17 59.2418 630.496C59.6269 630.783 59.9305 631.172 60.1096 631.624C60.2206 631.903 60.2839 632.207 60.2893 632.524Z" fill="#6064CB"/>
<path d="M57.668 629.981C56.5637 629.989 55.6333 630.685 55.2825 631.657C55.9181 631.109 57.5997 630.109 59.2418 630.496C58.8023 630.17 58.2565 629.977 57.668 629.981Z" fill="#D3DBFF"/>
<path fill-rule="evenodd" clip-rule="evenodd" d="M64.414 632.496C64.4762 636.173 61.5259 639.174 57.8241 639.2C54.1224 639.225 51.071 636.265 51.0087 632.588C50.9465 628.911 53.8969 625.91 57.5986 625.884C61.3004 625.859 64.3517 628.819 64.414 632.496ZM57.7894 637.151C60.3522 637.133 62.3947 635.056 62.3516 632.51C62.3085 629.965 60.1961 627.915 57.6333 627.933C55.0706 627.951 53.028 630.028 53.0711 632.574C53.1142 635.12 55.2267 637.169 57.7894 637.151Z" fill="#090B33"/>
<path d="M15.9506 632.83C16.0129 636.507 13.0625 639.509 9.36073 639.534C5.65899 639.56 2.60764 636.6 2.54537 632.923C2.4831 629.246 5.43348 626.244 9.13523 626.219C12.837 626.193 15.8883 629.153 15.9506 632.83Z" fill="#090B33"/>
<path d="M13.8883 632.845C13.9314 635.39 11.8888 637.468 9.32604 637.486C6.76329 637.503 4.65082 635.454 4.60771 632.908C4.5646 630.363 6.60717 628.285 9.16992 628.267C11.7327 628.25 13.8451 630.299 13.8883 632.845Z" fill="#5A5DB2"/>
<path d="M9.20461 630.316C8.10036 630.324 7.16995 631.02 6.81915 631.991C7.4547 631.443 9.13632 630.443 10.7784 630.831C10.3389 630.504 9.79314 630.312 9.20461 630.316Z" fill="#D3D5FF"/>
<path fill-rule="evenodd" clip-rule="evenodd" d="M7.42763 634.672C8.75842 634.416 10.8208 634.402 11.6463 631.958C11.4671 631.507 11.1636 631.117 10.7784 630.831C9.13632 630.443 7.4547 631.443 6.81915 631.991C6.71766 632.273 6.66468 632.577 6.67005 632.894C6.68179 633.587 6.9696 634.214 7.42763 634.672Z" fill="#A1A4E3"/>
<path d="M9.29135 635.437C10.7151 635.427 11.8499 634.273 11.8259 632.859C11.8205 632.541 11.7573 632.238 11.6463 631.958C10.8208 634.402 8.75842 634.416 7.42763 634.672C7.90429 635.148 8.56529 635.442 9.29135 635.437Z" fill="#8386D2"/>
<path d="M23.2631 638.414L45.9488 638.257L45.9141 636.209L23.2284 636.365L23.2631 638.414Z" fill="#3D42A3"/>
<path fill-rule="evenodd" clip-rule="evenodd" d="M23.2284 636.365L23.107 629.195L45.7927 629.039L45.9141 636.209L23.2284 636.365Z" fill="#6064CB"/>
<path d="M45.7927 629.039C45.6122 628.528 44.94 627.406 43.6957 627.005L25.1346 627.133C24.4472 627.137 23.0792 627.557 23.107 629.195L45.7927 629.039Z" fill="#969BFA"/>
<ellipse cx="217.811" cy="605.624" rx="84" ry="83" fill="black"/>
<ellipse cx="217.969" cy="604.788" rx="77.158" ry="78.1637" fill="#FFFCE5"/>
<path d="M222.135 551.05V650.096C227.925 649.665 230.162 648.41 233.16 647.186C243.502 642.962 246.387 632.828 248.075 626.293C263.13 624.52 269.846 612.467 270.819 605.363C273.659 584.624 254.593 574.694 246.178 574.614C244.233 560.964 238.07 555.696 233.16 553.349C233.16 553.349 228.667 551.05 222.135 551.05Z" fill="#0F102E" stroke="#0F102E" stroke-width="2"/>
<path d="M223.824 601.954C223.098 602.138 222.337 602.138 221.612 601.954C221.416 601.22 221.416 600.444 221.612 599.71C222.33 599.456 223.11 599.456 223.824 599.71C224.102 600.432 224.102 601.232 223.824 601.954Z" fill="#0F102E"/>
<path d="M241.197 572.411C241.197 586.06 229.446 597.125 214.951 597.125C200.787 597.125 189.243 586.682 188.723 573.465C188.711 573.156 188.723 572.914 188.723 572.603C188.723 572.266 188.593 571.499 188.609 571.166C189.237 557.999 199.116 550.876 212.461 550.188C217.106 549.949 216.484 550.044 221.225 550.044C229.176 554.291 241.197 563.189 241.197 572.411Z" fill="#0F102E"/>
<path d="M221.465 600.621C221.465 615.936 209.049 628.352 193.734 628.352C191.562 628.352 189.449 628.102 187.421 627.63C187.097 627.555 186.774 627.473 186.454 627.386C174.67 624.189 166.003 613.417 166.003 600.621C166.003 587.378 175.669 576.22 188.082 573.465C188.421 573.389 188.38 573.527 188.723 573.465C190.348 573.168 192.023 572.89 193.734 572.89C209.049 572.89 221.465 585.306 221.465 600.621Z" fill="#0F102E"/>
<path d="M242.634 623.898C242.634 634.329 233.151 647.078 221.129 651.197C219.693 651.197 218.685 651.389 213.802 651.389C200.22 651.389 190.021 641.865 187.636 628.974C187.554 628.53 187.482 628.082 187.421 627.63C187.257 626.409 187.172 625.163 187.172 623.898C187.172 608.582 199.588 596.167 214.903 596.167C230.219 596.167 242.634 608.582 242.634 623.898Z" fill="#0F102E"/>
<path d="M188.723 573.465C188.711 573.156 188.723 572.914 188.723 572.603C188.723 572.266 188.593 571.499 188.609 571.166L188.082 573.465C188.421 573.389 188.38 573.527 188.723 573.465Z" fill="#0F102E"/>
<path d="M187.421 627.63C187.097 627.555 186.774 627.473 186.454 627.386L187.636 628.974C187.554 628.53 187.482 628.082 187.421 627.63Z" fill="#0F102E"/>
<path d="M199.362 600.541C200.624 597.698 202.958 595.486 205.844 594.404C201.26 589.886 198.589 583.737 198.389 577.254C189.118 577.639 180.997 583.666 177.832 592.51C176.083 598.702 179.616 605.157 185.726 606.929C191.212 608.522 197.02 605.792 199.369 600.522L199.362 600.537V600.541Z" fill="#FFBA15"/>
<path d="M221.213 607.122C221.056 608.157 220.762 609.169 220.338 610.122C215.119 621.867 201.499 627.103 189.914 621.812C178.33 616.522 173.169 602.71 178.385 590.965C175.855 596.875 178.526 603.742 184.353 606.31C190.071 608.828 196.726 606.271 199.361 600.545C200.624 597.702 202.958 595.49 205.844 594.408C209.856 598.392 215.091 600.867 220.68 601.428C221.17 601.475 221.664 601.506 222.166 601.526C222.08 603.439 221.758 605.334 221.213 607.169C221.213 607.157 221.213 607.142 221.217 607.126" fill="#D56819"/>
<path d="M223.107 601.546C222.679 601.546 222.26 601.534 221.848 601.514C221.319 614.107 210.824 623.879 198.404 623.346C185.985 622.813 176.345 612.169 176.875 599.577C177.373 587.737 186.722 578.251 198.401 577.745C198.381 577.322 198.369 576.894 198.369 576.466C198.369 576.137 198.381 575.816 198.393 575.486C184.745 576.027 174.11 587.682 174.643 601.522C175.177 615.361 186.671 626.142 200.322 625.601C213.224 625.091 223.57 614.601 224.072 601.518C223.75 601.53 223.432 601.541 223.107 601.541" fill="#0F102E"/>
<path d="M222.666 577.054C225.462 578.352 227.63 580.732 228.677 583.662C233.164 579.042 239.242 576.371 245.635 576.211C245.313 566.803 239.189 557.865 230.479 554.602C224.385 552.79 218.222 556.994 216.438 563.175C214.834 568.728 217.489 574.634 222.673 577.05H222.666V577.054Z" fill="#F34529"/>
<path d="M216.307 598.961C215.287 598.8 214.291 598.502 213.346 598.075C201.761 592.784 196.6 578.972 201.816 567.227C207.036 555.482 220.656 550.246 232.24 555.536C226.413 552.972 219.636 555.682 217.107 561.588C214.624 567.384 217.146 574.129 222.793 576.803C225.597 578.082 227.781 580.451 228.844 583.376C224.915 587.443 222.472 592.753 221.923 598.42C221.875 598.918 221.844 599.42 221.828 599.926C219.942 599.835 218.071 599.51 216.264 598.957H216.307V598.961Z" fill="#FF836F"/>
<path d="M221.805 600.883C221.805 600.451 221.816 600.024 221.836 599.604C209.416 599.082 199.765 588.455 200.279 575.859C200.777 563.619 210.714 553.964 222.797 553.98C234.887 553.98 244.778 563.725 245.284 575.851C245.699 575.827 246.123 575.819 246.542 575.819C246.868 575.819 247.182 575.831 247.507 575.843C246.997 562.474 236.111 551.721 222.797 551.721C209.138 551.721 198.067 562.952 198.071 576.804C198.071 590.267 208.561 601.326 221.828 601.855C221.828 601.53 221.809 601.204 221.809 600.875" fill="#0F102E"/>
<path d="M223.084 624.659C220.28 623.381 218.095 621.012 217.033 618.087C212.574 622.726 206.511 625.424 200.123 625.612C200.483 635.028 206.432 643.287 215.17 646.495C221.276 648.268 227.645 644.683 229.39 638.491C230.958 632.93 228.268 627.04 223.072 624.655H223.084V624.659Z" fill="#B63C98"/>
<path d="M229.33 602.502C230.338 602.663 231.318 602.961 232.244 603.389C243.652 608.679 248.734 622.491 243.597 634.236C238.46 645.982 225.044 651.217 213.64 645.927C219.377 648.491 226.052 645.782 228.542 639.876C230.985 634.079 228.503 627.334 222.942 624.66C220.177 623.381 218.032 621.012 216.981 618.087C220.855 614.02 223.259 608.714 223.805 603.043C223.852 602.545 223.879 602.043 223.899 601.538C225.758 601.628 227.597 601.953 229.381 602.506H229.33V602.502Z" fill="#FE77DD"/>
<path d="M246.445 600.965C245.205 603.82 242.645 605.701 239.771 606.807C244.39 611.29 247.354 617.762 247.605 624.24C256.876 623.781 264.955 617.687 268.049 608.812C269.747 602.608 266.163 596.181 260.041 594.455C254.543 592.906 248.758 595.683 246.449 600.973V600.965H246.445Z" fill="#3AD1CA"/>
<path d="M224.66 594.325C224.817 593.29 225.111 592.278 225.534 591.325C230.754 579.58 244.378 574.349 255.962 579.639C267.547 584.933 272.708 598.745 267.488 610.49C270.018 604.581 267.347 597.714 261.519 595.145C255.802 592.627 249.15 595.184 246.511 600.91C245.248 603.753 242.915 605.965 240.029 607.047C236.017 603.063 230.781 600.588 225.193 600.027C224.805 599.988 224.417 599.961 224.024 599.945C223.919 599.945 224.024 599.749 223.926 599.749C223.926 599.62 223.711 599.678 223.726 599.549C223.836 597.765 224.15 596 224.664 594.29C224.664 594.298 224.664 594.314 224.66 594.325Z" fill="#65FBF4"/>
<mask id="mask0_1519_532" style="mask-type:alpha" maskUnits="userSpaceOnUse" x="140" y="526" width="156" height="157">
<ellipse cx="217.969" cy="604.788" rx="77.158" ry="78.1637" fill="#FFFCE5"/>
</mask>
<g mask="url(#mask0_1519_532)">
<path d="M226.811 606.514L137.038 569.375L176.403 523.463L226.811 606.514Z" fill="#F34529"/>
<path d="M226.335 606.221L131.995 629.428L136.545 569.122L226.335 606.221Z" fill="#65FBF4"/>
<path d="M225.672 605.893L162.383 679.603L131.04 627.881L225.672 605.893Z" fill="#FFBA15"/>
<path d="M226.388 605.014L216.952 701.707L161.579 677.391L226.388 605.014Z" fill="#FE77DD"/>
</g>
<path d="M241.197 572.411C241.197 586.06 229.446 597.125 214.951 597.125C200.787 597.125 189.243 586.682 188.723 573.465C188.711 573.156 188.723 572.914 188.723 572.603C188.723 572.266 188.593 571.499 188.609 571.166C189.237 557.999 199.116 550.876 212.461 550.188C217.106 549.949 216.484 550.044 221.225 550.044C229.176 554.291 241.197 563.189 241.197 572.411Z" fill="#0F102E"/>
<path d="M221.465 600.621C221.465 615.936 209.049 628.352 193.734 628.352C191.562 628.352 189.449 628.102 187.421 627.63C187.097 627.555 186.774 627.473 186.454 627.386C174.67 624.189 166.003 613.417 166.003 600.621C166.003 587.378 175.669 576.22 188.082 573.465C188.421 573.389 188.38 573.527 188.723 573.465C190.348 573.168 192.023 572.89 193.734 572.89C209.049 572.89 221.465 585.306 221.465 600.621Z" fill="#0F102E"/>
<path d="M242.634 623.898C242.634 634.329 233.151 647.078 221.129 651.197C219.693 651.197 218.685 651.389 213.802 651.389C200.22 651.389 190.021 641.865 187.636 628.974C187.554 628.53 187.482 628.082 187.421 627.63C187.257 626.409 187.172 625.163 187.172 623.898C187.172 608.582 199.588 596.167 214.903 596.167C230.219 596.167 242.634 608.582 242.634 623.898Z" fill="#0F102E"/>
<path d="M188.723 573.465C188.711 573.156 188.723 572.914 188.723 572.603C188.723 572.266 188.593 571.499 188.609 571.166L188.082 573.465C188.421 573.389 188.38 573.527 188.723 573.465Z" fill="#0F102E"/>
<path d="M187.421 627.63C187.097 627.555 186.774 627.473 186.454 627.386L187.636 628.974C187.554 628.53 187.482 628.082 187.421 627.63Z" fill="#0F102E"/>
<path d="M199.362 600.541C200.624 597.698 202.958 595.486 205.844 594.404C201.26 589.886 198.589 583.737 198.389 577.254C189.118 577.639 180.997 583.666 177.832 592.51C176.083 598.702 179.616 605.157 185.726 606.929C191.212 608.522 197.02 605.792 199.369 600.522L199.362 600.537V600.541Z" fill="#FFBA15"/>
<path d="M221.213 607.122C221.056 608.157 220.762 609.169 220.338 610.122C215.119 621.867 201.499 627.103 189.914 621.812C178.33 616.522 173.169 602.71 178.385 590.965C175.855 596.875 178.526 603.742 184.353 606.31C190.071 608.828 196.726 606.271 199.361 600.545C200.624 597.702 202.958 595.49 205.844 594.408C209.856 598.392 215.091 600.867 220.68 601.428C221.17 601.475 221.664 601.506 222.166 601.526C222.08 603.439 221.758 605.334 221.213 607.169C221.213 607.157 221.213 607.142 221.217 607.126" fill="#D56819"/>
<path d="M222.666 577.054C225.462 578.352 227.63 580.732 228.677 583.662C233.164 579.042 239.242 576.371 245.635 576.211C245.313 566.803 239.189 557.865 230.479 554.602C224.385 552.79 218.222 556.994 216.438 563.175C214.834 568.728 217.489 574.634 222.673 577.05H222.666V577.054Z" fill="#F34529"/>
<path d="M216.307 598.961C215.287 598.8 214.291 598.502 213.346 598.075C201.761 592.784 196.6 578.972 201.816 567.227C207.036 555.482 220.656 550.246 232.24 555.536C226.413 552.972 219.636 555.682 217.107 561.588C214.624 567.384 217.146 574.129 222.793 576.803C225.597 578.082 227.781 580.451 228.844 583.376C224.915 587.443 222.472 592.753 221.923 598.42C221.875 598.918 221.844 599.42 221.828 599.926C219.942 599.835 218.071 599.51 216.264 598.957H216.307V598.961Z" fill="#FF836F"/>
<path d="M223.084 624.659C220.28 623.381 218.095 621.012 217.033 618.087C212.574 622.726 206.511 625.424 200.123 625.612C200.483 635.028 206.432 643.287 215.17 646.495C221.276 648.268 227.645 644.683 229.39 638.491C230.958 632.93 228.268 627.04 223.072 624.655H223.084V624.659Z" fill="#B63C98"/>
<path d="M229.33 602.502C230.338 602.663 231.318 602.961 232.244 603.389C243.652 608.679 248.734 622.491 243.597 634.236C238.46 645.982 225.044 651.217 213.64 645.927C219.377 648.491 226.052 645.782 228.542 639.876C230.985 634.079 228.503 627.334 222.942 624.66C220.177 623.381 218.032 621.012 216.981 618.087C220.855 614.02 223.259 608.714 223.805 603.043C223.852 602.545 223.879 602.043 223.899 601.538C225.758 601.628 227.597 601.953 229.381 602.506H229.33V602.502Z" fill="#FE77DD"/>
<path d="M246.445 600.965C245.205 603.82 242.645 605.701 239.771 606.807C244.39 611.29 247.354 617.762 247.605 624.24C256.876 623.781 264.955 617.687 268.049 608.812C269.747 602.608 266.163 596.181 260.041 594.455C254.543 592.906 248.758 595.683 246.449 600.973V600.965H246.445Z" fill="#3AD1CA"/>
<path d="M224.66 594.325C224.817 593.29 225.111 592.278 225.534 591.325C230.754 579.58 244.378 574.349 255.962 579.639C267.547 584.933 272.708 598.745 267.488 610.49C270.018 604.581 267.347 597.714 261.519 595.145C255.802 592.627 249.15 595.184 246.511 600.91C245.248 603.753 242.915 605.965 240.029 607.047C236.017 603.063 230.781 600.588 225.193 600.027C224.805 599.988 224.417 599.961 224.024 599.945C223.919 599.945 224.024 599.749 223.926 599.749C223.926 599.62 223.711 599.678 223.726 599.549C223.836 597.765 224.15 596 224.664 594.29C224.664 594.298 224.664 594.314 224.66 594.325Z" fill="#65FBF4"/>
<path d="M222.476 599.886C222.903 599.886 223.319 599.902 223.735 599.926C224.264 587.333 234.759 577.56 247.178 578.098C259.598 578.635 269.234 589.274 268.708 601.871C268.21 613.718 258.849 623.204 247.167 623.698C247.186 624.122 247.198 624.546 247.198 624.977C247.198 625.306 247.186 625.628 247.174 625.957C260.822 625.424 271.461 613.773 270.936 599.933C270.41 586.094 258.916 575.309 245.269 575.843C232.366 576.349 222.017 586.831 221.507 599.918C221.829 599.906 222.15 599.894 222.476 599.894" fill="#0F102E"/>
<path d="M223.825 600.435C223.825 600.867 224.068 601.439 224.045 601.859C236.465 602.381 246.116 613.008 245.602 625.605C245.104 637.844 235.166 647.499 223.084 647.484C210.993 647.484 201.103 637.723 200.597 625.589C200.17 625.612 199.781 625.628 199.358 625.628C199.032 625.628 198.691 625.609 198.37 625.597C198.879 638.974 209.766 649.742 223.08 649.742C236.739 649.738 247.806 638.503 247.802 624.655C247.798 611.192 236.79 600.078 223.523 599.549C223.535 599.875 223.817 600.114 223.817 600.439" fill="#0F102E"/>
<rect x="140.811" y="721.624" width="157" height="63" rx="5" fill="#B79C74"/>
<rect x="140.811" y="714.624" width="157" height="63" rx="5" fill="#FFFCE5"/>
<path d="M153.311 760.124V735.624H160.311V756.624H174.311V760.124H153.311ZM181.311 760.124V756.624H177.811V739.124H181.311V735.624H198.811V739.124H202.311V756.624H198.811V760.124H181.311ZM184.811 756.624H195.311V739.124H184.811V756.624ZM212.811 760.124V756.624H209.311V753.124H205.811V742.624H209.311V739.124H212.811V735.624H230.311V739.124H216.311V742.624H212.811V753.124H216.311V756.624H223.311V749.624H219.811V746.124H230.311V760.124H212.811ZM237.311 760.124V756.624H244.311V739.124H237.311V735.624H258.311V739.124H251.311V756.624H258.311V760.124H237.311ZM261.811 760.124V735.624H268.811V739.124H272.311V742.624H275.811V746.124H279.311V735.624H286.311V760.124H279.311V753.124H275.811V749.624H272.311V746.124H268.811V760.124H261.811Z" fill="#FE77DD"/>
<path d="M-1.00981 223.922L166.154 223.922L172.1 217.559H-1.00981V223.922Z" fill="#C11D99"/>
<path d="M-163.219 223.922L-1.00981 223.922V217.559H-169.164L-163.219 223.922Z" fill="#C11D99"/>
<path fill-rule="evenodd" clip-rule="evenodd" d="M-169.164 217.559L-172.136 214.378L-175.109 211.197L-189 299.286H-179L-169.164 217.559Z" fill="#D698C7"/>
<path d="M-169 299.286L-163.219 223.922L-169.164 217.559L-179 299.286H-169Z" fill="#BD319B"/>
<path fill-rule="evenodd" clip-rule="evenodd" d="M172.1 217.559L175.072 214.378L178.045 211.197L191.936 299.286H181.936L172.1 217.559Z" fill="#D698C7"/>
<path d="M166.154 223.922L171.936 299.286H181.936L172.1 217.559L166.154 223.922Z" fill="#BD319B"/>
<path fill-rule="evenodd" clip-rule="evenodd" d="M-172.136 214.378L-169.164 217.559H-1.00981V214.378H-172.136Z" fill="#D698C7"/>
<path d="M-1.00981 210L-175.109 211.197L-172.136 214.378H-1.00981V210Z" fill="#FFBDEF"/>
<path fill-rule="evenodd" clip-rule="evenodd" d="M175.072 214.378L172.1 217.559H-1.00981V214.378H175.072Z" fill="#D698C7"/>
<path d="M178.045 211.197L-1.00981 210V214.378H175.072L178.045 211.197Z" fill="#FFBDEF"/>
<path d="M28.4609 55.7153C28.0209 55.717 27.5941 55.6854 27.1805 55.6204C26.7669 55.5553 26.34 55.4837 25.8997 55.4054L25.8987 55.1654C25.9643 54.8985 26.0297 54.5649 26.0947 54.1647C26.1598 53.7644 26.2182 53.3642 26.27 52.964C26.3217 52.5637 26.3537 52.2303 26.366 51.9636L27.2027 41.0802L29.1227 41.0725L28.286 51.9559C28.2479 52.4494 28.1897 52.8897 28.1112 53.2766C28.0461 53.6636 27.9741 53.9972 27.8952 54.2775L27.4933 53.7991C27.7738 53.918 28.0141 53.9904 28.2142 54.0162C28.4142 54.0288 28.6542 54.0345 28.9342 54.0334C29.5742 54.0308 30.1071 53.902 30.5327 53.647C30.9583 53.3787 31.3168 53.0039 31.6083 52.5227C31.913 52.0415 32.1908 51.4737 32.4415 50.8194L36.2427 41.0442L38.2427 41.0363L34.4412 50.7315C34.032 51.7864 33.5689 52.6883 33.0519 53.437C32.5482 54.1723 31.9304 54.7348 31.1986 55.1244C30.4668 55.514 29.5543 55.7109 28.4609 55.7153ZM20.461 55.7471C20.1677 55.7482 19.8743 55.7361 19.5808 55.7106C19.2874 55.6851 18.9939 55.6462 18.7004 55.5941C18.4069 55.5552 18.1133 55.5031 17.8197 55.4376L17.8188 55.1976C17.937 54.7571 18.0419 54.2967 18.1333 53.8163C18.238 53.3226 18.3156 52.7156 18.3661 51.9954L19.2028 41.112L21.1228 41.1043L20.206 51.9881C20.1547 52.4816 20.1031 52.9285 20.0514 53.3287C20.0129 53.7155 19.961 54.069 19.8956 54.3893L19.6537 53.9103C19.8138 53.9496 19.9807 53.989 20.1542 54.0283C20.3409 54.0542 20.601 54.0665 20.9343 54.0652C21.5743 54.0626 22.1005 53.9339 22.5128 53.6789C22.9384 53.4105 23.2969 53.0358 23.5883 52.5546C23.8931 52.0734 24.1775 51.5056 24.4416 50.8512L27.2932 43.7198L26.8349 49.1617L26.2015 50.8442C25.8058 51.9125 25.3627 52.8142 24.8723 53.5495C24.3818 54.2715 23.784 54.8205 23.0788 55.1967C22.3736 55.5595 21.501 55.7429 20.461 55.7471ZM38.0588 55.4371L40.8015 41.0261L42.7215 41.0185L39.9788 55.4295L38.0588 55.4371ZM39.3388 55.432L39.6521 53.7508L47.692 53.7188L47.3787 55.4001L39.3388 55.432ZM40.6721 48.7067L40.9854 47.0254L47.6653 46.9989L47.352 48.6801L40.6721 48.7067ZM41.7682 42.7023L42.0815 41.021L49.8815 40.99L49.5681 42.6713L41.7682 42.7023ZM50.3829 55.3881L53.1257 40.9771L55.0456 40.9695L52.6162 53.6992L58.8162 53.6746L58.5029 55.3558L50.3829 55.3881ZM60.6049 49.4274C60.6006 48.3474 60.7698 47.2934 61.1124 46.2654C61.4549 45.224 61.9712 44.282 62.6611 43.4392C63.3645 42.5964 64.2351 41.9263 65.2732 41.4288C66.3112 40.9314 67.5169 40.6799 68.8902 40.6744C69.4902 40.672 70.1104 40.7296 70.7509 40.847C71.4047 40.9511 71.9319 41.1023 72.3327 41.3008L71.98 43.1422L71.82 43.1428C71.4458 42.9043 71.0117 42.726 70.5179 42.608C70.0374 42.4899 69.4172 42.4324 68.6572 42.4354C67.6972 42.4392 66.838 42.6359 66.0795 43.0256C65.3344 43.4019 64.7031 43.9244 64.1857 44.5932C63.6683 45.2486 63.2713 45.9901 62.9946 46.8179C62.7312 47.6456 62.6013 48.5128 62.6049 49.4195C62.6111 50.9795 62.9956 52.1046 63.7583 52.7949C64.521 53.4719 65.5824 53.8077 66.9424 53.8023C67.5424 53.7999 68.1155 53.7376 68.6616 53.6154C69.2078 53.4933 69.7004 53.3113 70.1395 53.0696L70.2995 53.0689L69.9068 54.9105C69.5076 55.1121 69.0349 55.2673 68.4886 55.3761C67.9558 55.4983 67.3894 55.5605 66.7894 55.5629C64.7494 55.571 63.2072 55.0305 62.1629 53.9413C61.1319 52.852 60.6126 51.3474 60.6049 49.4274ZM72.8519 49.6188C72.8477 48.5788 73.0036 47.5315 73.3194 46.4769C73.6485 45.4222 74.138 44.4536 74.7879 43.571C75.451 42.6884 76.2682 41.9784 77.2394 41.4412C78.2239 40.904 79.3629 40.6328 80.6562 40.6277C81.9095 40.6227 82.9772 40.8651 83.8591 41.3549C84.741 41.8314 85.4171 42.5154 85.8873 43.4069C86.3575 44.285 86.5949 45.3241 86.5997 46.5241C86.603 47.3507 86.4997 48.1912 86.2897 49.0453C86.0931 49.8995 85.7897 50.714 85.3794 51.489C84.9691 52.2506 84.4518 52.9393 83.8276 53.5552C83.2033 54.1576 82.4719 54.6339 81.6333 54.9839C80.7947 55.3339 79.8487 55.511 78.7954 55.5152C77.542 55.5202 76.4744 55.2844 75.5925 54.8079C74.7106 54.3181 74.0345 53.6341 73.5644 52.7559C73.0941 51.8645 72.8567 50.8187 72.8519 49.6188ZM74.8519 49.6108C74.8574 51.0108 75.2283 52.056 75.9643 52.7464C76.7004 53.4235 77.6684 53.7596 78.8684 53.7549C79.855 53.7509 80.7075 53.5342 81.4258 53.1047C82.1441 52.6752 82.7352 52.1062 83.199 51.3976C83.6762 50.6891 84.0265 49.9143 84.2498 49.0734C84.4864 48.2192 84.603 47.372 84.5997 46.532C84.5941 45.132 84.2233 44.0935 83.4873 43.4164C82.7512 42.726 81.7832 42.3832 80.5832 42.388C79.6099 42.3918 78.7574 42.6086 78.0258 43.0381C77.3075 43.4677 76.7097 44.0367 76.2325 44.7453C75.7687 45.4538 75.4185 46.2352 75.1818 47.0895C74.9585 47.9304 74.8485 48.7708 74.8519 49.6108ZM90.8207 40.8273L92.4207 40.8209L95.9721 48.7268L95.3318 48.6494L101.781 40.7837L103.381 40.7773L100.638 55.1883L98.7179 55.196L100.912 43.5872L101.552 43.6646L96.0982 50.2464L94.5782 50.2524L91.6321 43.7041L92.1918 43.6218L89.9979 55.2306L88.0779 55.2383L90.8207 40.8273ZM104.484 55.1731L107.227 40.762L109.147 40.7544L106.404 55.1654L104.484 55.1731ZM105.764 55.168L106.077 53.4867L114.117 53.4547L113.804 55.136L105.764 55.168ZM107.097 48.4426L107.411 46.7614L114.091 46.7348L113.777 48.4161L107.097 48.4426ZM108.193 42.4382L108.507 40.7569L116.307 40.7259L115.993 42.4072L108.193 42.4382ZM123.028 40.6992L134.228 40.6547L133.915 42.336L129.255 42.3545L126.845 55.0842L124.925 55.0918L127.335 42.3621L122.715 42.3805L123.028 40.6992ZM133.496 49.3777C133.492 48.3377 133.648 47.2904 133.963 46.2358C134.293 45.1811 134.782 44.2125 135.432 43.3299C136.095 42.4473 136.912 41.7374 137.883 41.2002C138.868 40.6629 140.007 40.3917 141.3 40.3866C142.554 40.3816 143.621 40.624 144.503 41.1139C145.385 41.5904 146.061 42.2743 146.531 43.1658C147.002 44.044 147.239 45.083 147.244 46.283C147.247 47.1097 147.144 47.9501 146.934 48.8043C146.737 49.6584 146.434 50.4729 146.023 51.2479C145.613 52.0095 145.096 52.6983 144.472 53.3141C143.847 53.9166 143.116 54.3928 142.277 54.7428C141.439 55.0928 140.493 55.2699 139.439 55.2741C138.186 55.2791 137.118 55.0433 136.237 54.5668C135.355 54.077 134.679 53.393 134.208 52.5149C133.738 51.6234 133.501 50.5777 133.496 49.3777ZM135.496 49.3697C135.501 50.7697 135.872 51.8149 136.608 52.5053C137.344 53.1824 138.312 53.5186 139.512 53.5138C140.499 53.5099 141.352 53.2932 142.07 52.8636C142.788 52.4341 143.379 51.8651 143.843 51.1566C144.32 50.448 144.671 49.6733 144.894 48.8324C145.13 47.9781 145.247 47.1309 145.244 46.291C145.238 44.891 144.867 43.8524 144.131 43.1754C143.395 42.4849 142.427 42.1421 141.227 42.1469C140.254 42.1508 139.401 42.3675 138.67 42.7971C137.952 43.2266 137.354 43.7956 136.877 44.5042C136.413 45.2127 136.063 45.9941 135.826 46.8484C135.603 47.6893 135.493 48.5297 135.496 49.3697Z" fill="white"/>
<line x1="162" y1="47.5002" x2="348" y2="47.5002" stroke="white" stroke-width="5"/>
<path d="M17 94.5V70H38V73.5H41.5V84H34.5V87.5H38V91H41.5V94.5H31V91H27.5V87.5H24V94.5H17ZM24 84H31V80.5H34.5V73.5H24V84ZM45 94.5V70H69.5V73.5H52V80.5H66V84H52V91H69.5V94.5H45ZM73 94.5V70H97.5V73.5H80V80.5H94V84H80V94.5H73ZM104.5 94.5V70H111.5V91H125.5V94.5H104.5ZM129 94.5V70H153.5V73.5H136V80.5H150V84H136V91H153.5V94.5H129ZM164 94.5V91H160.5V87.5H157V77H160.5V73.5H164V70H178V73.5H181.5V77H174.5V73.5H167.5V77H164V87.5H167.5V91H174.5V87.5H181.5V91H178V94.5H164ZM195.5 94.5V73.5H188.5V70H209.5V73.5H202.5V94.5H195.5ZM216.5 94.5V91H223.5V73.5H216.5V70H237.5V73.5H230.5V91H237.5V94.5H216.5ZM244.5 94.5V91H241V73.5H244.5V70H262V73.5H265.5V91H262V94.5H244.5ZM248 91H258.5V73.5H248V91ZM269 94.5V70H276V73.5H279.5V77H283V80.5H286.5V70H293.5V94.5H286.5V87.5H283V84H279.5V80.5H276V94.5H269ZM300.5 94.5V91H297V87.5H304V91H314.5V84H300.5V80.5H297V73.5H300.5V70H318V73.5H321.5V77H314.5V73.5H304V80.5H318V84H321.5V91H318V94.5H300.5Z" fill="#FE77DD"/>
<path d="M17.5 133.5V109H24.5V133.5H17.5ZM35 133.5V109H56V112.5H59.5V123H56V126.5H42V133.5H35ZM42 123H52.5V112.5H42V123ZM63 133.5V109H84V112.5H87.5V123H80.5V126.5H84V130H87.5V133.5H77V130H73.5V126.5H70V133.5H63ZM70 123H77V119.5H80.5V112.5H70V123ZM94.5 133.5V130H91V112.5H94.5V109H112V112.5H115.5V130H112V133.5H94.5ZM98 130H108.5V112.5H98V130ZM122.5 133.5V130H119V126.5H126V130H136.5V109H143.5V130H140V133.5H122.5ZM147 133.5V109H171.5V112.5H154V119.5H168V123H154V130H171.5V133.5H147ZM182 133.5V130H178.5V126.5H175V116H178.5V112.5H182V109H196V112.5H199.5V116H192.5V112.5H185.5V116H182V126.5H185.5V130H192.5V126.5H199.5V130H196V133.5H182ZM213.5 133.5V112.5H206.5V109H227.5V112.5H220.5V133.5H213.5ZM234.5 133.5V130H241.5V112.5H234.5V109H255.5V112.5H248.5V130H255.5V133.5H234.5ZM262.5 133.5V130H259V112.5H262.5V109H280V112.5H283.5V130H280V133.5H262.5ZM266 130H276.5V112.5H266V130ZM287 133.5V109H294V112.5H297.5V116H301V119.5H304.5V109H311.5V133.5H304.5V126.5H301V123H297.5V119.5H294V133.5H287ZM318.5 133.5V130H315V126.5H322V130H332.5V123H318.5V119.5H315V112.5H318.5V109H336V112.5H339.5V116H332.5V112.5H322V119.5H336V123H339.5V130H336V133.5H318.5Z" fill="#FE77DD"/>
</g>
<defs>
<clipPath id="clip0_1519_532">
<rect width="393" height="852" fill="white"/>
</clipPath>
</defs>
</svg>
