<svg width="353" height="175" viewBox="0 0 353 175" fill="none" xmlns="http://www.w3.org/2000/svg">
<rect x="5" y="36" width="336" height="128" fill="#FFFBD5"/>
<path d="M11 169H347V172H11V169Z" fill="#FFD668"/>
<path d="M347 169H350V172H347V169Z" fill="#FFD668"/>
<path d="M347 45H350V169H347V45Z" fill="#FFD668"/>
<path d="M344 42H347V169H344V42Z" fill="#FFD668"/>
<path d="M341 159H344V169H341V159Z" fill="#FFD668"/>
<path d="M338 159H341V169H338V159Z" fill="#FFD668"/>
<path d="M336 159H339V169H336V159Z" fill="#FFD668"/>
<path d="M350 48H353V169H350V48Z" fill="#FFD668"/>
<path d="M14 172H347V175H14V172Z" fill="#FFD668"/>
<path d="M5 36H10V41H5V36Z" fill="#FF81D2"/>
<path d="M5 159H10V164H5V159Z" fill="#FF81D2"/>
<path d="M0 41H5V159H0V41Z" fill="#FF81D2"/>
<path d="M341 41H346V159H341V41Z" fill="#FF81D2"/>
<path d="M336 36H341V41H336V36Z" fill="#FF81D2"/>
<path d="M336 154H341V164H336V154Z" fill="#FF81D2"/>
<path d="M10 31H336V36H10V31Z" fill="#FF81D2"/>
<path d="M10 164H336V169H10V164Z" fill="#FF81D2"/>
<rect x="12" y="40" width="320" height="15.6614" rx="3" fill="url(#paint0_linear_2735_415)"/>
<path d="M36 8H117V11H36V8Z" fill="#FFD668"/>
<path d="M117 8H120V11H117V8Z" fill="#FFD668"/>
<path d="M39 5H117V8H39V5Z" fill="#FFD668"/>
<path d="M33 11H120V31H33V11Z" fill="#FFD668"/>
<path d="M120 11H123V31H120V11Z" fill="#FFD668"/>
<path d="M37.065 13.2H39.72V19.65C39.72 20.4 39.86 20.97 40.14 21.36C40.43 21.74 40.92 21.93 41.61 21.93C42.31 21.93 42.805 21.74 43.095 21.36C43.395 20.97 43.545 20.4 43.545 19.65V13.2H46.2V19.515C46.2 21.045 45.825 22.205 45.075 22.995C44.335 23.785 43.18 24.18 41.61 24.18C40.02 24.18 38.865 23.785 38.145 22.995C37.425 22.205 37.065 21.045 37.065 19.515V13.2ZM49.8593 21.24V19.095H52.3193C52.8193 19.095 53.2193 18.995 53.5193 18.795C53.8293 18.595 54.0493 18.33 54.1793 18C54.3193 17.67 54.3893 17.305 54.3893 16.905C54.3893 16.385 54.2393 16.01 53.9393 15.78C53.6493 15.54 53.2693 15.42 52.7993 15.42H49.8593V13.2H52.7693C54.1693 13.2 55.2293 13.52 55.9493 14.16C56.6693 14.8 57.0293 15.69 57.0293 16.83C57.0293 17.44 56.9293 18.015 56.7293 18.555C56.5393 19.095 56.2493 19.565 55.8593 19.965C55.4693 20.365 54.9843 20.68 54.4043 20.91C53.8343 21.13 53.1693 21.24 52.4093 21.24H49.8593ZM48.4193 24V13.2H51.0893V24H48.4193ZM58.3683 18.6C58.3683 17.47 58.5883 16.49 59.0283 15.66C59.4783 14.82 60.1433 14.17 61.0233 13.71C61.9133 13.25 63.0183 13.02 64.3383 13.02C64.8483 13.02 65.3083 13.06 65.7183 13.14C66.1283 13.22 66.4533 13.31 66.6933 13.41V15.705H66.5283C66.2883 15.575 65.9933 15.47 65.6433 15.39C65.2933 15.31 64.9133 15.27 64.5033 15.27C63.7133 15.27 63.0633 15.405 62.5533 15.675C62.0533 15.945 61.6833 16.33 61.4433 16.83C61.2033 17.33 61.0833 17.92 61.0833 18.6C61.0833 19.28 61.2033 19.87 61.4433 20.37C61.6833 20.87 62.0533 21.255 62.5533 21.525C63.0633 21.795 63.7133 21.93 64.5033 21.93C64.9133 21.93 65.2933 21.89 65.6433 21.81C65.9933 21.73 66.2883 21.625 66.5283 21.495H66.6933V23.79C66.4533 23.89 66.1283 23.98 65.7183 24.06C65.3083 24.14 64.8483 24.18 64.3383 24.18C63.0183 24.18 61.9133 23.955 61.0233 23.505C60.1433 23.055 59.4783 22.415 59.0283 21.585C58.5883 20.745 58.3683 19.75 58.3683 18.6ZM67.9191 18.6C67.9191 17.5 68.1341 16.53 68.5641 15.69C68.9941 14.85 69.6191 14.195 70.4391 13.725C71.2591 13.255 72.2541 13.02 73.4241 13.02C74.5841 13.02 75.5741 13.255 76.3941 13.725C77.2241 14.195 77.8541 14.85 78.2841 15.69C78.7141 16.53 78.9291 17.5 78.9291 18.6C78.9291 19.7 78.7141 20.67 78.2841 21.51C77.8541 22.35 77.2241 23.005 76.3941 23.475C75.5741 23.945 74.5841 24.18 73.4241 24.18C72.2541 24.18 71.2591 23.95 70.4391 23.49C69.6191 23.02 68.9941 22.365 68.5641 21.525C68.1341 20.685 67.9191 19.71 67.9191 18.6ZM70.6341 18.6C70.6341 19.25 70.7341 19.83 70.9341 20.34C71.1441 20.84 71.4541 21.23 71.8641 21.51C72.2841 21.79 72.8041 21.93 73.4241 21.93C74.0441 21.93 74.5591 21.79 74.9691 21.51C75.3791 21.23 75.6841 20.84 75.8841 20.34C76.0941 19.83 76.1991 19.25 76.1991 18.6C76.1991 17.95 76.0941 17.375 75.8841 16.875C75.6841 16.365 75.3791 15.97 74.9691 15.69C74.5591 15.41 74.0441 15.27 73.4241 15.27C72.8041 15.27 72.2841 15.41 71.8641 15.69C71.4541 15.97 71.1441 16.365 70.9341 16.875C70.7341 17.375 70.6341 17.95 70.6341 18.6ZM80.7045 24V13.2H82.9545L86.6895 19.335L85.5945 19.35L89.2695 13.2H91.5195V24H88.8645V17.025L89.4045 17.175L86.7495 21.585H85.4745L82.8195 17.235L83.3745 17.085V24H80.7045ZM93.8002 13.2H96.4702V24H93.8002V13.2ZM98.7513 24V13.2H100.881L106.236 18.615V22.11L100.656 16.47L101.421 16.155V24H98.7513ZM105.351 24V13.2H108.006V24H105.351ZM109.784 18.645C109.784 17.535 110.019 16.56 110.489 15.72C110.969 14.87 111.669 14.21 112.589 13.74C113.509 13.26 114.639 13.02 115.979 13.02C116.529 13.02 117.024 13.06 117.464 13.14C117.904 13.22 118.239 13.31 118.469 13.41V15.705H118.304C118.084 15.585 117.774 15.485 117.374 15.405C116.974 15.315 116.544 15.27 116.084 15.27C114.884 15.27 113.984 15.56 113.384 16.14C112.794 16.72 112.499 17.57 112.499 18.69C112.499 19.38 112.624 19.975 112.874 20.475C113.124 20.965 113.479 21.34 113.939 21.6C114.399 21.86 114.944 21.99 115.574 21.99C115.874 21.99 116.129 21.96 116.339 21.9C116.549 21.84 116.734 21.735 116.894 21.585L116.399 22.98V18.48H118.844V23.58C118.454 23.76 117.974 23.905 117.404 24.015C116.844 24.125 116.224 24.18 115.544 24.18C114.264 24.18 113.199 23.95 112.349 23.49C111.499 23.03 110.859 22.385 110.429 21.555C109.999 20.715 109.784 19.745 109.784 18.645Z" fill="#0A0F7E"/>
<defs>
<linearGradient id="paint0_linear_2735_415" x1="12" y1="47.8307" x2="332" y2="47.8307" gradientUnits="userSpaceOnUse">
<stop stop-color="#FE77DD"/>
<stop offset="1" stop-color="#FFD963"/>
</linearGradient>
</defs>
</svg>
