<svg width="106" height="714" viewBox="0 0 106 714" fill="none" xmlns="http://www.w3.org/2000/svg">
<rect x="70" y="12" width="6" height="6" fill="#2FD2CB"/>
<rect x="76" y="541" width="6" height="155" fill="#2FD2CB"/>
<path d="M31 668H37V674H31V668Z" fill="#40E2DB"/>
<path d="M37 668H68V674H37V668Z" fill="#40E2DB"/>
<path d="M37 662H62V668H37V662Z" fill="#40E2DB"/>
<path d="M37 674H62V680H37V674Z" fill="#40E2DB"/>
<path d="M31 636H37V642H31V636Z" fill="#40E2DB"/>
<path d="M37 636H68V642H37V636Z" fill="#40E2DB"/>
<path d="M37 630H62V636H37V630Z" fill="#40E2DB"/>
<path d="M37 642H62V648H37V642Z" fill="#40E2DB"/>
<path d="M31 604H37V610H31V604Z" fill="#2FD2CB"/>
<path d="M37 604H68V610H37V604Z" fill="#2FD2CB"/>
<path d="M37 598H62V604H37V598Z" fill="#2FD2CB"/>
<path d="M37 610H62V616H37V610Z" fill="#2FD2CB"/>
<rect x="82" y="535" width="6" height="6" fill="#2FD2CB"/>
<rect x="94" y="523" width="6" height="6" fill="#2FD2CB"/>
<rect x="94" y="368" width="6" height="6" fill="#2FD2CB"/>
<rect x="88" y="362" width="6" height="6" fill="#2FD2CB"/>
<rect x="64" y="6" width="6" height="6" fill="#2FD2CB"/>
<rect x="30" width="34" height="6" fill="#2FD2CB"/>
<rect x="24" y="6" width="6" height="6" fill="#2FD2CB"/>
<rect x="18" y="12" width="6" height="6" fill="#2FD2CB"/>
<rect x="18" y="18" width="6" height="72" fill="#2FD2CB"/>
<rect x="12" y="90" width="6" height="6" fill="#2FD2CB"/>
<rect x="6" y="96" width="6" height="6" fill="#2FD2CB"/>
<rect y="102" width="6" height="140" fill="#2FD2CB"/>
<rect x="82" y="356" width="6" height="6" fill="#2FD2CB"/>
<rect x="76" y="18" width="6" height="338" fill="#2FD2CB"/>
<rect x="100" y="374" width="6" height="149" fill="#2FD2CB"/>
<rect x="6" y="242" width="6" height="6" fill="#2FD2CB"/>
<rect x="12" y="248" width="6" height="6" fill="#2FD2CB"/>
<rect x="18" y="254" width="6" height="448" fill="#2FD2CB"/>
<rect x="24" y="702" width="6" height="6" fill="#2FD2CB"/>
<rect x="88" y="374" width="6" height="149" fill="#2FD2CB"/>
<rect x="30" y="708" width="37" height="6" fill="#2FD2CB"/>
<rect x="67" y="702" width="6" height="6" fill="#2FD2CB"/>
<rect x="73" y="696" width="6" height="6" fill="#2FD2CB"/>
<rect x="94" y="374" width="6" height="24" fill="#2FD2CB"/>
<rect x="94" y="416" width="6" height="107" fill="#2FD2CB"/>
<rect x="94" y="404" width="6" height="6" fill="#2FD2CB"/>
<rect x="12" y="102" width="6" height="140" fill="#2FD2CB"/>
<rect x="6" y="230" width="6" height="12" fill="#2FD2CB"/>
<rect x="6" y="217" width="6" height="6" fill="#2FD2CB"/>
<rect x="6" y="102" width="6" height="110" fill="#2FD2CB"/>
<rect x="20" y="467" width="75" height="6" fill="#2FD2CB" fill-opacity="0.99"/>
<rect x="6" y="217" width="75" height="6" fill="#2FD2CB"/>
<rect x="88" y="529" width="6" height="6" fill="#2FD2CB"/>
<path d="M37 566V572H31V578H37V584H62V578H68V572H62V566H37Z" stroke="#2FD2CB" stroke-width="2"/>
<path d="M37 534V540H31V546H37V552H62V546H68V540H62V534H37Z" stroke="#2FD2CB" stroke-width="2"/>
<path d="M37 502V508H31V514H37V520H62V514H68V508H62V502H37Z" stroke="#2FD2CB" stroke-width="2"/>
<path d="M37 416V422H31V428H37V434H62V428H68V422H62V416H37Z" stroke="#2FD2CB" stroke-width="2"/>
<path d="M37 384V390H31V396H37V402H62V396H68V390H62V384H37Z" stroke="#2FD2CB" stroke-width="2"/>
<path d="M37 352V358H31V364H37V370H62V364H68V358H62V352H37Z" stroke="#2FD2CB" stroke-width="2"/>
<path d="M37 320V326H31V332H37V338H62V332H68V326H62V320H37Z" stroke="#2FD2CB" stroke-width="2"/>
<path d="M37 288V294H31V300H37V306H62V300H68V294H62V288H37Z" stroke="#2FD2CB" stroke-width="2"/>
<path d="M37 256V262H31V268H37V274H62V268H68V262H62V256H37Z" stroke="#2FD2CB" stroke-width="2"/>
<path d="M37 179V185H31V191H37V197H62V191H68V185H62V179H37Z" stroke="#2FD2CB" stroke-width="2"/>
<path d="M37 147V153H31V159H37V165H62V159H68V153H62V147H37Z" stroke="#2FD2CB" stroke-width="2"/>
<path d="M37 115V121H31V127H37V133H62V127H68V121H62V115H37Z" stroke="#2FD2CB" stroke-width="2"/>
<path d="M37 83V89H31V95H37V101H62V95H68V89H62V83H37Z" stroke="#2FD2CB" stroke-width="2"/>
<path d="M37 51V57H31V63H37V69H62V63H68V57H62V51H37Z" stroke="#2FD2CB" stroke-width="2"/>
<path d="M37 19V25H31V31H37V37H62V31H68V25H62V19H37Z" stroke="#2FD2CB" stroke-width="2"/>
<circle cx="57" cy="470" r="17.5" fill="#0F102E" stroke="#2FD2CB" stroke-width="3"/>
<rect x="51.5938" y="461.531" width="9.40607" height="6.56238" fill="#FFBC7B"/>
<rect x="54.6562" y="468.094" width="4.81241" height="11.3748" fill="#FFBC7B"/>
<rect x="53.125" y="477.937" width="4.59366" height="1.53122" fill="#FFBC7B"/>
<rect x="64.0625" y="461.312" width="3.06244" height="1.53122" fill="#DF7668"/>
<rect x="47" y="461.312" width="3.06244" height="1.53122" fill="#DF7668"/>
<rect x="65.5928" y="462.844" width="1.53122" height="1.53122" fill="#DF7668"/>
<rect x="65.5928" y="464.375" width="1.53122" height="1.53122" fill="#DF7668"/>
<rect x="47" y="462.844" width="1.53122" height="2.8437" fill="#DF7668"/>
<rect x="64.0625" y="465.688" width="1.53122" height="1.53122" fill="#DF7668"/>
<rect x="48.5312" y="465.688" width="1.53122" height="1.53122" fill="#DF7668"/>
<rect x="50.0625" y="466.562" width="3.06244" height="1.53122" fill="#DF7668"/>
<rect x="51.5938" y="468.094" width="3.06244" height="1.53122" fill="#DF7668"/>
<rect x="53.125" y="469.625" width="3.06244" height="1.53122" fill="#DF7668"/>
<rect x="53.125" y="476.406" width="3.06244" height="1.53122" fill="#DF7668"/>
<rect x="51.5938" y="477.937" width="1.53122" height="3.06244" fill="#DF7668"/>
<rect x="51.5938" y="479.468" width="10.9373" height="1.53122" fill="#DF7668"/>
<rect x="60.999" y="477.937" width="1.53122" height="3.06244" fill="#DF7668"/>
<rect x="57.9375" y="476.406" width="3.06244" height="1.53122" fill="#DF7668"/>
<rect x="57.9375" y="469.625" width="3.06244" height="1.53122" fill="#DF7668"/>
<rect x="59.4678" y="468.094" width="3.06244" height="1.53122" fill="#DF7668"/>
<rect x="60.999" y="466.562" width="3.06244" height="1.53122" fill="#DF7668"/>
<rect x="50.0625" y="461.312" width="1.53122" height="5.46865" fill="#DF7668"/>
<rect x="54.6562" y="471.156" width="1.53122" height="5.46865" fill="#DF7668"/>
<rect x="57.9375" y="471.156" width="1.53122" height="5.46865" fill="#DF7668"/>
<rect x="62.5303" y="461.312" width="1.53122" height="5.46865" fill="#DF7668"/>
<rect x="50.0625" y="460" width="13.9997" height="1.53122" fill="#DF7668"/>
<rect x="61" y="461.531" width="1.53122" height="5.03115" fill="#FFD598"/>
<rect x="59.4697" y="466.562" width="1.53122" height="1.53122" fill="#FFD598"/>
<rect x="57.9375" y="468.093" width="1.53122" height="1.53122" fill="#FFD598"/>
<rect x="59.4697" y="477.937" width="1.53122" height="1.53122" fill="#FFD598"/>
<circle cx="47" cy="220" r="17.5" fill="#0F102E" stroke="#2FD2CB" stroke-width="3"/>
<rect x="41.957" y="217.823" width="10.6335" height="9.1299" fill="#07D6E8"/>
<rect x="44.3066" y="226.953" width="5.93496" height="2.8092" fill="#07D6E8"/>
<rect x="46.6562" y="229.762" width="1.1128" height="1.4046" fill="#07D6E8"/>
<rect x="53.7031" y="213.047" width="2.34925" height="4.07334" fill="white"/>
<rect x="54.9385" y="215.715" width="2.34925" height="1.4046" fill="white"/>
<rect x="53.457" y="218.666" width="3.83299" height="2.66874" fill="#9AFDF8"/>
<rect x="52.4678" y="221.334" width="2.4729" height="2.8092" fill="#9AFDF8"/>
<rect x="51.2314" y="222.879" width="2.4729" height="2.66874" fill="#9AFDF8"/>
<rect x="49.0049" y="225.548" width="2.4729" height="2.8092" fill="#9AFDF8"/>
<rect x="47.7686" y="226.953" width="2.4729" height="2.66874" fill="#9AFDF8"/>
<rect x="37.1348" y="214.451" width="3.5857" height="2.66874" fill="#07D6E8"/>
<rect x="38.3711" y="213.047" width="2.34925" height="2.66874" fill="#07D6E8"/>
<rect x="37.1348" y="218.665" width="3.70935" height="2.8092" fill="#14BAD4"/>
<rect x="39.6084" y="221.475" width="3.5857" height="2.8092" fill="#14BAD4"/>
<rect x="41.957" y="224.143" width="2.4729" height="2.8092" fill="#14BAD4"/>
<rect x="44.3066" y="226.952" width="2.34925" height="2.8092" fill="#14BAD4"/>
<rect x="50.1182" y="214.451" width="3.5857" height="2.66874" fill="#07D6E8"/>
<rect x="49.0049" y="213.047" width="3.5857" height="2.66874" fill="#07D6E8"/>
<rect x="41.957" y="215.856" width="1.1128" height="1.26414" fill="#14BAD4"/>
<rect x="41.957" y="213.047" width="3.5857" height="2.8092" fill="#14BAD4"/>
<rect x="44.3066" y="214.451" width="5.93496" height="2.8092" fill="#9AFDF8"/>
<rect x="46.5322" y="213.047" width="1.48374" height="2.8092" fill="#9AFDF8"/>
<rect x="39.4844" y="211.643" width="15.4556" height="1.4046" fill="#19829F"/>
<rect x="38.3711" y="213.047" width="1.1128" height="1.4046" fill="#19829F"/>
<path d="M37.1348 214.452H38.3712V215.857H37.1348V214.452Z" fill="#19829F"/>
<rect x="36.0215" y="215.856" width="1.1128" height="1.4046" fill="#19829F"/>
<rect x="34.7852" y="217.261" width="1.23645" height="1.4046" fill="#19829F"/>
<rect x="58.4023" y="217.121" width="1.23645" height="1.4046" fill="#19829F"/>
<rect x="57.2891" y="215.716" width="1.1128" height="1.4046" fill="#19829F"/>
<rect x="56.0518" y="214.452" width="1.23645" height="1.26414" fill="#19829F"/>
<rect x="54.9395" y="213.047" width="1.1128" height="1.4046" fill="#19829F"/>
<rect x="36.0215" y="218.666" width="1.1128" height="1.4046" fill="#19829F"/>
<rect x="37.1348" y="220.07" width="1.23645" height="1.4046" fill="#19829F"/>
<rect x="38.3711" y="221.475" width="1.23645" height="1.4046" fill="#19829F"/>
<rect x="39.6074" y="222.879" width="1.1128" height="1.4046" fill="#19829F"/>
<rect x="40.7207" y="224.284" width="1.23645" height="1.26414" fill="#19829F"/>
<rect x="41.957" y="225.548" width="1.1128" height="1.4046" fill="#19829F"/>
<rect x="43.0703" y="226.953" width="1.23645" height="1.4046" fill="#19829F"/>
<rect x="44.3057" y="228.357" width="1.23645" height="1.4046" fill="#19829F"/>
<rect x="45.542" y="229.762" width="1.1128" height="1.4046" fill="#19829F"/>
<rect x="46.6553" y="231.167" width="1.1128" height="1.4046" fill="#19829F"/>
<rect x="47.7686" y="229.762" width="1.23645" height="1.4046" fill="#19829F"/>
<rect x="49.0049" y="228.357" width="1.23645" height="1.4046" fill="#19829F"/>
<rect x="50.2412" y="226.953" width="1.23645" height="1.4046" fill="#19829F"/>
<rect x="51.4775" y="225.548" width="1.1128" height="1.4046" fill="#19829F"/>
<rect x="52.5908" y="224.144" width="1.1128" height="1.4046" fill="#19829F"/>
<rect x="53.7041" y="222.739" width="1.23645" height="1.4046" fill="#19829F"/>
<rect x="54.9395" y="221.334" width="1.1128" height="1.4046" fill="#19829F"/>
<rect x="56.0518" y="219.93" width="1.23645" height="1.4046" fill="#19829F"/>
<rect x="57.2891" y="218.525" width="1.1128" height="1.4046" fill="#19829F"/>
<rect x="40.7207" y="213.047" width="1.23645" height="8.4276" fill="#19829F"/>
<rect x="36.0215" y="217.12" width="22.3797" height="1.54506" fill="#19829F"/>
<rect x="41.957" y="221.475" width="1.23645" height="1.4046" fill="#19829F"/>
<rect x="43.0684" y="215.856" width="1.23645" height="1.4046" fill="#19829F"/>
<rect x="44.3057" y="214.451" width="1.23645" height="1.4046" fill="#19829F"/>
<rect x="45.542" y="213.047" width="1.23645" height="1.4046" fill="#19829F"/>
<rect x="47.7676" y="213.047" width="1.23645" height="1.4046" fill="#19829F"/>
<rect x="49.0039" y="214.451" width="1.23645" height="1.4046" fill="#19829F"/>
<rect x="50.2412" y="215.856" width="1.23645" height="1.4046" fill="#19829F"/>
<rect x="44.4297" y="225.548" width="1.23645" height="1.4046" fill="#19829F"/>
<rect x="48.8809" y="225.548" width="1.23645" height="1.4046" fill="#19829F"/>
<rect x="47.7676" y="226.953" width="1.23645" height="2.8092" fill="#19829F"/>
<rect x="45.4189" y="226.953" width="1.23645" height="2.8092" fill="#19829F"/>
<rect x="43.1924" y="222.879" width="1.23645" height="2.66874" fill="#19829F"/>
<rect x="51.3545" y="221.475" width="1.1128" height="1.4046" fill="#19829F"/>
<rect x="50.1172" y="222.879" width="1.23645" height="2.66874" fill="#19829F"/>
<rect x="52.4658" y="213.047" width="1.23645" height="8.4276" fill="#19829F"/>
</svg>
