<svg width="69" height="69" viewBox="0 0 69 69" fill="none" xmlns="http://www.w3.org/2000/svg">
<rect x="7" y="14" width="55" height="41" fill="#FFBC7B"/>
<rect x="21" y="7" width="27" height="61" fill="#FFBC7B"/>
<rect x="21" width="27" height="7" fill="#DF7668"/>
<rect x="28" y="21" width="13" height="7" fill="#DF7668"/>
<rect x="28" y="42" width="13" height="7" fill="#DF7668"/>
<rect x="41" y="28" width="7" height="14" fill="#DF7668"/>
<rect x="21" y="28" width="7" height="14" fill="#DF7668"/>
<rect x="21" y="62" width="27" height="7" fill="#DF7668"/>
<rect x="48" y="55" width="7" height="7" fill="#DF7668"/>
<rect x="55" y="48" width="7" height="7" fill="#DF7668"/>
<rect x="14" y="55" width="7" height="7" fill="#DF7668"/>
<rect x="7" y="48" width="7" height="7" fill="#DF7668"/>
<rect x="7" y="14" width="7" height="7" fill="#DF7668"/>
<rect x="14" y="7" width="7" height="7" fill="#DF7668"/>
<rect x="48" y="7" width="7" height="7" fill="#DF7668"/>
<rect x="55" y="14" width="7" height="7" fill="#DF7668"/>
<rect y="21" width="7" height="27" fill="#DF7668"/>
<rect x="62" y="21" width="7" height="27" fill="#DF7668"/>
<rect x="28" y="28" width="7" height="7" fill="white"/>
<rect x="7" y="21" width="7" height="27" fill="#FFD598"/>
<rect x="14" y="14" width="7" height="7" fill="#FFD598"/>
<rect x="21" y="7" width="27" height="7" fill="#FFD598"/>
</svg>
